<?xml version="1.0" encoding="UTF-8"?>
<!-- Generator: visioncortex VTracer 0.6.4 -->
<svg version="1.1" xmlns="http://www.w3.org/2000/svg" width="505" height="505">
<path d="M0 0 C0.33 0 0.66 0 1 0 C1 166.65 1 333.3 1 505 C0.6699999999999999 505 0.33999999999999997 505 0 505 C0 338.35 0 171.7 0 0 Z " fill="#000000" transform="translate(0,0)"/>
<path d="M0 0 C2.95703125 1.425781249999993 2.95703125 1.425781249999993 5.8125 3.3125 C6.7676953124999955 3.9273828124999994 7.722890624999991 4.542265624999999 8.70703125 5.17578125 C11 7 11 7 12 10 C13.313905069014481 10.704184416073126 14.651284133490378 11.365029344262723 16 12 C21.210625810881538 16.103006645906724 25.80954226970917 20.70793200330192 30.078125 25.76953125 C32.348173186282764 28.404079043429803 34.737698562233305 30.908754401903195 37.125 33.4375 C48.16484295895026 45.33878380020698 57.43753262193036 58.795244648239304 66.671875 72.1103515625 C67.58460133740758 73.40897322638506 68.51262481245442 74.6969354809108 69.453125 75.9755859375 C73 80.80023261938199 73 80.80023261938199 73 83 C74.15113281250001 82.734453125 75.30226562499999 82.46890625 76.48828125 82.1953125 C101.4147820566125 76.60145570640661 127.5496834744938 74.06876617229204 152.421875 81.4140625 C155.63341647644518 82.14395829010118 157.7122360091348 82.55070046846991 161 82 C163.7262333185526 79.95267008158778 165.9586960005961 77.5146090501933 168.25 75 C169.48009774126882 73.68349043393131 170.7142706927475 72.3707728675727 171.953125 71.0625 C172.49098632812502 70.4759765625 173.02884765624998 69.889453125 173.5830078125 69.28515625 C175 68 175 68 177 68 C177 67.34 177 66.68 177 66 C178.5390624999999 64.44921875000011 178.5390624999999 64.44921875000011 180.625 62.6875 C181.35203124999998 62.07132812500001 182.07906250000002 61.45515625 182.828125 60.8203125 C183.54484374999998 60.219609375000005 184.26156250000003 59.61890625000001 185 59 C185.88945312500005 58.22269531250001 185.88945312500005 58.22269531250001 186.796875 57.4296875 C190.75571428571425 54 190.75571428571425 54 193 54 C193 53.34 193 52.68000000000001 193 52 C194.5219726562499 50.630615234375085 194.5219726562499 50.630615234375085 196.6640625 49.05859375 C197.84162109375 48.1899267578125 197.84162109375 48.1899267578125 199.04296875 47.3037109375 C199.89503906250002 46.687861328124995 200.74710937499998 46.07201171874999 201.625 45.4375 C202.4951171875 44.80489257812499 203.365234375 44.17228515625 204.26171875 43.5205078125 C220.33471221423474 31.91552247252787 236.9960914545685 21.555188821764133 255.75 14.875 C256.98194091796876 14.431965332031254 256.98194091796876 14.431965332031254 258.23876953125 13.97998046875 C263.4655060699263 12.215485888546013 268.7638427349714 10.555613424083276 274.07421875 12.92578125 C285.244866351206 22.527669623917987 285.54537402030394 41.231036800330614 286.6875 55 C288.56088082182794 91.33578219003721 285.3038368068828 127.42778682577392 276.3671875 162.69921875 C276.1402319335937 163.6175146484375 275.9132763671875 164.535810546875 275.679443359375 165.48193359375 C274.99999999999994 168.00000000000017 274.99999999999994 168.00000000000017 274.228759765625 170.02197265625 C271.80593149917274 176.79176967034428 274.77519577009184 182.56166173674708 277.1875 189 C281.3110659139027 200.65144379738695 285.0767198850218 211.73626219456963 285.021240234375 224.220458984375 C285.0181736755371 225.1167552185059 285.0151071166992 226.01305145263672 285.01194763183594 226.93650817871094 C285.00603355407713 227.95793663024904 285.00603355407713 227.95793663024904 285 229 C286.2053540039062 228.6312475585937 287.4107080078125 228.26249511718754 288.652587890625 227.882568359375 C293.14163827393196 226.51336112799117 297.63617237969794 225.16298390310067 302.132568359375 223.818115234375 C304.0748621143756 223.23434275089136 306.0156484207963 222.64552940667932 307.954833984375 222.051513671875 C310.74859073141687 221.19669146125148 313.54733450592073 220.36037058127135 316.34765625 219.52734375 C317.20835220336915 219.25969711303708 318.0690481567383 218.9920504760742 318.95582580566406 218.71629333496094 C323.95891077010026 217.2505713389162 327.8279986014888 216.5529093606654 333 218 C335 221 335 221 334.875 223.5 C333.7889733788703 226.60293320322762 332.7454211547794 227.24745391656273 330 229 C327.428955078125 229.99560546875 327.428955078125 229.99560546875 324.51953125 230.8671875 C323.4449365234375 231.19332031249996 322.370341796875 231.51945312500004 321.26318359375 231.85546875 C320.1244580078125 232.19191406250002 318.985732421875 232.52835937500004 317.8125 232.875 C316.6531494140625 233.22433593749997 315.493798828125 233.573671875 314.29931640625 233.93359375 C310.8688086904753 234.96469602752666 307.4350667939096 235.98420240441112 304 237 C303.0488330078125 237.28262695312503 302.097666015625 237.56525390625 301.11767578125 237.8564453125 C296.41616128330315 239.25293476733566 291.7108384052757 240.63530029485048 287 242 C287 244.64 287 247.27999999999997 287 250 C288.160478515625 249.8683544921875 289.32095703125 249.736708984375 290.5166015625 249.60107421875 C294.82406958864146 249.11564375647288 299.13313990777505 248.64602392865277 303.44287109375 248.18115234375 C305.3076040023794 247.97778001226442 307.17187530097885 247.77012759503327 309.03564453125 247.55810546875 C311.7153705867703 247.25401295419175 314.3963819862659 246.96537286660583 317.078125 246.6796875 C317.9105572509766 246.58186981201175 318.7429895019531 246.48405212402344 319.60064697265625 246.38327026367188 C320.3811541748047 246.30303619384767 321.16166137695313 246.22280212402347 321.9658203125 246.14013671875 C322.9917428588867 246.02688552856443 322.9917428588867 246.02688552856443 324.03839111328125 245.91134643554688 C326.51995587285086 246.02349904805112 327.94244108806106 246.61674588673736 330 248 C331.0625 251.375 331.0625 251.375 331 255 C327.20587771450374 259.0575197110304 323.3831846062309 259.77262996967164 318.06640625 260.265625 C316.9330710601806 260.39031158447267 316.9330710601806 260.39031158447267 315.77684020996094 260.51751708984375 C313.373442103639 260.7776222231829 310.9683452604319 261.0137309995768 308.5625 261.25 C306.9497093552414 261.42298989741914 305.3370761893196 261.5974547134894 303.724609375 261.7734375 C297.4515844665919 262.4413582125083 291.324939822004 263 285 263 C284.34 267.29 283.68 271.58 283 276 C284.1021484375 276.121171875 285.204296875 276.24234375 286.33984375 276.3671875 C289.5199748523528 276.717475091998 292.6995435088539 277.07249753727325 295.87890625 277.4296875 C299.19796203315184 277.80218948060866 302.5180401983656 278.1607279248446 305.83984375 278.5078125 C307.3515832057759 278.67168409869265 308.8633027852088 278.8357391897 310.375 279 C311.0813256835938 279.0707373046875 311.7876513671875 279.141474609375 312.515380859375 279.21435546875 C319.20280368442457 279.9574927893695 319.20280368442457 279.9574927893695 322 282 C322.875 285.43750000000006 322.875 285.43750000000006 323 289 C321 292 321 292 318.845703125 292.73388671875 C315.30499883222984 293.0649923878577 311.9747327799408 292.7191287551201 308.46875 292.2578125 C307.75521362304687 292.1699850463867 307.04167724609374 292.08215759277346 306.3065185546875 291.9916687011719 C304.03668114679675 291.7101887546665 301.7684366829205 291.4175305006443 299.5 291.125 C297.9753455819179 290.9355114011944 296.4506065349643 290.746702426004 294.92578125 290.55859375 C293.46086130912573 290.3756089315529 291.99601483293293 290.1920348144903 290.53125 290.0078125 C289.85090698242186 289.9223416137695 289.1705639648437 289.83687072753906 288.4696044921875 289.7488098144531 C284.94670318365706 289.29360408443307 281.4729196881085 288.74789776729 278 288 C277.8569140625 289.2684375 277.8569140625 289.2684375 277.7109375 290.5625 C276.9141556820217 294.4150714275872 275.4821716404172 297.57311380441877 273.625 301 C273.27268310546873 301.6508154296875 272.9203662109375 302.301630859375 272.557373046875 302.97216796875 C254.25078799416036 335.6514958492594 221.20534560195915 356.0326299714315 185.9775390625 366.1845703125 C178.28771653025916 368.29050728016847 170.55832907646294 370.0441613097959 162.71923828125 371.49609375 C160.99871444950122 371.8149266812919 159.2804856799932 372.14664524556207 157.56591796875 372.49609375 C143.74587742050574 375.27445288825555 129.8527797283998 375.2860202234963 115.8125 375.3125 C114.4109617614746 375.31801376342776 114.4109617614746 375.31801376342776 112.98110961914063 375.3236389160156 C96.36759736406634 375.35771100111776 79.8740230510214 374.51206118011777 63.625 370.8125 C62.19256958007813 370.49104003906245 62.19256958007813 370.49104003906245 60.731201171875 370.1630859375 C33.10291975308985 363.7223325080775 7.481467611175617 352.73455580457414 -14 334 C-15.000312500000007 333.1453515625 -16.000625 332.290703125 -17.03125 331.41015625 C-30.038933505054302 320.0833330779592 -41.45145107571054 304.53613593883637 -47 288 C-47 287.01 -47 286.02 -47 285 C-48.1802978515625 285.33845947265627 -49.360595703125 285.6769189453125 -50.57666015625 286.025634765625 C-54.96767871868431 287.28122603039776 -59.363201976160425 288.52035854783 -63.76025390625 289.754638671875 C-65.66060672126767 290.2905401091422 -67.55971857012764 290.83086300268013 -69.45751953125 291.375732421875 C-72.18986720386437 292.15936801682335 -74.92632245438185 292.92685384734784 -77.6640625 293.69140625 C-78.50804595947265 293.937179107666 -79.3520294189453 294.18295196533205 -80.22158813476563 294.43617248535156 C-84.77107098822871 295.6884179985435 -88.3633850003961 296.51747812715183 -93 295 C-95 292 -95 292 -94.875 289 C-93.81445836720772 285.36385725899794 -93.21610036003 284.899388805673 -90 283 C-87.16690476062686 281.99405831667036 -84.28043200508037 281.25574898817393 -81.3671875 280.51953125 C-80.53414093017578 280.30181564331053 -79.70109436035156 280.08410003662107 -78.84280395507813 279.8597869873047 C-77.08722172303136 279.40268146771444 -75.33050454473313 278.94991561331483 -73.57275390625 278.501220703125 C-70.87549522243518 277.81262642737465 -68.1817042285827 277.1116358354503 -65.48828125 276.408203125 C-63.7814368026107 275.96542511063103 -62.074411500284384 275.52334355488756 -60.3671875 275.08203125 C-59.15468826293946 274.768041305542 -59.15468826293946 274.768041305542 -57.917694091796875 274.4477081298828 C-52.23606047816942 273 -52.23606047816942 273 -50 273 C-50.66 271.02 -51.31999999999999 269.04 -52 267 C-53.24612060546875 267.0157104492188 -54.49224121093749 267.0314208984375 -55.776123046875 267.047607421875 C-60.40724197821041 267.101980734195 -65.03833277626072 267.1363771134926 -69.669677734375 267.164794921875 C-71.6726557189348 267.17986465349577 -73.67560079990243 267.2003240982111 -75.678466796875 267.226318359375 C-78.56046680918162 267.2627812719594 -81.44202984408108 267.27974460574734 -84.32421875 267.29296875 C-85.2171110534668 267.3084526062012 -86.11000335693359 267.32393646240234 -87.02995300292969 267.3398895263672 C-91.81951715522538 267.34118076924153 -95.1566286657176 267.2078419179888 -99 264 C-100 261.5625 -100 261.5625 -100 259 C-98.26635168817478 255.87943303871458 -97.44004626530895 255.1466820884363 -94 254 C-92.63407816578754 253.91432754235598 -91.26435141754916 253.88226353409982 -89.895751953125 253.886474609375 C-89.07512771606446 253.88655014038085 -88.25450347900392 253.8866256713867 -87.40901184082031 253.88670349121094 C-86.08700019836425 253.89444541931152 -86.08700019836425 253.89444541931152 -84.73828125 253.90234375 C-83.37959175109863 253.90446617126463 -83.37959175109863 253.90446617126463 -81.99345397949219 253.90663146972656 C-79.0997690921497 253.91222998701016 -76.20616151153817 253.92478219088548 -73.3125 253.9375 C-71.35091257560399 253.94251519259024 -69.389323938704 253.94707806590975 -67.427734375 253.951171875 C-62.61845978588707 253.96219892928104 -57.80924300157196 253.97946253234988 -53 254 C-53 251.02999999999997 -53 248.06 -53 245 C-53.65669677734374 244.9611669921875 -54.31339355468751 244.92233398437497 -54.989990234375 244.88232421875 C-63.653135847917156 244.27301900230736 -72.14183695763346 242.98465152175322 -80.694091796875 241.52587890625 C-83.08779397704076 241.12071871865777 -85.48407089713078 240.73408570266855 -87.880859375 240.34765625 C-89.41164796846866 240.0896643496361 -90.94225462078388 239.83059002849558 -92.47265625 239.5703125 C-93.18511001586914 239.45769073486326 -93.89756378173828 239.34506896972653 -94.63160705566406 239.22903442382813 C-97.43553856333261 238.7346986299969 -99.61716933227333 238.27792380928815 -101.943115234375 236.58935546875 C-103.66882134946306 233.9942187606827 -103.43955182608595 232.01406966458933 -103 229 C-101.44140625000003 227.28125 -101.44140625000003 227.28125 -99 226 C-96.35877798224172 225.97531568207705 -94.09215375081774 226.13386339225895 -91.5 226.5 C-90.7447705078125 226.59458496093748 -89.98954101562501 226.68916992187496 -89.21142578125 226.78662109375 C-77.0751637313014 228.4011326692688 -65.03104063256501 230.7501259770262 -53 233 C-52.9136328125 231.883671875 -52.827265624999995 230.76734375 -52.73828125 229.6171875 C-51.04422170839433 209.96311731566783 -47.74342266978762 188.2249691424841 -37.125 171.1875 C-33.54513824750022 165.0292169209409 -34.653995164300355 158.7760879981792 -35.46923828125 151.946533203125 C-36.856396524820596 140.28863378802527 -37.36313172765627 128.79768601716268 -37.3125 117.0625 C-37.310677185058594 116.1766925048828 -37.30885437011719 115.29088500976565 -37.306976318359375 114.37823486328125 C-37.20854652033222 85.76562236966964 -34.427388135473564 56.88290142224841 -24 30 C-23.701904296875 29.226079101562505 -23.40380859375 28.452158203124995 -23.0966796875 27.65478515625 C-22.105776984950353 25.11528825006468 -21.089718281149715 22.58751127927519 -20.0625 20.0625 C-19.750788574218745 19.281005859375 -19.439077148437505 18.49951171875 -19.117919921875 17.6943359375 C-15.61874940165417 9.349130893608567 -10.383920950421384 -1.3159046624749848 0 0 Z M26.6875 201.5625 C23.82385720742741 205.69887292260483 23.49094075649225 209.03898628145166 24 214 C25.70276159628557 218.66018963193943 27.702508459537142 221.4775593132066 32 224 C36.66006709605969 225.2788905940314 40.16626665294149 225.24601967618116 44.8125 223.875 C48.750037781312926 221.55880130511002 50.9678240354051 219.0643519291898 53 215 C53.73711238926114 210.49356289292626 53.963258513265004 206.58821443876133 51.54296875 202.59765625 C48.836813117504676 199.4471213768002 46.990225866600696 197.3300752888669 43 196 C36.10021777353697 195.5475552638385 31.558210907818363 196.16522575079586 26.6875 201.5625 Z M165.3828125 201.41015625 C161.94451433390526 205.5186311772827 161.29330636329706 209.35165962998505 161.57421875 214.6328125 C162.38436067130766 219.13690428268296 164.70932006515443 221.86576611786296 168.0625 224.8125 C172.03083831655073 227.2447073553053 175.4365248842617 227.38028959297822 180 227 C184.89052413605947 225.30516282549922 188.04420526480982 222.5546062126458 190.34375 217.92578125 C191.9112921944298 213.32579135801257 191.46555677396162 209.34494179144474 189.875 204.75 C186.88061264815576 200.35823188396176 183.71116055828878 198.47532237730243 178.625 197.0625 C173.41152192642477 196.97261244700732 169.37589572532636 197.92826483854392 165.3828125 201.41015625 Z M89 250 C89.07103364599777 255.15704269943933 91.06413232557469 257.82125234815214 94.375 261.625 C95.16648437500001 262.545390625 95.95796874999999 263.46578125 96.7734375 264.4140625 C97.508203125 265.267421875 98.24296874999999 266.12078125 99 267 C101.17007479020785 269.6217645655452 102.59710346838534 271.5786819118625 103 275 C101.92868065863479 280.50678166122304 99.64033160887124 285.7356115438937 96 290 C91.38582727762821 292.35835494699006 87.99567591641866 291.9991351832837 83 291 C81.54593750000001 290.7215625 81.54593750000001 290.7215625 80.0625 290.4375 C79.38187500000001 290.29312500000003 78.70124999999999 290.14875 78 290 C77.34 291.32 76.68 292.64 76 294 C78.94120630232828 297.14404811628197 80.81407021150551 298.8012791101369 85.234375 299.203125 C90.87272093806038 299.30818734667196 94.97672964255506 298.85636941893927 100 296 C101.23750000000001 294.63875 101.23750000000001 294.63875 102.5 293.25 C103.32499999999999 292.5075 104.15 291.765 105 291 C108.3125 291.1875 108.3125 291.1875 112 292 C119.92441745094538 292.63906592346336 125.40030446044989 290.45085653756604 131.9375 286 C133.98059761659408 284.0188144323936 135.1530870088909 282.71012157154905 136 280 C135.7019499302591 277.8025286949074 135.7019499302591 277.8025286949074 135 276 C133.68 275.67 132.36 275.34 131 275 C130.61328125 275.482109375 130.2265625 275.96421875 129.828125 276.4609375 C129.30734374999997 277.092578125 128.7865625 277.72421875 128.25 278.375 C127.73953125000003 279.001484375 127.2290625 279.62796875 126.703125 280.2734375 C123.92256296249491 283.09226415270007 121.95560220100094 283.9381086657383 117.984375 284.1953125 C116.91703125000001 284.172109375 115.84968750000002 284.14890625 114.75 284.125 C113.67234375000001 284.106953125 112.59468749999999 284.08890625 111.484375 284.0703125 C110.66453125000001 284.047109375 109.84468749999999 284.02390625 109 284 C108.91993114234361 278.4180567805266 109.25648949274975 274.2192618206565 113.0625 269.9375 C114.35742119569107 268.60765354384426 115.67118196934507 267.2959765203916 117 266 C118.49633417357433 264.4749904328554 119.97564814846277 262.9330947670299 121.4375 261.375 C122.11683593750001 260.681484375 122.79617187500003 259.98796875 123.49609375 259.2734375 C125.4382102885873 256.33756262868104 125.34549447468055 254.45494474680515 125 251 C124.505 250.01 124.505 250.01 124 249 C116.52202604875663 246.91850209604564 108.5892645339695 246.77711533737806 100.875 246.6875 C100.0456494140625 246.6699365234375 99.21629882812499 246.65237304687503 98.36181640625 246.63427734375 C97.18885009765626 246.63548583984374 97.18885009765626 246.63548583984374 95.9921875 246.63671875 C95.2946435546875 246.63373779296876 94.597099609375 246.63075683593752 93.87841796875 246.627685546875 C91.40777970333795 247.1173818498063 90.50219089646643 248.008539181269 89 250 Z " fill="#000000" transform="translate(137,43)"/>
</svg>
