<?xml version="1.0" encoding="UTF-8"?>
<!-- Generator: visioncortex VTracer 0.6.4 -->
<svg version="1.1" xmlns="http://www.w3.org/2000/svg" width="506" height="506">
<path d="M0 0 C2.754335006136216 2.1674084658314143 5.325236734054897 4.420020459310862 7.8671875 6.83203125 C8.632890625000016 7.556484374999997 9.398593750000032 8.2809375 10.1875 9.02734375 C34.54970648646349 34.06863613155652 43.35074071052321 74.46194938232912 53.8671875 106.83203125 C54.190067443847624 107.82544525146483 54.190067443847624 107.82544525146483 54.51947021484375 108.83892822265625 C56.621741484983545 115.312039575341 58.70499114857137 121.79086377011845 60.765625 128.27734375 C62.167682989212494 132.6825026049953 63.61322808137072 137.06982714292604 65.09375 141.44921875 C69.00424296028291 153.11063280737227 72.06454193624063 164.33504226029865 73.58154296875 176.544921875 C74.07850875059285 180.52404618637095 74.64628918668808 184.4916134592562 75.2421875 188.45703125 C75.3590087890625 189.2348193359375 75.475830078125 190.012607421875 75.59619140625 190.81396484375 C76.73778114983952 197.90485107209028 78.699357976942 204.65568969055164 80.87890625 211.48828125 C81.8671875 214.83203124999994 81.8671875 214.83203124999994 81.8671875 217.83203125 C77.1171875 216.95703125 77.1171875 216.95703125 74.8671875 215.83203125 C78.92410295881439 223.60778587939427 83.24731601043948 229.9587407534798 91.8671875 232.83203125 C93.759314871441 233.05382910396054 95.65603221898493 233.23817140332818 97.5546875 233.39453125 C98.54855468749997 233.4783203125 99.542421875 233.56210937499998 100.56640625 233.6484375 C101.32566406249998 233.70902343750004 102.08492187499996 233.76960937499996 102.8671875 233.83203125 C100.61602259799315 238.59920398366154 97.6744535310628 240.9277938318703 92.8671875 242.83203125 C90.87473844203441 243.20787411945906 88.87490327399985 243.54885554139634 86.8671875 243.83203125 C92.17648019488513 252.8257793671853 92.17648019488513 252.8257793671853 100.8671875 257.83203125 C104.89273240670718 258.1253498487299 108.84026234673263 258.07007608664634 112.8671875 257.83203125 C111.18770122565081 262.4817201021334 109.14141548558746 265.2936632014164 104.8671875 267.83203125 C100.1472122748288 269.7006649747918 95.95757358471991 270.83203125 90.8671875 270.83203125 C91.149169921875 271.3342822265625 91.43115234375 271.836533203125 91.7216796875 272.35400390625 C100.50759520514777 288.1377104483961 108.99407538378455 304.9272835630551 104.171875 323.51171875 C102.10976610149089 328.1038099945791 99.10214939928625 331.1748002543694 94.8671875 333.83203125 C90.9948457500131 334.43291186637725 88.94266502538977 334.51914189122124 85.6171875 332.39453125 C83.16492987846175 328.8037254470333 82.04058927193535 324.9922738959525 80.8671875 320.83203125 C80.39152343749998 321.81429687499997 80.39152343749998 321.81429687499997 79.90625 322.81640625 C73.47549220175881 335.39368945760975 63.66445428331201 348.89920312570086 49.8671875 353.83203125 C51.41126207659897 362.6584433687149 52.98298009841153 371.3225966467318 55.8671875 379.83203125 C49.242187500000114 381.83203125 49.242187500000114 381.83203125 45.8671875 381.83203125 C46.14801549800484 383.8127648955025 46.44215363982363 385.79161572560656 46.7421875 387.76953125 C46.90460937500001 388.8716796875 47.067031250000014 389.973828125 47.234375 391.109375 C47.44320312499997 392.0078515625 47.65203124999999 392.906328125 47.8671875 393.83203125 C50.824425962407076 395.31065048120354 53.451549951246875 394.807971052109 56.7421875 394.70703125 C66.86109646106377 394.5767709926812 76.10353530452232 395.89429950084974 83.8671875 402.83203125 C86.28064707261774 406.04997734682365 87.5930527206175 408.81138781905713 87.8671875 412.83203125 C87.35377612267456 415.87656071753986 86.6338982303302 418.84313976344265 85.8671875 421.83203125 C78.81280323691658 423.5094176773493 72.17083152963096 424.15161655046177 64.9296875 424.08203125 C63.39453491210941 424.07405517578127 63.39453491210941 424.07405517578127 61.828369140625 424.06591796875 C13.525036284470161 423.48988003447016 13.525036284470161 423.48988003447016 7.8671875 417.83203125 C7.042718007068004 412.7605851830113 7.407410410446687 408.226966880989 9.7421875 403.64453125 C12.88134755939825 397.47752886380624 13.187046268793381 390.62449433534 13.8671875 383.83203125 C10.237187500000005 383.83203125 6.607187500000009 383.83203125 2.8671875 383.83203125 C-0.1328125 374.20703125000006 -0.1328125 374.20703125000006 -0.1328125 370.83203125 C-0.7928124999999966 370.83203125 -1.4528124999999932 370.83203125 -2.1328125 370.83203125 C-2.318437500000016 372.37890625 -2.318437500000016 372.37890625 -2.5078125 373.95703125 C-3.071710638954471 377.45319971151764 -3.9196330873216993 380.5160075220126 -5.1328125 383.83203125 C-8.102812499999999 383.83203125 -11.072812499999998 383.83203125 -14.1328125 383.83203125 C-13.923671223124757 390.40952440772645 -13.561790576521133 396.37447224854503 -11.0703125 402.51953125 C-9.01989556338657 407.60456525280125 -8.214098372904374 412.37316009946665 -9.1328125 417.83203125 C-11.504921366619271 420.20414011661927 -12.429230040703004 420.220873037172 -15.68359375 420.6484375 C-17.074814453124986 420.835029296875 -17.074814453124986 420.835029296875 -18.494140625 421.025390625 C-19.954970703125014 421.208115234375 -19.954970703125014 421.208115234375 -21.4453125 421.39453125 C-22.37666015625001 421.52021484375 -23.308007812499994 421.6458984375 -24.267578125 421.775390625 C-36.74103834359468 423.4060757049121 -49.1166362440014 424.01866343644264 -61.6826171875 424.017333984375 C-64.02556833225896 424.0195480289259 -66.36806735949261 424.03786450085147 -68.7109375 424.056640625 C-70.22395675620143 424.0595710109155 -71.73697819917592 424.0615581778242 -73.25 424.0625 C-74.28300735473633 424.07327827453616 -74.28300735473633 424.07327827453616 -75.33688354492188 424.0842742919922 C-79.90752501671685 424.06291092592323 -83.8465002673934 423.4339078300716 -88.1328125 421.83203125 C-90.17900066277463 417.9175843299094 -90.67870205236332 414.1991476689067 -90.1328125 409.83203125 C-87.11348062877786 404.0349140572535 -82.4727036544893 399.72764514849393 -76.8203125 396.51953125 C-69.80384392449662 394.72462068417354 -62.67748244454458 394.7333021153041 -55.48046875 394.9921875 C-52.859598788207165 395.00867676991044 -52.859598788207165 395.00867676991044 -50.1328125 392.83203125 C-49.54593465924751 389.48589612591445 -49.54593465924751 389.48589612591445 -49.4453125 385.70703125 C-49.37957031249999 384.425703125 -49.313828124999986 383.144375 -49.24609375 381.82421875 C-49.2087109375 380.836796875 -49.171328125 379.849375 -49.1328125 378.83203125 C-51.772812499999986 378.50203125 -54.4128125 378.17203125 -57.1328125 377.83203125 C-58.52304106222738 373.6613455633178 -57.05228977242086 370.610058932799 -55.7578125 366.58203125 C-54.83513238453651 363.67710978757924 -53.95815848515622 360.7661021220244 -53.1328125 357.83203125 C-52.61847656250001 356.00865234375 -52.61847656250001 356.00865234375 -52.09375 354.1484375 C-51.783529255186295 350.6088343074646 -51.783529255186295 350.6088343074646 -54.6328125 347.875 C-55.7837443327756 346.9042096559469 -56.95152778842515 345.95315023331307 -58.1328125 345.01953125 C-66.27944958313151 338.0663923618056 -71.63029658544133 330.55746562544675 -76.1328125 320.83203125 C-76.3145703125 321.5191015625 -76.49632812499999 322.206171875 -76.68359375 322.9140625 C-76.9349609375 323.8151171875 -77.18632812499999 324.716171875 -77.4453125 325.64453125 C-77.68894531250001 326.5378515625 -77.93257812499999 327.431171875 -78.18359375 328.3515625 C-79.16670164997961 330.92058931681913 -80.00709212652907 332.1282095766073 -82.1328125 333.83203125 C-85.50744491215949 335.14438829917316 -87.11295974963929 334.83770346438877 -90.6328125 333.83203125 C-95.46714162955371 331.4938589912616 -97.95956140396487 327.7680775251526 -99.91796875 322.8671875 C-105.18160499015713 304.1481632552028 -94.50507398513906 285.85721910460984 -86.1328125 269.83203125 C-85.80281250000002 269.17203125 -85.4728125 268.51203125 -85.1328125 267.83203125 C-85.84566406249999 267.8784375 -86.55851562499998 267.92484375 -87.29296875 267.97265625 C-93.92724941083503 268.2226695185106 -97.79189758898843 267.8649669991312 -103.1328125 263.83203125 C-107.1328125 259.62690304487177 -107.1328125 259.62690304487177 -107.1328125 255.83203125 C-106.6171875 255.99703125000002 -106.1015625 256.16203125 -105.5703125 256.33203125 C-101.4620832048918 257.1747449515607 -97.99646001369388 257.77647157608857 -94.11328125 255.80859375 C-88.73250958687916 252.08423554340396 -85.4151121699255 247.42686023282755 -82.1328125 241.83203125 C-82.83406250000002 241.89003906250002 -83.5353125 241.948046875 -84.2578125 242.0078125 C-91.20834911493981 242.3383407357648 -95.82424736276116 241.5160593122696 -101.1328125 236.83203125 C-101.46281250000001 236.17203125000003 -101.7928125 235.51203125 -102.1328125 234.83203125 C-101.17181640625 234.79335937500002 -101.17181640625 234.79335937500002 -100.19140625 234.75390625 C-94.07386410164284 234.3527559451897 -90.22031029599185 233.26056237338582 -85.1328125 229.83203125 C-88.5978125 227.85203124999998 -88.5978125 227.85203124999998 -92.1328125 225.83203125 C-92.1328125 225.50203124999996 -92.1328125 225.17203125000003 -92.1328125 224.83203125 C-91.2626953125 224.77595703125002 -91.2626953125 224.77595703125002 -90.375 224.71875 C-83.64502751913474 224.15236617735292 -79.20384373765984 222.99720027118985 -74.3828125 217.95703125 C-72.42429752115817 215.23687155716414 -71.15709235358571 212.9979871610832 -70.1328125 209.83203125 C-73.43281250000001 210.16203125000004 -76.7328125 210.49203124999997 -80.1328125 210.83203125 C-79.5901171875 209.8742578125 -79.047421875 208.91648437499998 -78.48828125 207.9296875 C-71.3862675874858 194.92504519834054 -69.64352846593047 182.82157049804607 -68.121826171875 168.234619140625 C-64.180566132 130.7173128053159 -53.96024425680844 92.81284607057665 -37.05078125 58.9794921875 C-31.425664166383626 47.67280155318714 -29.5767410827072 34.00567984544368 -32.69970703125 21.57568359375 C-35.79468564321965 12.900906695618893 -41.493549841073616 5.171696107232208 -49.44140625 0.46484375 C-58.225975528083495 -3.6111963950307455 -67.11395025166618 -3.0540046694668206 -76.1328125 -0.16796875 C-79.5703125 -0.04296875 -79.5703125 -0.04296875 -82.1328125 -0.16796875 C-82.1328125 -1.4879687500000003 -82.1328125 -2.8079687500000006 -82.1328125 -4.16796875 C-55.209669800490474 -18.996968340700512 -25.136710313629607 -17.3951050175367 0 0 Z M-22.1328125 199.83203125 C-27.122190832446904 206.6467918991958 -28.34773969260874 213.53384929293645 -27.1328125 221.83203125 C-25.080682917050012 229.0265561408129 -20.286304616721736 233.40035041075566 -13.984375 237.08984375 C-6.10049647118376 240.83534085837448 3.210782819778899 241.40682573483429 11.6171875 239.06640625 C13.822740932870602 238.12755580222404 15.818608037744639 237.0724158611124 17.8671875 235.83203125 C18.919062499999995 235.27515625 19.97093749999999 234.71828125000002 21.0546875 234.14453125 C26.087657530634715 230.00631144703368 30.4517590211139 224.04760876525393 31.10546875 217.4140625 C31.310259389856014 209.77213809695104 30.307247145179247 204.70011674964854 25.171875 198.92578125 C18.773698416690593 192.8125437048137 11.786708458662815 189.68722872699684 2.9296875 189.33203125 C-6.3828925432030985 189.69066719518113 -15.611631796360882 192.98626689142864 -22.1328125 199.83203125 Z M-78.1328125 316.83203125 C-77.1328125 318.83203125 -77.1328125 318.83203125 -77.1328125 318.83203125 Z " fill="#000000" transform="translate(250.1328125,49.16796875)"/>
</svg>
