<?xml version="1.0" encoding="UTF-8"?>
<!-- Generator: visioncortex VTracer 0.6.4 -->
<svg version="1.1" xmlns="http://www.w3.org/2000/svg" width="554" height="554">
<path d="M0 0 C4.376274718845778 1.5052790035209966 6.2015449167240035 4.834701206611555 8.5625 8.5625 C9.197443847656245 9.540052490234388 9.197443847656245 9.540052490234388 9.84521484375 10.537353515625 C10.754980606507303 11.940503738921791 11.660429662607896 13.346460259334322 12.56201171875 14.7548828125 C14.0644524750345 17.100629025537756 15.57961041799959 19.43776335648451 17.09765625 21.7734375 C19.740933703493226 25.843098449366465 22.373070513043672 29.91976921892902 25 34 C29.39290008123038 32.46373059541094 33.08970055779528 30.12631900400939 36.9375 27.5625 C48.104457289433924 20.146091746020602 48.104457289433924 20.146091746020602 54.875 18.8125 C55.656171874999984 18.653945312500014 56.43734375 18.495390625 57.2421875 18.33203125 C57.822265625 18.22246093749999 58.40234375 18.112890625000006 59 18 C59 19.666666666666657 59 21.333333333333343 59 23 C60.03640625 22.62746093749999 61.0728125 22.254921875000008 62.140625 21.87109375 C63.51022242263619 21.392672732503797 64.88002501780693 20.914838787695743 66.25 20.4375 C66.9319140625 20.19064453125 67.613828125 19.943789062500002 68.31640625 19.689453125 C74.5834216101695 17.529462394067792 74.5834216101695 17.529462394067792 78 19 C77.46890625 19.326132812499992 76.9378125 19.652265624999984 76.390625 19.98828125 C69.77397253627902 23.438721552995702 69.77397253627902 23.438721552995702 65.2890625 28.86328125 C63.406764507638655 31.983332770671694 60.953039972235985 32.93729956619853 57.75 34.625 C50.03548334606256 38.805979822970585 43.03874424103671 43.779776307559416 36 49 C36.56700338471046 52.85485621956809 37.65063875625896 55.41617537213392 39.80078125 58.65234375 C40.36603515625001 59.51150390625003 40.931289062500014 60.3706640625 41.513671875 61.255859375 C42.107285156249986 62.14080078124999 42.7008984375 63.025742187499986 43.3125 63.9375 C43.89451171874998 64.81857421874997 44.47652343750002 65.6996484375 45.076171875 66.607421875 C48.1480480249372 71.26427213600391 48.1480480249372 71.26427213600391 51.31005859375 75.85986328125 C54 79.69975760246808 54 79.69975760246808 54 83 C51.69 82.67000000000002 49.379999999999995 82.34000000000003 47 82 C47.66 83.32 48.31999999999999 84.63999999999999 49 86 C48.44312500000001 85.71125 47.88625000000002 85.42250000000001 47.3125 85.125 C44.881972048963576 83.94258099679308 42.57364939357302 82.83643605291127 40 82 C39.37867187500001 82.22816406250001 38.75734375000002 82.45632812500003 38.1171875 82.69140625 C36 83 36 83 33.8515625 81.4453125 C28.913915555737958 76.299764631769 24.68543713888147 71.11348984214453 21 65 C11.507803384679505 72.76634268526226 2.891422044558567 81.62266133636422 -5 91 C-6.145168438370547 92.33390443934923 -7.290973485476016 93.66726268265307 -8.4375 95 C-9.283124999999998 95.99000000000001 -10.128749999999997 96.98000000000002 -11 98 C-11.329999999999998 97.00999999999999 -11.659999999999997 96.01999999999998 -12 95 C-10.426995855589894 92.63902368605363 -8.847897584126741 90.50097539196412 -7.0625 88.3125 C-6.340302734375001 87.40274414062503 -6.340302734375001 87.40274414062503 -5.603515625 86.474609375 C-4.411503419544829 84.97574254239794 -3.2069104882683206 83.48689675268207 -2 82 C-2.3299999999999983 82 -2.6599999999999966 82 -3 82 C-4.613817444343354 83.67956556244621 -6.190548178713115 85.39483895567287 -7.75 87.125 C-8.430624999999992 87.87680541992188 -8.430624999999992 87.87680541992188 -9.125 88.643798828125 C-11.491008651566602 91.26943953538614 -13.792260783235292 93.92782597904409 -16 96.6875 C-16.659999999999997 97.450625 -17.319999999999993 98.21375 -18 99 C-18.659999999999997 99 -19.319999999999993 99 -20 99 C-19.67 98.195625 -19.340000000000003 97.39125000000001 -19 96.5625 C-17.939409585724547 94.30318875268301 -17.939409585724547 94.30318875268301 -18 93 C-19.319999999999993 93 -20.64 93 -22 93 C-22.402187499999997 93.86625000000004 -22.402187499999997 93.86625000000004 -22.8125 94.75 C-24.02929189121525 97.05550042546048 -25.30333879237334 99.02056192443558 -27 101 C-27.659999999999997 101 -28.319999999999993 101 -29 101 C-27.78947219149346 95.85525681384723 -26.44023299842685 93.1196326929097 -23 89 C-21.641089604250155 87.17018006116854 -20.287211003596397 85.33661609461342 -18.9375 83.5 C-12.305469932013438 74.62815747083181 -5.064217611332907 66.27372609110586 2.26953125 57.9765625 C4.8707943239823805 55.00536810849866 7.433533950342621 52.00125682032336 10 49 C9.718017578125 48.50185791015622 9.43603515625 48.00371582031249 9.1455078125 47.490478515625 C7.8427850966166375 45.18350702306253 6.546379487251613 42.873041529947045 5.25 40.5625 C4.806562499999998 39.77939453124998 4.363124999999997 38.99628906250001 3.90625 38.189453125 C-4 24.062844669117652 -4 24.062844669117652 -4 18 C-2.3499999999999943 18.329999999999984 -0.7000000000000028 18.659999999999997 1 19 C0.8143749999999983 17.88624999999999 0.6287499999999966 16.772500000000008 0.4375 15.625 C0 12 0 12 1 10 C0.9129796012029772 8.287663120445615 0.7590283778100968 6.578245941020924 0.5625 4.875 C0.46066406250000114 3.9649218749999875 0.3588281250000023 3.0548437500000034 0.25390625 2.1171875 C0.12822265625000284 1.0691796874999966 0.12822265625000284 1.0691796874999966 0 0 Z " fill="#000000" transform="translate(123,217)"/>
<path d="M0 0 C0.8855859374999682 0.3229101562500034 0.8855859374999682 0.3229101562500034 1.7890625 0.65234375 C0.6115503553697863 4.637769470286855 -0.7425963766119139 7.36122225214919 -3.2109375 10.65234375 C-3.9344517721048646 12.63248807365548 -4.61359138544384 14.630556900732984 -5.2109375 16.65234375 C-4.550937500000032 16.65234375 -3.890937500000007 16.65234375 -3.2109375 16.65234375 C-5.10564950266189 28.85628178919802 -7.139855725259224 41.02102035922542 -9.7734375 53.08984375 C-9.970905761718768 54.036176757812484 -10.16837402343748 54.98250976562497 -10.371826171875 55.95751953125 C-10.66536987304687 57.25858642578123 -10.66536987304687 57.25858642578123 -10.96484375 58.5859375 C-11.133146972656277 59.349626464843766 -11.301450195312498 60.11331542968753 -11.474853515625 60.900146484375 C-11.839215087890636 61.76748413085937 -11.839215087890636 61.76748413085937 -12.2109375 62.65234375 C-13.695937500000014 63.147343750000005 -13.695937500000014 63.147343750000005 -15.2109375 63.65234375 C-15.913056437008379 65.30438830766678 -16.58065163313273 66.97158143835401 -17.2109375 68.65234375 C-18.20093750000001 69.14734375 -18.20093750000001 69.14734375 -19.2109375 69.65234375 C-19.644062500000018 70.49796874999998 -20.07718749999998 71.34359374999997 -20.5234375 72.21484375 C-21.08031249999999 73.01921875 -21.637187499999982 73.82359374999999 -22.2109375 74.65234375 C-24.8984375 74.96484375 -24.8984375 74.96484375 -27.2109375 74.65234375 C-28.475231381305036 70.85946210608489 -27.938265629777902 67.6933879381993 -27.46875 63.80859375 C-27.380922546386728 63.0430920410156 -27.293095092773456 62.27759033203125 -27.202606201171875 61.4888916015625 C-27.01564844023676 59.87129785123392 -26.825473992584932 58.25407310806139 -26.63232421875 56.63720703125 C-26.337161182645616 54.16260292789707 -26.052519350956345 51.686960345063085 -25.76953125 49.2109375 C-25.586557609488523 47.639250600371724 -25.40298393621447 46.067633415529315 -25.21875 44.49609375 C-25.133279113769504 43.75540649414063 -25.047808227539065 43.01471923828126 -24.959747314453125 42.2515869140625 C-24.59716417916286 39.24230043513046 -24.17256695507649 36.537232115229585 -23.2109375 33.65234375 C-23.93281250000001 34.37550781250002 -24.654687500000023 35.09867187499998 -25.3984375 35.84375 C-27.163998086185757 37.60685841870492 -28.934153792280313 39.36538981317011 -30.7109375 41.1171875 C-36.14355770774978 46.44395650328363 -36.14355770774978 46.44395650328363 -41.0859375 52.21484375 C-43.191450027014696 54.62999047216391 -44.06081426603487 55.41900128822482 -47.2109375 55.65234375 C-50.5436825321741 51.7960923079047 -52.77593694793438 47.89270970720105 -54.9609375 43.33984375 C-55.27675781250002 42.69466796874997 -55.59257812499999 42.04949218749999 -55.91796875 41.384765625 C-56.687854577802455 39.8099991590405 -57.45018640614654 38.23154335212837 -58.2109375 36.65234375 C-60.131063421735064 40.21119301581541 -61.44921005662542 43.94659555061821 -62.77734375 47.75390625 C-63.01629867553709 48.43158050537107 -63.25525360107423 49.1092547607422 -63.50144958496094 49.807464599609375 C-64.26124636443211 51.96323209346508 -65.01756943755856 54.12019592710129 -65.7734375 56.27734375 C-66.53333132110902 58.441467537717415 -67.29397954554173 60.605318614582984 -68.05613708496094 62.768646240234375 C-68.5294562704409 64.11256629375771 -69.00139595950134 65.45697315626273 -69.47181701660156 66.80191040039063 C-71.09920558507292 71.4288799201459 -71.09920558507292 71.4288799201459 -72.2109375 73.65234375 C-73.20093750000001 73.65234375 -74.19093750000002 73.65234375 -75.2109375 73.65234375 C-75.2109375 72.66234374999999 -75.2109375 71.67234374999998 -75.2109375 70.65234375 C-75.87093750000003 70.65234375 -76.5309375 70.65234375 -77.2109375 70.65234375 C-77.54093749999998 72.63234375000002 -77.87093750000003 74.61234374999998 -78.2109375 76.65234375 C-78.87093750000003 76.65234375 -79.5309375 76.65234375 -80.2109375 76.65234375 C-80.5860546875 77.42320312499999 -80.96117187499999 78.19406249999997 -81.34765625 78.98828125 C-81.85941406249998 79.99117187500002 -82.37117187500002 80.99406249999998 -82.8984375 82.02734375 C-83.39730468750003 83.025078125 -83.896171875 84.02281249999999 -84.41015625 85.05078125 C-86.49663789593166 88.0650909597407 -87.81551138902125 88.50805841496151 -91.2109375 89.65234375 C-92.24245484059071 90.6198001965962 -93.24839309262518 91.61624131113041 -94.2109375 92.65234375 C-94.816535314629 84.2198529675145 -92.60361705076798 77.07216253590735 -90.0859375 69.08984375 C-89.64561994261089 67.66499847058128 -89.20543768680648 66.24011137310526 -88.765380859375 64.815185546875 C-85.01421365397647 52.782555325686815 -80.92720893167609 40.86348982459748 -76.7734375 28.96484375 C-76.4691180419922 28.09141326904296 -76.16479858398435 27.21798278808592 -75.85125732421875 26.318084716796875 C-74.97796222140369 23.819449470706843 -74.09796379357624 21.323302685975165 -73.21484375 18.828125 C-72.95579757690427 18.088837585449227 -72.6967514038086 17.349550170898453 -72.42985534667969 16.587860107421875 C-70.9516721416922 12.44714721479022 -69.26660978810156 8.55142821087361 -67.2109375 4.65234375 C-65.85786287915465 4.569502446682947 -64.50321338959003 4.512340066663427 -63.1484375 4.46484375 C-62.39433593749999 4.430039062499986 -61.64023437499998 4.395234375000001 -60.86328125 4.359375 C-57.13758128853789 4.770902978070183 -54.15135985914617 5.2923068716118 -51.2109375 7.65234375 C-49.05894688770934 11.196776834042709 -47.68100723201803 14.950055394910265 -46.2734375 18.83984375 C-45.87576171875003 19.875605468749995 -45.4780859375 20.91136718749999 -45.068359375 21.978515625 C-44.092914959880886 24.528773915130728 -43.141752183713436 27.085532483235454 -42.2109375 29.65234375 C-41.55093750000003 29.65234375 -40.89093750000001 29.65234375 -40.2109375 29.65234375 C-39.96601562500001 29.08128906249999 -39.72109375000002 28.510234374999982 -39.46875 27.921875 C-35.802191204394376 21.306127607928943 -28.767227771937257 16.08271211962591 -23.05078125 11.2265625 C-21.871080096793833 10.217179135367104 -20.714458471518924 9.179791421686673 -19.58984375 8.109375 C-15.92996692870247 4.715671038433186 -14.031056540919053 4.65234375 -9.2109375 4.65234375 C-7.3005924107091005 3.449533878964985 -5.627439958187892 2.125793062374015 -3.921875 0.6484375 C-2.2109375 -0.34765625 -2.2109375 -0.34765625 0 0 Z " fill="#000000" transform="translate(463.2109375,230.34765625)"/>
<path d="M0 0 C3.4030277378772524 3.3363017038012117 3.947288587605442 6.581542479923456 4.09375 11.25 C3.9499350248115377 17.80956081276264 2.2160476040419894 21.91241303160507 -2.40625 26.5625 C-11.163415652387584 33.473560460803185 -22.61045497223534 37.233995190089956 -33.40625 39.5625 C-35.386250000000004 46.49250000000001 -35.386250000000004 46.49250000000001 -37.40625 53.5625 C-38.72625 53.5625 -40.04625 53.5625 -41.40625 53.5625 C-41.488749999999996 54.28437500000001 -41.57125 55.00625000000002 -41.65625 55.75 C-42.56952233685501 59.17477126320625 -43.948607882107375 61.03257429040468 -46.40625 63.5625 C-47.396249999999995 63.5625 -48.386250000000004 63.5625 -49.40625 63.5625 C-49.73625 64.55250000000001 -50.06625 65.54250000000002 -50.40625 66.5625 C-50.73625 66.5625 -51.06625 66.5625 -51.40625 66.5625 C-52.253352764182125 53.05591703776287 -50.90105086112115 40.1779437460649 -48.71875 26.875 C-48.53551177978515 25.68793960571287 -48.53551177978515 25.68793960571287 -48.34857177734375 24.476898193359375 C-47.99297124666592 22.204829262001567 -47.60555809807981 19.940668859739162 -47.20703125 17.67578125 C-47.10156478881836 16.98706939697263 -46.996098327636716 16.298357543945315 -46.88743591308594 15.588775634765625 C-46.524658203125 13.669189453125 -46.524658203125 13.669189453125 -45.40625 10.5625 C-41.80797695545944 8.442914864224946 -38.71881362821862 8.338100876428456 -34.59375 8.4375 C-33.13001953125 8.464570312500001 -33.13001953125 8.464570312500001 -31.63671875 8.4921875 C-30.9006640625 8.515390625000009 -30.164609374999998 8.53859374999999 -29.40625 8.5625 C-28.21498219410381 12.136303417688566 -28.671305497956737 14.07133301823393 -29.34375 17.75 C-29.5383984375 18.83667968750001 -29.733046875 19.923359375000018 -29.93359375 21.04296875 C-30.16755859375 22.290136718749977 -30.16755859375 22.290136718749977 -30.40625 23.5625 C-28.48463304638168 22.82527588571878 -26.569111299645044 22.07215305201214 -24.65625 21.3125 C-23.58890625 20.894843750000007 -22.5215625 20.477187500000014 -21.421875 20.046875 C-18.362322330632907 18.540877572073214 -16.528795346914848 17.21568168364354 -14.40625 14.5625 C-14.071767407264545 11.394668001153633 -14.071767407264545 11.394668001153633 -14.40625 8.5625 C-18.376929604669996 7.642664081688167 -22.167870619115313 7.3716130205559125 -26.23828125 7.24609375 C-27.530566406250003 7.204199218750006 -28.8228515625 7.162304687500011 -30.154296875 7.119140625 C-31.50911192455429 7.0793364831741314 -32.86392967246498 7.039624087411482 -34.21875 7 C-35.59311104686813 6.956762766641475 -36.967460236857704 6.91314688088147 -38.341796875 6.869140625 C-41.69651669306539 6.763202104429524 -45.05130860068995 6.661128109952301 -48.40625 6.5625 C-48.40625 5.902500000000003 -48.40625 5.242500000000007 -48.40625 4.5625 C-49.519999999999996 4.12937500000001 -50.63375 3.696249999999992 -51.78125 3.25 C-55.40625 1.5625 -55.40625 1.5625 -57.40625 -1.4375 C-59.354579345527384 -2.439185305665262 -59.354579345527384 -2.439185305665262 -61.53125 -3.125 C-62.255703125 -3.3763671874999943 -62.98015625 -3.6277343749999886 -63.7265625 -3.88671875 C-64.280859375 -4.0684765624999955 -64.83515625 -4.250234374999991 -65.40625 -4.4375 C-65.07625 -5.757499999999993 -64.74625 -7.077499999999986 -64.40625 -8.4375 C-43.28495934777766 -14.094988567559568 -18.05673973318288 -13.616557831580536 0 0 Z " fill="#000000" transform="translate(82.40625,243.4375)"/>
<path d="M0 0 C0.6909375000000182 0.3551367187500034 1.3818749999999795 0.7102734375000068 2.09375 1.076171875 C2.8001562499999864 1.4197070312499989 3.5065624999999727 1.7632421874999977 4.234375 2.1171875 C9.267170145155774 4.657414595045481 12.006314184758764 6.751364429276265 13.84375 12.263671875 C14.917683260680121 25.64382397527686 12.21746993324632 35.0794576759788 4.05078125 45.685546875 C-2.549827353362218 53.39599232317528 -9.768465265197221 59.66415575247106 -20.03125 61.201171875 C-27.509576063169163 61.672157080207285 -34.69210298012541 59.464952890457994 -40.62109375 54.853515625 C-46.60174427503944 48.65981393621871 -48.48958079025692 41.321831770522806 -48.3671875 32.974609375 C-47.71205009709223 24.55488053022208 -44.19576487817159 16.978917861805655 -39.15625 10.263671875 C-36.38973717089857 7.907012798358011 -33.7197245434412 6.645859407782751 -30.359375 5.287109375 C-26.34951439851568 3.4243727126083456 -22.613360053100735 1.0640147242001774 -18.828125 -1.212890625 C-12.108202366190142 -5.0444254600670035 -6.557016923462129 -3.247695412278688 0 0 Z M-26.75 19.228515625 C-30.675099290959167 24.90900654330477 -32.30720842469242 30.444552606123295 -31.15625 37.263671875 C-28.931862807479774 41.53771044718167 -28.931862807479774 41.53771044718167 -25.15625 44.263671875 C-20.784278064945966 44.62800286958782 -18.132379014652543 44.68201288127966 -14.09375 42.951171875 C-9.043872745724116 38.33107140832203 -3.4530823590901605 31.161405799987676 -3.0234375 24.072265625 C-3.0260156250000136 23.28980468750001 -3.0285937500000273 22.507343750000018 -3.03125 21.701171875 C-3.0286718749999864 20.916132812499995 -3.0260937499999727 20.13109374999999 -3.0234375 19.322265625 C-3.0264863402458673 17.19928210667132 -3.0264863402458673 17.19928210667132 -4.15625 15.263671875 C-3.496250000000032 14.603671875000003 -2.836250000000007 13.943671875000007 -2.15625 13.263671875 C-2.15625 12.603671875000003 -2.15625 11.943671875000007 -2.15625 11.263671875 C1.648086393656456 13.966752996808538 3.305045207868659 15.88428131277999 4.84375 20.263671875 C5.503749999999968 20.593671874999984 6.163749999999993 20.923671875000025 6.84375 21.263671875 C7.1909221254992985 17.53157152588261 7.136028902474948 15.72296729317489 5.09375 12.513671875 C1.7370272760930447 9.156949151093045 -1.0426020111207208 7.957372226483642 -5.78125 7.826171875 C-14.671832770412493 8.048763785304885 -21.32502167827795 12.383318921883728 -26.75 19.228515625 Z " fill="#000000" transform="translate(367.15625,236.736328125)"/>
<path d="M0 0 C1.281005859375 -0.03673828124999545 1.281005859375 -0.03673828124999545 2.587890625 -0.07421875 C3.818623046875018 -0.08001953125000227 3.818623046875018 -0.08001953125000227 5.07421875 -0.0859375 C5.816315917968751 -0.09415527343750796 6.558413085937502 -0.1023730468749875 7.322998046875 -0.11083984375 C9.3125 0.375 9.3125 0.375 10.97705078125 2.01025390625 C12.594216007727766 4.8738484919288965 13.234992685839899 7.454298875512393 13.91796875 10.671875 C14.179003906249989 11.877148437500011 14.440039062500006 13.082421874999994 14.708984375 14.32421875 C14.970019531249989 15.578476562499986 15.231054687500006 16.832734375 15.5 18.125 C15.772636718749993 19.39472656250001 16.045273437499986 20.664453124999994 16.326171875 21.97265625 C16.997354186074404 25.104840368347197 17.65612204827775 28.239680075268495 18.3125 31.375 C22.60250000000002 31.375 26.892499999999984 31.375 31.3125 31.375 C30.652500000000032 32.035000000000025 29.992500000000007 32.69499999999999 29.3125 33.375 C30.30250000000001 34.36500000000001 31.292500000000018 35.35500000000002 32.3125 36.375 C31.04558492525632 37.04908308014865 29.773792514456034 37.714004965471474 28.5 38.375 C27.792304687500007 38.74625000000003 27.084609375000014 39.11750000000001 26.35546875 39.5 C24.3125 40.375 24.3125 40.375 21.3125 40.375 C21.601249999999993 41.555781249999995 21.889999999999986 42.73656249999999 22.1875 43.953125 C22.562737233969585 45.510359520973736 22.937724142580947 47.06765437626541 23.3125 48.625 C23.503281249999986 49.40230468750002 23.6940625 50.179609374999984 23.890625 50.98046875 C24.07109374999999 51.73457031250001 24.251562500000006 52.48867187500002 24.4375 53.265625 C24.605078125000006 53.95688476562498 24.77265625000001 54.64814453125001 24.9453125 55.3603515625 C25.3125 57.375 25.3125 57.375 25.3125 61.375 C23.992500000000007 61.375 22.672500000000014 61.375 21.3125 61.375 C20.982500000000016 60.71500000000003 20.652500000000003 60.05500000000001 20.3125 59.375 C19.982500000000016 64.32499999999999 19.652500000000003 69.27499999999998 19.3125 74.375 C18.32249999999999 74.375 17.332499999999982 74.375 16.3125 74.375 C15.661458333333314 72.6171875 15.010416666666686 70.859375 14.359375 69.1015625 C13.02213458883773 66.89611376218761 11.591065843869245 66.50548537041391 9.3125 65.375 C6.1761702457551735 60.916492016024506 4.6211578418786985 55.60963136751474 3.3125 50.375 C0.7629296679745607 50.817272404535004 -1.781689361317035 51.276347790859006 -4.32421875 51.7578125 C-6.673907167948784 52.18899806334019 -9.031910042305782 52.57616567545563 -11.39453125 52.9296875 C-17.9903522328662 53.7832314714297 -17.9903522328662 53.7832314714297 -23.46484375 57.125 C-24.730550092197603 59.21837590105855 -24.730550092197603 59.21837590105855 -25.6875 62.375 C-26.67750000000001 62.375 -27.66749999999999 62.375 -28.6875 62.375 C-30.06285338889444 64.34633985741533 -31.389610442221908 66.35181921875767 -32.6875 68.375 C-35.78188155151096 71.7867540183326 -38.746700452920436 74.0509387286454 -42.6875 76.375 C-43.3475 77.05562500000002 -44.00749999999999 77.73624999999998 -44.6875 78.4375 C-46.92512558994903 80.6051997902631 -48.79656601109846 81.29089975416196 -51.6875 82.375 C-53.02540641325743 83.36887333556263 -54.35968121516268 84.36768919770964 -55.6875 85.375 C-56.3475 85.375 -57.00749999999999 85.375 -57.6875 85.375 C-56.311703766122264 81.45117298603236 -54.48464014645461 78.58527890910739 -51.9375 75.3125 C-48.259211629019745 70.3902813799246 -45.50344661709278 65.37070656017977 -42.9140625 59.80859375 C-41.6875 57.375 -41.6875 57.375 -39.6875 55.375 C-40.326875 55.14812499999999 -40.96625 54.921249999999986 -41.625 54.6875 C-43.6875 53.375 -43.6875 53.375 -44.31640625 50.79296875 C-44.500097656250006 49.596074218750005 -44.500097656250006 49.596074218750005 -44.6875 48.375 C-43.84840087890626 48.027033691406245 -43.009301757812494 47.67906738281249 -42.144775390625 47.320556640625 C-32.521233579245916 42.82700729658018 -28.05027544930155 37.13876746898086 -23.125 27.8125 C-22.450495335694427 26.592609671659204 -21.772769963158993 25.37449445874887 -21.091796875 24.158203125 C-19.841645795992235 21.922977557904574 -18.615921016782863 19.68035049862152 -17.404052734375 17.423583984375 C-15.635806637414873 14.283192999772382 -13.721323962060211 11.347725875900665 -11.6875 8.375 C-13.007499999999993 7.715000000000003 -14.327499999999986 7.055000000000007 -15.6875 6.375 C-15.6875 5.055000000000007 -15.6875 3.7350000000000136 -15.6875 2.375 C-10.390234250262694 0.21461429456064707 -5.629672286612106 0.008614647722424706 0 0 Z M-2.6875 20.375 C-4.259647270445129 22.791173404294682 -5.768402674275393 25.21665851804886 -7.25 27.6875 C-7.674746093750002 28.377792968749986 -8.099492187500005 29.068085937499973 -8.537109375 29.779296875 C-8.938652343749993 30.446386718749977 -9.340195312499986 31.11347656250001 -9.75390625 31.80078125 C-10.12459228515624 32.41348876953123 -10.495278320312508 33.02619628906251 -10.877197265625 33.657470703125 C-11.900841083607872 35.51068781359862 -11.900841083607872 35.51068781359862 -11.6875 38.375 C-7.727499999999992 37.71500000000003 -3.767499999999984 37.05500000000001 0.3125 36.375 C0.5192494353052552 30.586015811452683 -0.09587920998450272 25.945672765054326 -1.6875 20.375 C-2.017499999999984 20.375 -2.3474999999999966 20.375 -2.6875 20.375 Z " fill="#000000" transform="translate(228.6875,234.625)"/>
<path d="M0 0 C0.6974633789062636 -0.026022949218742042 1.3949267578125273 -0.052045898437512506 2.113525390625 -0.078857421875 C5.3199241848033125 -0.0900564541562403 7.294221074198617 0.02329409619611056 9.869140625 2.01025390625 C12.156135820637815 4.885621957255665 12.708393404749017 7.0836227683361415 13.453125 10.671875 C13.7109375 11.877148437500011 13.96875 13.082421874999994 14.234375 14.32421875 C14.487031249999973 15.578476562499986 14.739687499999945 16.832734375 15 18.125 C15.402187499999968 20.02958984374999 15.402187499999968 20.02958984374999 15.8125 21.97265625 C16.471726294056793 25.10398114676991 17.112632678031787 28.239152775916182 17.75 31.375 C22.039999999999964 31.375 26.33000000000004 31.375 30.75 31.375 C30.090000000000032 32.035000000000025 29.430000000000064 32.69499999999999 28.75 33.375 C29.409999999999968 33.704999999999984 30.069999999999936 34.03499999999997 30.75 34.375 C30.75 35.03499999999997 30.75 35.69499999999999 30.75 36.375 C29.48308492525632 37.04908308014865 28.211292514455977 37.714004965471474 26.9375 38.375 C26.229804687500064 38.74625000000003 25.522109375000014 39.11750000000001 24.79296875 39.5 C22.75 40.375 22.75 40.375 19.75 40.375 C20.122539062499982 41.555781249999995 20.495078124999964 42.73656249999999 20.87890625 43.953125 C21.357301245130657 45.510253807680215 21.835136657705334 47.06755461267272 22.3125 48.625 C22.68278320312504 49.79095703125 22.68278320312504 49.79095703125 23.060546875 50.98046875 C23.289355468750045 51.73457031250001 23.518164062499977 52.48867187500002 23.75390625 53.265625 C23.968615722656295 53.95688476562498 24.183325195312477 54.64814453125001 24.404541015625 55.3603515625 C24.799176400558736 57.66178703703963 24.460844231541273 59.17116682014563 23.75 61.375 C21.769999999999982 60.879999999999995 21.769999999999982 60.879999999999995 19.75 60.375 C19.41999999999996 64.66500000000002 19.090000000000032 68.95499999999998 18.75 73.375 C17.430000000000064 73.375 16.110000000000014 73.375 14.75 73.375 C13.289371496000854 70.72761083650153 12.75 69.48051665708095 12.75 66.375 C12.133828125000036 66.29636718749998 11.517656250000016 66.21773437500002 10.8828125 66.13671875 C8.75 65.375 8.75 65.375 7.5546875 63.51953125 C7.247890624999968 62.74996093750002 6.941093749999993 61.980390624999984 6.625 61.1875 C6.133867187500016 59.97707031250002 6.133867187500016 59.97707031250002 5.6328125 58.7421875 C4.60023169529893 55.9734088820847 3.619125441657445 53.19965768538668 2.75 50.375 C-2.3663679425497435 50.88663679425497 -7.388555231953433 51.71062740555146 -12.4375 52.6875 C-13.606679687499991 52.910507812499986 -14.775859374999982 53.13351562499997 -15.98046875 53.36328125 C-20.339611143193565 54.712167605838886 -23.248087682618518 56.65743602734602 -25.5625 60.625 C-25.789375000000007 61.202499999999986 -26.016250000000014 61.77999999999997 -26.25 62.375 C-27.569999999999993 62.375 -28.889999999999986 62.375 -30.25 62.375 C-30.497500000000002 62.911249999999995 -30.745000000000005 63.44749999999999 -31 64 C-32.59912997290911 67.0383469485273 -34.08778281919081 69.68683809953455 -36.25 72.375 C-38.56765728909886 73.09427295178932 -40.90095873629008 73.76598930200112 -43.25 74.375 C-44.62627939548594 76.29264173899423 -44.62627939548594 76.29264173899423 -45.25 78.375 C-47.25 80.375 -47.25 80.375 -50.1875 81.3125 C-53.10839515626719 82.32587178890901 -54.33604685389122 83.0357239325337 -56.25 85.375 C-57.24000000000001 85.04500000000002 -58.23000000000002 84.71500000000003 -59.25 84.375 C-56.40322413357768 79.92312710250974 -53.59504750743929 75.63725580237895 -50 71.75 C-47.12542340402649 68.52631461846903 -46.36964360856922 65.5550028053251 -45.25 61.375 C-43.7291415604401 58.89206497567062 -42.03897615551904 56.68183767422187 -40.25 54.375 C-41.89999999999998 54.045000000000016 -43.55000000000001 53.71500000000003 -45.25 53.375 C-45.25 52.71500000000003 -45.25 52.05500000000001 -45.25 51.375 C-44.589999999999975 51.375 -43.93000000000001 51.375 -43.25 51.375 C-43.25 50.71500000000003 -43.25 50.05500000000001 -43.25 49.375 C-43.910000000000025 49.045000000000016 -44.56999999999999 48.71500000000003 -45.25 48.375 C-44.658320312499995 48.13265624999997 -44.06664062499999 47.89031249999999 -43.45703125 47.640625 C-42.666835937500025 47.30546874999999 -41.87664062499999 46.97031249999998 -41.0625 46.625 C-39.89654296875 46.13773437499998 -39.89654296875 46.13773437499998 -38.70703125 45.640625 C-31.895813092797653 42.132143787069026 -29.294339628977696 37.402786407515805 -25.875 30.8125 C-22.290030489522223 24.066681100792493 -18.628441433637363 17.572091442491057 -14.296875 11.2734375 C-13.951406249999991 10.64695312500001 -13.605937499999982 10.020468749999992 -13.25 9.375 C-14.208655088470266 7.0442407077621 -14.208655088470266 7.0442407077621 -17.25 5.375 C-16.920000000000016 4.384999999999991 -16.590000000000032 3.3950000000000102 -16.25 2.375 C-10.946766922350264 0.3186443168297046 -5.647929391957234 0.11924611000293339 0 0 Z M-3.25 20.375 C-3.6483203125000045 21.03886718749999 -4.046640625000009 21.702734374999977 -4.45703125 22.38671875 C-9.25 30.375000000000057 -9.25 30.375000000000057 -10.94921875 33.08203125 C-12.4144745896009 35.225557100615674 -12.4144745896009 35.225557100615674 -12.25 37.375 C-8.069980045415491 37.45696117558009 -4.327878952279718 37.2694570413463 -0.25 36.375 C-0.3637149678854712 34.08274564736155 -0.49130964306652913 31.79117611710103 -0.625 29.5 C-0.6946093750000273 28.22382812500001 -0.7642187499999977 26.947656250000023 -0.8359375 25.6328125 C-0.9224110611210108 22.29438300848892 -0.9224110611210108 22.29438300848892 -3.25 20.375 Z " fill="#000000" transform="translate(500.25,234.625)"/>
<path d="M0 0 C1.0286718750000006 0.18304687500000227 2.057343750000001 0.36609375000000455 3.1171875 0.5546875 C5.7900995375861015 1.0614993928410001 8.458837943810536 1.5838969996663366 11.125 2.125 C10.507084847121916 7.631464870466601 9.605814818421209 12.957711046819952 8.3828125 18.359375 C8.213774108886724 19.11865295410155 8.044735717773435 19.877930908203126 7.870574951171875 20.66021728515625 C7.514265484399687 22.257268802314115 7.156177993636206 23.853924588880886 6.79638671875 25.4501953125 C6.254747116263587 27.85393281558089 5.718684908559197 30.258859739447814 5.18359375 32.6640625 C-0.1988585992907872 56.772717198581574 -0.1988585992907872 56.772717198581574 -1.875 60.125 C-2.864999999999995 60.125 -3.855000000000004 60.125 -4.875 60.125 C-5.864999999999995 62.60000000000002 -5.864999999999995 62.60000000000002 -6.875 65.125 C-7.204999999999998 64.46500000000003 -7.534999999999997 63.80500000000001 -7.875 63.125 C-8.534999999999997 63.125 -9.194999999999993 63.125 -9.875 63.125 C-10.091562499999995 64.20781249999999 -10.091562499999995 64.20781249999999 -10.3125 65.3125 C-10.833333333333329 67.91666666666663 -11.354166666666657 70.52083333333331 -11.875 73.125 C-15.340000000000003 74.11500000000001 -15.340000000000003 74.11500000000001 -18.875 75.125 C-18.42540230766771 62.08330334860534 -16.81541935186489 49.30574195233987 -14.918701171875 36.40185546875 C-14.434367502524793 33.10366850273357 -13.961499643453038 29.803983391388897 -13.490234375 26.50390625 C-13.182955288167719 24.377508163093694 -12.875035534347163 22.25120253645946 -12.56640625 20.125 C-12.426749420166018 19.15296630859376 -12.287092590332037 18.180932617187494 -12.143203735351563 17.179443359375 C-11.492042800928871 12.773192836219891 -10.793034410091678 8.375162204097762 -9.956787109375 4 C-9.821229095458989 3.2755468750000034 -9.685671081542964 2.551093750000007 -9.546005249023438 1.8046875 C-9.324573516845703 1.2503906249999943 -9.103141784667969 0.6960937499999886 -8.875 0.125 C-5.37268072827429 -1.0424397572419082 -3.6013611820852276 -0.6556093922499144 0 0 Z " fill="#000000" transform="translate(102.875,235.875)"/>
<path d="M0 0 C3.6789720234422703 3.77094632402833 4.89789977413659 6.468496612048426 5.25 11.75 C5.138582567835272 16.8194931634946 4.06867949074018 20.93132050925982 0.37109375 24.62890625 C-4.588141292078319 28.626350253614646 -10.021532859953936 30.91733726678723 -16 33 C-15.275546875000032 33.38671875 -14.551093750000007 33.7734375 -13.8046875 34.171875 C-2.9127561136813824 40.03899537343028 -2.9127561136813824 40.03899537343028 1 43 C1 43.65999999999997 1 44.31999999999999 1 45 C0.009999999999990905 45 -0.9800000000000182 45 -2 45 C-2 45.65999999999997 -2 46.31999999999999 -2 47 C-1.443125000000009 47.17015624999999 -0.8862500000000182 47.34031249999998 -0.3125 47.515625 C5.095906092586972 49.23315936724043 9.980628964963671 51.35342254516263 15 54 C14.670000000000016 54.99000000000001 14.340000000000032 55.98000000000002 14 57 C11.029999999999973 57 8.060000000000002 57 5 57 C5 57.329999999999984 5 57.65999999999997 5 58 C-5.32968322963319 57.24875031057212 -13.446237909737476 52.61178634103584 -22 47 C-22.95390624999999 46.390273437500014 -23.907812499999977 45.78054687500003 -24.890625 45.15234375 C-31.6919656892166 40.37430692503358 -31.6919656892166 40.37430692503358 -32.5078125 36.734375 C-32.30231129291582 34.317680804689985 -31.761971572737366 32.29833816776767 -31 30 C-30.773124999999993 28.76249999999999 -30.546249999999986 27.524999999999977 -30.3125 26.25 C-26.48988873997905 20.877681472403026 -20.19318076940118 19.665328657943064 -14 18 C-13.340000000000032 18 -12.680000000000007 18 -12 18 C-12 16.019999999999982 -12 14.039999999999992 -12 12 C-21.027555315846143 6.3689506445712425 -36.8859627084679 10.511468887448643 -47 12 C-47.329999999999984 10.680000000000007 -47.660000000000025 9.360000000000014 -48 8 C-51.629999999999995 7.340000000000003 -55.25999999999999 6.680000000000007 -59 6 C-58.34 4.680000000000007 -57.68000000000001 3.3600000000000136 -57 2 C-59.31 2 -61.620000000000005 2 -64 2 C-63.34 0.3499999999999943 -62.68000000000001 -1.3000000000000114 -62 -3 C-15.304824095361369 -9.65228647050867 -15.304824095361369 -9.65228647050867 0 0 Z M-9 9 C-9 9.659999999999997 -9 10.319999999999993 -9 11 C-8.340000000000032 10.670000000000016 -7.680000000000007 10.340000000000003 -7 10 C-7.659999999999968 9.669999999999987 -8.319999999999993 9.340000000000003 -9 9 Z " fill="#000000" transform="translate(312,241)"/>
<path d="M0 0 C0.20058832757069922 5.268872459030774 -0.47436295401007555 9.875605307591002 -1.828125 14.98046875 C-2.113541564941386 16.083380050659173 -2.113541564941386 16.083380050659173 -2.40472412109375 17.208572387695313 C-2.8072260360344785 18.75177998176423 -3.214217135505578 20.293823057968552 -3.62548828125 21.834716796875 C-4.24993938288975 24.18727163131689 -4.850174605477548 26.54516192910637 -5.44921875 28.904296875 C-5.844899111589939 30.40923748330664 -6.241986620318357 31.913808976131804 -6.640625 33.41796875 C-6.816843872070308 34.11907272338868 -6.993062744140616 34.82017669677737 -7.17462158203125 35.54252624511719 C-8.318718858600732 39.72630846209199 -9.639622458000417 42.23171850091734 -13 45 C-13.660000000000025 44.670000000000016 -14.319999999999993 44.34000000000003 -15 44 C-15.123749999999973 45.08281249999999 -15.123749999999973 45.08281249999999 -15.25 46.1875 C-16.163272336855016 49.61227126320625 -17.542357882107353 51.47007429040468 -20 54 C-20.99000000000001 54 -21.980000000000018 54 -23 54 C-23.329999999999984 54.99000000000001 -23.660000000000025 55.98000000000002 -24 57 C-24.329999999999984 57 -24.660000000000025 57 -25 57 C-25.05449838316042 55.27119017863299 -25.09301688203834 53.541872878354354 -25.125 51.8125 C-25.14820312500001 50.84957031250002 -25.171406250000018 49.886640624999984 -25.1953125 48.89453125 C-24.99135440085655 45.87187222069417 -24.26874632102988 43.7323001480446 -23 41 C-23.660000000000025 41 -24.319999999999993 41 -25 41 C-23.540953036731082 32.59867884605967 -21.827628225149397 24.265875154702996 -20 15.9375 C-19.739609374999986 14.716113281249989 -19.479218749999973 13.494726562499977 -19.2109375 12.236328125 C-18.955703125000014 11.074238281250018 -18.700468750000027 9.91214843749998 -18.4375 8.71484375 C-18.209335937499986 7.664177246093743 -17.981171874999973 6.613510742187486 -17.74609375 5.531005859375 C-17 3 -17 3 -15 1 C-10.025216090809351 -0.21336192907088503 -5.084112452170643 -0.10168224904342082 0 0 Z " fill="#000000" transform="translate(283,253)"/>
</svg>
