<?xml version="1.0" encoding="UTF-8"?>
<!-- Generator: visioncortex VTracer 0.6.4 -->
<svg version="1.1" xmlns="http://www.w3.org/2000/svg" width="1024" height="1024">
<path d="M0 0 C16.73969990616905 9.807841795244428 31.734181433973674 23.48921048672642 46.028076171875 36.51318359375 C47.61369564726607 37.95171208033446 49.206295936164224 39.38262530795498 50.80908203125 40.802001953125 C56.999300892462486 46.293073380443445 62.922821832791215 52.01748093558081 68.759033203125 57.878662109375 C70.2555492543404 59.38056924510431 71.75738299616819 60.8770106228294 73.259765625 62.373046875 C78.57428621335418 67.68395698101932 83.678853975935 73.10361404796106 88.5625 78.8125 C89.9757355021444 80.35731260061993 91.39190408971183 81.89945324673528 92.8125 83.4375 C96.87713330702564 87.93615347370803 100.61567402601924 92.62842396712506 104.326171875 97.417236328125 C107.99473469123888 102.13660958841558 111.79357304351402 106.7256009753479 115.7138671875 111.238037109375 C119.0273936091188 115.07459496939543 121.8961724287405 119.07509709441365 124.5390625 123.3984375 C127.38752108365918 125.38905913568465 129.64840627147436 124.80123228957507 132.9619140625 124.283203125 C133.82010742187498 124.12787109375 134.67830078125002 123.9725390625 135.5625 123.8125 C136.44905273437502 123.66748046875 137.33560546874997 123.5224609375 138.2490234375 123.373046875 C140.17313866491418 123.05691841129317 142.09604103889984 122.73334081268047 144.017822265625 122.4033203125 C188.06344068833096 114.91414625209802 233.69682639334496 115.69023261479879 277.5048828125 124.492919921875 C279.8742204376118 124.91481700365551 279.8742204376118 124.91481700365551 283.5625 124.8125 C285.2747278883718 122.94766713048989 286.6782705710432 121.1809551884873 288.125 119.125 C289.00755156313176 117.92367114311844 289.893063945374 116.72451283426949 290.78125 115.52734375 C291.237578125 114.9097216796875 291.69390625000005 114.29209960937499 292.1640625 113.65576171875 C294.3761326922404 110.74006165739962 296.7411140601 107.96319459201129 299.125 105.1875 C302.4225657326024 101.3410063843159 305.65480602539435 97.46340951033994 308.8125 93.5 C313.2560303319465 88.03349865638233 318.0455245321489 82.92489653323014 322.8955078125 77.821044921875 C326.2807904572595 74.25851997474524 329.60484269425115 70.65669465287988 332.87109375 66.984375 C337.77557284553893 61.51375319923102 342.91946450182627 56.307919123815225 348.125 51.125 C349.0189648437499 50.227167968749995 349.9129296875001 49.32933593749999 350.833984375 48.404296875 C355.3816296220941 43.86330509571434 359.984384122391 39.45738740192013 364.862060546875 35.272216796875 C367.0189982122797 33.42062594239485 369.099433632628 31.49111402659082 371.1875 29.5625 C377.3885637953856 23.976808947667962 383.92867076509606 18.869067231917683 390.5625 13.8125 C391.19414062500005 13.329262695312508 391.82578125 12.846025390625016 392.4765625 12.34814453125 C415.3237455452768 -5.047395393658405 415.3237455452768 -5.047395393658405 425.5625 -4.1875 C430.3964221114318 -2.545790603664699 432.6292373180869 -0.2735235024315159 435.5625 3.8125 C454.84406586029104 44.02981431449456 458.6924147486409 98.07179414725636 458.73046875 141.93359375 C458.73370227769794 143.33057179583784 458.73706768325235 144.72754954171398 458.7405548095703 146.12452697753906 C458.7464780977216 149.03118673209235 458.7484020023353 151.93781707824058 458.747802734375 154.844482421875 C458.74772186386485 157.76544437853534 458.7546142044887 160.68624818894085 458.768310546875 163.607177734375 C458.8444109898152 180.06542270127022 458.5735054980021 196.33985997512605 456.993408203125 212.742431640625 C455.97093653162096 222.5910208900138 455.97093653162096 222.5910208900138 459.875 231.4375 C484.7945595757882 269.14517522360865 499.87475861721657 319.46667444951504 498.5625 364.8125 C499.147734375 364.7403125000001 499.73296875000005 364.6681249999999 500.3359375 364.59375 C506.52719383782403 363.9244249905055 512.7144068726521 363.6211553316215 518.9375 363.5 C519.7101318359375 363.4703515625 520.482763671875 363.440703125 521.27880859375 363.41015625 C525.1380479360799 363.369859646034 527.1317977251618 363.5600779046283 530.53515625 365.5546875 C533.2868598472141 368.6192051863002 533.5315973648487 370.62746279508633 533.76171875 374.625 C533.4486709889575 378.0623871800748 532.1231811682468 379.5887505644173 529.5625 381.8125 C520.4423806046796 386.25318640714545 508.48616668098964 384.97607692331303 498.5625 384.8125 C498.44132812500004 386.0448437499999 498.32015624999997 387.2771875000001 498.1953125 388.546875 C498.0262444142155 390.2187705149804 497.8569619183626 391.89064435764703 497.6875 393.5625 C497.56955078125 394.77099609375 497.56955078125 394.77099609375 497.44921875 396.00390625 C496.76802965743013 402.6585996927977 495.72005762968513 409.2250738816199 494.5625 415.8125 C495.80338378906254 416.2104174804688 497.04426757812496 416.60833496093755 498.32275390625 417.018310546875 C502.9454915301674 418.5047349337008 507.5621567948251 420.00930011216155 512.17724609375 421.519287109375 C514.1717401247001 422.1690748240811 516.1678263826061 422.81399698121345 518.16552734375 423.453857421875 C521.0444144922018 424.3769086824773 523.9170342423128 425.317573707011 526.7890625 426.26171875 C527.6767935180665 426.5421452331543 528.5645245361328 426.82257171630863 529.4791564941406 427.1114959716797 C534.8391173370128 428.89670443709304 538.5119892130648 430.8422572519614 542.5625 434.8125 C544.3138627325133 438.3152254650265 543.5308279155274 442.11045722090864 542.5625 445.8125 C539.8267628944026 448.77005362767284 537.5100933289222 450.1858524444324 533.5625 450.8125 C531.4692230224607 450.4079895019531 531.4692230224607 450.4079895019531 529.208740234375 449.65673828125 C528.3578330993653 449.3795999145508 527.5069259643554 449.1024615478516 526.6302337646484 448.8169250488281 C525.7197175598144 448.5086679077149 524.8092013549805 448.20041076660164 523.87109375 447.8828125 C522.9294386291504 447.5730245971679 521.9877835083008 447.263236694336 521.0175933837891 446.9440612792969 C518.0084096867598 445.95159578249445 515.0042587407545 444.9447636628606 512 443.9375 C509.97232005846934 443.265975639825 507.94432852059344 442.5953913672796 505.916015625 441.92578125 C500.79441000267445 440.2325318598672 495.67754698502677 438.5254411669125 490.5625 436.8125 C489.5725 436.4825000000001 488.5825 436.1524999999999 487.5625 435.8125 C487.4271484375 436.371953125 487.29179687500005 436.93140625 487.15234375 437.5078125 C485.4596581650153 443.81230611593105 482.96765737311136 449.3064282160567 479.812255859375 454.98876953125 C478.5263172239461 457.39168638802244 477.5515204490656 459.2505466203593 477.60546875 462.01171875 C478.8965904560423 464.44113551116527 480.42049016911574 465.59753770606494 482.625 467.25 C483.52734375 467.9422265625001 484.4296875 468.63445312499994 485.359375 469.34765625 C485.86662109375004 469.73453613281254 486.37386718749997 470.1214160156251 486.896484375 470.52001953125 C490.1077548821877 473.01129533210747 493.23210799255946 475.6109286287451 496.375 478.1875 C502.4728178931035 483.17176564403144 508.66990151727566 487.99027804233936 514.98828125 492.69140625 C518.9400166390783 495.9475402655835 520.426910336433 497.59219302789757 521 502.75 C520.8550972845721 506.8377818668074 519.5256544398785 508.93649716129437 516.5625 511.8125 C513.2908420184515 513.4483289907743 510.08821228986244 513.4468760378496 506.5625 512.8125 C503.6815849321681 511.24938820065177 501.36655233342617 509.1852928741938 498.9375 507 C497.5374757065181 505.8008944710016 496.1364143658369 504.6029988076691 494.734375 503.40625 C494.03763671875004 502.8016796874999 493.34089843749996 502.1971093750001 492.623046875 501.57421875 C489.55406201181177 498.95030941673394 486.3786884565317 496.4726193269005 483.1875 494 C478.2180411833043 490.127384760684 473.3105973416957 486.18882545282474 468.453125 482.17578125 C466.68060625891417 480.61754049743763 466.68060625891417 480.61754049743763 464.5625 480.8125 C463.05707477024725 482.4925614368535 463.05707477024725 482.4925614368535 461.5 484.6875 C418.45133053901986 541.4094148840373 346.64752624007747 568.9659049628948 278.11328125 578.4423828125 C273.6011408448817 579.044116836964 269.08377534859824 579.5966442844099 264.5625 580.125 C263.8659228515626 580.2064022827149 263.1693457031249 580.2878045654297 262.45166015625 580.3716735839844 C257.8262196855934 580.9033988718896 253.1978547202741 581.3753310923486 248.5625 581.8125 C247.4599487304688 581.9170751953125 246.35739746093748 582.021650390625 245.221435546875 582.12939453125 C189.43147580801855 586.6118361401642 131.63841408672238 582.5545689390069 77.5625 567.8125 C76.15266845703127 567.4325488281249 76.15266845703127 567.4325488281249 74.71435546875 567.044921875 C22.337773377140422 552.6892589833275 -27.44598637468374 524.7304634755014 -60.4375 480.8125 C-65.28945276760675 483.45728993998955 -69.34404742285807 486.9079942132406 -73.5625 490.4375 C-75.08456904248999 491.70060082020336 -76.60670447176534 492.9636216468939 -78.12890625 494.2265625 C-78.86641113281252 494.840478515625 -79.603916015625 495.45439453125005 -80.36376953125 496.0869140625 C-83.9206619210419 499.0466639342976 -87.48695493923401 501.99380044182817 -91.0859375 504.90234375 C-92.61108711954796 506.14121113199167 -94.11785034878861 507.4032012956088 -95.6015625 508.69140625 C-98.86450725016164 511.4063274610419 -101.30353031697501 513.1875642534071 -105.625 513.4375 C-109.80401723867084 512.7524152067753 -111.51794350537864 511.8205279035493 -114.4375 508.8125 C-116.01172752839719 505.6640449432057 -116.1067834269536 502.22031928402976 -115.4375 498.8125 C-112.59189621992459 494.5095603034297 -108.93310794925077 491.63481484175304 -104.875 488.5625 C-103.6125592410836 487.5894777138228 -102.35084803478878 486.6155081893696 -101.08984375 485.640625 C-100.4683544921875 485.16173828125 -99.846865234375 484.6828515625 -99.20654296875 484.189453125 C-96.74657074122197 482.2747079741225 -94.34066404363165 480.29787772401073 -91.9375 478.3125 C-85.52660803588276 473.03237821789446 -78.98262860098396 467.9243887613525 -72.4375 462.8125 C-73.7777857045767 459.43000030682913 -75.16588588722857 456.07354429116776 -76.6015625 452.73046875 C-77.00117187500001 451.79912109375005 -77.40078125 450.8677734375 -77.8125 449.908203125 C-78.225 448.94849609375 -78.63749999999999 447.9887890625 -79.0625 447 C-79.482734375 446.02095703124996 -79.90296875000001 445.0419140624999 -80.3359375 444.033203125 C-81.36924486446281 441.62606665096723 -82.40311646215537 439.2191741748684 -83.4375 436.8125 C-87.90807730863469 437.54663758891036 -92.05423459749136 439.0061648838914 -96.30078125 440.53515625 C-97.84290643054197 441.0793219590157 -99.3852305454476 441.6229241712406 -100.927734375 442.166015625 C-103.33895031381982 443.01846075151514 -105.74863490585389 443.8745087545683 -108.155029296875 444.740478515625 C-110.49140514599728 445.5792941966207 -112.83295074859862 446.4020699940223 -115.17578125 447.22265625 C-115.8843879699707 447.4820045471191 -116.5929946899414 447.74135284423824 -117.32307434082031 448.00856018066406 C-123.05091278720519 449.9934321467242 -128.5164736575402 451.01901088058116 -134.3125 448.625 C-136.8750853228061 446.43926545995953 -137.67528658382125 445.09001768956864 -138.4375 441.8125 C-138.35878117216785 438.03399626405724 -137.8314841510419 436.3011816434994 -135.44970703125 433.346923828125 C-131.64189308074617 430.1430887965007 -127.97912255834319 428.822732163011 -123.3046875 427.26171875 C-122.43103546142578 426.95804885864254 -121.55738342285156 426.6543789672851 -120.65725708007813 426.3415069580078 C-118.81892779204563 425.705490825972 -116.9781918721734 425.0763931599704 -115.13525390625 424.453857421875 C-112.31005663605532 423.4991743450155 -109.492601644329 422.52401351354433 -106.67578125 421.544921875 C-104.88582922317514 420.9284882458869 -103.09547771162403 420.31321312732564 -101.3046875 419.69921875 C-100.46090545654297 419.4086711120606 -99.61712341308595 419.11812347412115 -98.74777221679688 418.8187713623047 C-97.96330718994142 418.5546192932129 -97.17884216308593 418.29046722412113 -96.37060546875 418.018310546875 C-95.68175262451172 417.7846830749511 -94.99289978027343 417.5510556030274 -94.28317260742188 417.3103485107422 C-92.43749999999997 416.8125 -92.43749999999997 416.8125 -89.4375 416.8125 C-89.6424609375 415.843125 -89.84742187500001 414.87375 -90.05859375 413.875 C-92.03303978549462 404.17716499428457 -93.05630582741995 394.69725923379997 -93.4375 384.8125 C-94.1936962890625 384.79791748046875 -94.949892578125 384.7833349609375 -95.72900390625 384.768310546875 C-99.17400277408484 384.6935800026778 -102.61805920786279 384.59700072368923 -106.0625 384.5 C-107.25230468749999 384.47744140625 -108.442109375 384.45488281250005 -109.66796875 384.431640625 C-120.8794300002773 384.0871543854663 -120.8794300002773 384.0871543854663 -125.4375 380.8125 C-127.4522159656909 377.79042605146367 -127.77469033925112 376.8952330116965 -127.875 373.4375 C-127.91496093750001 372.687265625 -127.954921875 371.93703125 -127.99609375 371.1640625 C-127.10928307100068 367.4307755856112 -125.50902403496238 366.0620668988456 -122.4375 363.8125 C-119.32868577291751 363.18888335957627 -116.34426786471576 363.29423510473123 -113.1875 363.4375 C-112.37925781249999 363.4516796875 -111.571015625 363.46585937500004 -110.73828125 363.48046875 C-105.26062625241931 363.61193246994196 -99.87409283392668 364.1465719621094 -94.4375 364.8125 C-94.42332031250001 363.6446093750001 -94.40914062499999 362.4767187499999 -94.39453125 361.2734375 C-93.61672072466874 328.4484980339812 -85.84617067290148 295.75525747421307 -72.4375 265.8125 C-72.0209716796875 264.8806689453125 -71.60444335937501 263.948837890625 -71.17529296875 262.98876953125 C-57.01423182845713 231.66874801840476 -57.01423182845713 231.66874801840476 -49.2548828125 224.911865234375 C-46.27098737208331 219.82312898825865 -47.568613848704445 214.75493480435205 -48.16796875 209.04296875 C-48.396555615772456 206.4070566789893 -48.618965147241056 203.77159218176593 -48.82958984375 201.13427734375 C-48.8852036380768 200.45161080360413 -48.94081743240355 199.76894426345825 -48.9981164932251 199.06559085845947 C-49.57746022098371 191.6282612048916 -49.70186354912704 184.19589901769865 -49.73828125 176.73828125 C-49.7418532371521 176.06563106536862 -49.7454252243042 175.3929808807373 -49.74910545349121 174.69994735717773 C-49.76731757375268 170.55205492235416 -49.766562325449286 166.40438060892842 -49.755558013916016 162.2564697265625 C-49.74989474347433 160.08463466423177 -49.74708916191719 157.91280747595624 -49.744476318359375 155.740966796875 C-49.70756635642687 134.62378766339242 -49.23670718726498 113.77241723147182 -46.4375 92.8125 C-46.263073095760774 91.42673144747448 -46.089769906084086 90.0408210778171 -45.91748046875 88.65478515625 C-42.74965047771616 63.407509960620246 -38.176071187476055 38.41772841775702 -30.25 14.1875 C-29.929265136718755 13.203784179687489 -29.60853027343751 12.220068359375006 -29.278076171875 11.20654296875 C-27.127208408369768 4.964308422071383 -25.145394970209395 0.405379394240839 -19.25 -3.0625 C-11.704409369823168 -5.289067726937418 -6.872767505266552 -3.6982790501780585 0 0 Z M48.75 286.5625 C43.04004690163322 295.04585888900215 42.64477855122709 303.74920963069746 43.5625 313.8125 C45.00491225960013 321.1606379262647 47.71682210452286 325.80296433740205 53.5625 330.47265625 C58.631212521565885 333.8682976462834 62.518199831918196 334.4864289386014 68.5625 333.8125 C75.5208908455989 331.270011037185 79.95874897025362 326.15013112127804 83.5625 319.8125 C86.8634190856327 310.0747886973836 86.47382202360393 300.3233642368831 82.5625 290.8125 C79.70296875369218 285.66534375664594 76.45119904296917 282.41733280164954 71.3125 279.5625 C61.68860433433758 276.9378011820921 55.66915925683912 279.7970998377573 48.75 286.5625 Z M327.25 286.375 C321.3418501113126 295.0359935697925 320.4936991442005 305.2195423231742 322.1875 315.3125 C323.7654699240725 321.6577170890521 327.31840332673244 327.5604993054985 332.75 331.3125 C337.7251049543761 333.96588930900054 342.01539963129335 334.577927810617 347.5625 333.8125 C354.38134873322724 331.28013769871086 358.3206370391896 326.1256015552624 361.5625 319.8125 C365.0978046166281 311.3821582218868 364.6377405145936 300.74201846920687 361.7421875 292.20703125 C359.18253366621934 287.0114425079222 355.319346794839 282.17144802759725 350.07421875 279.5859375 C341.1961948737933 276.8521136625366 333.173969465493 279.2691548529677 327.25 286.375 Z M177.75 375.4375 C175.8541498686373 379.22920026272527 175.7184170722478 382.67579606481763 176.5625 386.8125 C179.25661038574714 391.95400736620604 183.11160083084314 394.55229127049734 188.53515625 396.3046875 C190.86424417874957 396.88808139352113 193.2042072627534 397.3629121298143 195.5625 397.8125 C196.36591704405106 414.95206360642237 196.36591704405106 414.95206360642237 191.5625 420.8125 C186.63847887520984 425.97295637712875 182.29634158524635 429.49690636436446 175.00390625 430.11328125 C173.7238671875 430.11714843749996 172.44382812499998 430.1210156249999 171.125 430.125 C169.8475390625 430.14175781250003 168.570078125 430.15851562500006 167.25390625 430.17578125 C163.3284323104565 429.78946476706074 160.95153645445828 428.7675224934942 157.5625 426.8125 C156.82 426.50312499999995 156.0775 426.19375 155.3125 425.875 C153.04612110831687 424.49898424433525 152.6911956143485 423.20267894803214 151.5625 420.8125 C149.9660642216112 418.7447355632297 148.2711144073782 416.79089562959575 146.5625 414.8125 C142.63174355815949 415.38702746285264 142.63174355815949 415.38702746285264 139.5625 417.8125 C138.8415508068702 421.09682410203584 139.14026759687732 423.0950899290408 140.84765625 425.99609375 C146.68022394938367 433.87471025509 153.69268311164177 440.06907249125356 163.5625 441.8125 C175.98243818813773 442.92905382157505 185.9603201187557 441.20256953844034 195.80859375 433.375 C197.80673785523737 431.5949161645992 199.68918907443765 429.72286542738664 201.5625 427.8125 C202.14515625 428.53695312499997 202.72781250000003 429.26140624999994 203.328125 430.0078125 C210.4908375571738 438.4544074966673 218.71930009322193 445.0109618212282 230.19140625 446.05078125 C240.34255644982227 446.3076012950021 248.8180243460273 443.97758680117454 256.78125 437.515625 C262.07188401306394 432.4570363383863 266.9887576698228 425.9926226912909 268 418.625 C267.8082473100592 415.7470905321261 267.8082473100592 415.7470905321261 265.875 413.875 C263.61917370288825 412.6368548500336 263.61917370288825 412.6368548500336 261.13671875 412.8515625 C257.34441027175626 414.26720420811534 256.75783740672296 416.5304048852736 255.0625 420.125 C251.95788728620562 426.66372441843964 248.4962633467817 430.5566286947402 241.64453125 433.2734375 C234.44241617770103 435.1381502204076 227.1032183865043 434.2699506802803 220.5625 430.8125 C214.62130167380542 427.0819801207615 211.52109175391797 421.5513335826229 209.25 415.0625 C208.1076444599455 409.7243899997454 208.39969891342093 404.2392028859683 208.5625 398.8125 C209.359140625 398.5701562500001 210.15578125000002 398.32781249999994 210.9765625 398.078125 C221.36139623569488 395.05830058961556 221.36139623569488 395.05830058961556 228.5 387.4375 C229.65683298403133 383.4906580544812 229.88075169945773 381.6848643671574 228.5625 377.8125 C225.703399506898 373.68268817663034 223.47648611607713 371.0695662157407 218.5625 369.8125 C205.8532143418479 367.5017207894268 187.968437630011 366.27614212481774 177.75 375.4375 Z " fill="#000000" transform="translate(308.4375,225.1875)"/>
</svg>
