<?xml version="1.0" encoding="UTF-8"?>
<!-- Generator: visioncortex VTracer 0.6.4 -->
<svg version="1.1" xmlns="http://www.w3.org/2000/svg" width="1024" height="1024">
<path d="M0 0 C9.365430776476387 2.2253137267721 17.461842633456286 12.25968656851677 24.0439453125 18.97509765625 C25.59994305355042 20.562450515507976 27.166535955006793 22.13870221927675 28.7353515625 23.71337890625 C34.139063777848946 29.15860436925658 39.39140764642525 34.69506584353678 44.3447265625 40.55712890625 C45.20195312499999 41.55615234375 46.05917968749998 42.55517578125 46.9423828125 43.58447265625 C49.75183654498545 46.901498061482414 52.55329956361186 50.224922507391 55.3447265625 53.55712890625 C55.8908056640625 54.20891113281249 56.436884765624995 54.86069335937498 56.99951171875 55.5322265625 C64.05284000851827 63.97243392153399 70.92629193812309 72.51753512772802 77.56396484375 81.288818359375 C81.82551801204403 86.91335981386345 86.2048576684839 92.43417268656071 90.65185546875 97.9130859375 C94.24396072038888 102.35559722202777 94.24396072038888 102.35559722202777 95.3447265625 104.55712890625 C101.68828163926003 103.88284892606293 107.55352299676832 102.11387085381062 113.6572265625 100.30712890625 C175.12377975627044 82.6857511049717 240.58638881972195 83.56366490195092 301.631591796875 102.322021484375 C302.58235595703127 102.61230224609375 303.53312011718754 102.9025830078125 304.5126953125 103.20166015625 C305.3508276367188 103.46309814453127 306.1889599609375 103.72453613281249 307.052490234375 103.993896484375 C309.59873281266323 104.716205863136 309.59873281266323 104.716205863136 313.3447265625 104.55712890625 C315.45316152380065 102.3747159479039 315.45316152380065 102.3747159479039 317.4072265625 99.43212890625 C318.1970970386574 98.32667661429713 318.988845261871 97.22256419478742 319.7822265625 96.11962890625 C320.19730468750004 95.53697265624999 320.6123828125001 94.95431640624997 321.0400390625 94.35400390625 C323.2464108063982 91.31528833082132 325.5766939363666 88.3760444921254 327.9072265625 85.43212890625 C328.61238403320317 84.5383251953125 328.61238403320317 84.5383251953125 329.331787109375 83.62646484375 C330.66742128283704 81.93508090875349 332.0054691207624 80.24564470142951 333.3447265625 78.55712890625 C334.34439453125003 77.29642578125004 334.34439453125003 77.29642578125004 335.3642578125 76.01025390625 C337.3495788451571 73.51919846316866 339.3453505404325 71.03692036824901 341.3447265625 68.55712890625 C342.0442041015625 67.6874951171875 342.0442041015625 67.6874951171875 342.7578125 66.80029296875 C357.26948319281996 48.77286104814277 372.3420116989081 31.538713382953915 388.5947265625 15.05712890625 C389.854462890625 13.765246582031239 389.854462890625 13.765246582031239 391.1396484375 12.447265625 C403.0870235183228 0.4361397285285875 403.0870235183228 0.4361397285285875 410.5322265625 -0.00537109375 C414.8809954695229 0.6362505482697713 416.20896987371566 1.57021242712176 419.3447265625 4.55712890625 C423.5163668097831 12.004326164424498 425.78921931023694 20.642417918220247 428.1572265625 28.80712890625 C428.4948803710937 29.964787597656255 428.8325341796875 31.12244628906251 429.180419921875 32.315185546875 C451.47930288763484 109.84263724662276 459.1696369705975 190.4014282154306 465.3447265625 270.55712890625 C470.6451106147414 269.95346442357703 475.77735997952186 269.1177513232965 480.994873046875 267.974853515625 C481.71310241699223 267.8186503601074 482.43133178710934 267.66244720458985 483.17132568359375 267.5015106201172 C484.7162603596944 267.1652221835222 486.26086865305217 266.8274313742419 487.80517387390137 266.4882640838623 C490.2563678577285 265.95057828087243 492.7086813235295 265.41830931127157 495.16139221191406 264.88758850097656 C502.1299501066625 263.3791697678004 509.0971309221826 261.8645619862172 516.061767578125 260.338134765625 C520.3357062820709 259.401823660215 524.6115430118538 258.47464571180734 528.8886890411377 257.55310249328613 C530.5092083432191 257.20209919958796 532.1289942790597 256.8476908997243 533.7479839324951 256.4896984100342 C550.4799197444534 252.79190662000588 550.4799197444534 252.79190662000588 557.3447265625 253.55712890625 C559.505224205022 255.32716592386856 560.2637263180862 256.3141281730087 561.1572265625 258.99462890625 C561.3822204894108 262.0695459073636 561.2760107231647 263.1430237054191 559.3447265625 265.55712890625 C554.2584896272978 268.03943380927797 549.3037536006096 269.414643916257 543.779052734375 270.550048828125 C542.9521896362305 270.72605117797843 542.1253265380859 270.9020535278321 541.2734069824219 271.08338928222656 C538.5629299621557 271.65846713902374 535.8504096900102 272.223176659214 533.1376953125 272.78759765625 C531.2466484649366 273.18629732307113 529.3557250662723 273.58558292206976 527.4649200439453 273.9854278564453 C523.5143899669081 274.81931813916117 519.5629125271504 275.6484972905937 515.610595703125 276.473876953125 C510.5370905467329 277.53344391110045 505.4653382089375 278.60112345129517 500.39417552948 279.6718397140503 C495.55925880033533 280.6923375735712 490.7235163475581 281.7088952100182 485.8876953125 282.72509765625 C484.96243734359746 282.91986379623415 484.0371793746948 283.1146299362183 483.08388328552246 283.31529808044434 C480.47751528768504 283.8631762903208 477.87057906751056 284.40825584792685 475.263427734375 284.952392578125 C474.0984903717041 285.19779281616206 474.0984903717041 285.19779281616206 472.91001892089844 285.4481506347656 C467.574382353862 286.55712890625 467.574382353862 286.55712890625 465.3447265625 286.55712890625 C465.67472656250004 292.82712890625 466.00472656249997 299.09712890624996 466.3447265625 305.55712890625 C468.50785400390623 305.5821850585937 470.67098144531246 305.60724121093745 472.899658203125 305.633056640625 C480.1040694671906 305.71711103907705 487.30841983315713 305.80571556855284 494.51274967193604 305.8964681625366 C498.8741187566005 305.9512720188038 503.2354948233 306.0046161048409 507.596923828125 306.054443359375 C511.81803217684853 306.1027242483908 516.0390733810933 306.15507554513806 520.2600994110107 306.21006965637207 C521.8581413851387 306.230209077793 523.4562015380004 306.2489627816092 525.054277420044 306.26620292663574 C532.9387913377179 306.3521463985802 540.8221426331569 306.4954612672491 548.697998046875 306.889404296875 C549.8844944763183 306.94455703735343 551.0709909057617 306.9997097778321 552.2934417724609 307.05653381347656 C555.5624550891333 307.59284954181476 557.0548461481148 308.18607175003945 559.3447265625 310.55712890625 C559.8942651727438 314.33520685167605 560.0325860730138 316.54566679072457 557.8524780273438 319.75140380859375 C554.2797646781554 322.3239626334225 550.9568069053711 322.08571966875206 546.720703125 322.01123046875 C545.4177252960205 322.012106628418 545.4177252960205 322.012106628418 544.0884246826172 322.01300048828125 C541.2203256144084 322.01021615646846 538.3532688268808 321.9791078284434 535.4853515625 321.94775390625 C533.4956722799878 321.9402927561664 531.5059856454697 321.93459922931584 529.5162963867188 321.93060302734375 C524.2816739962585 321.915336823997 519.0474961656049 321.8760463008024 513.8130493164063 321.831787109375 C508.4708049920589 321.7908558057843 503.1284887742428 321.77259657308514 497.7861328125 321.75244140625 C487.30543740090275 321.7095530504091 476.8251885146195 321.6391949256317 466.3447265625 321.55712890625 C465.3547265625 327.82712890625 464.3647265625 334.09712890624996 463.3447265625 340.55712890625 C464.9214111328125 340.9685009765625 466.49809570312505 341.379873046875 468.12255859375 341.8037109375 C474.1621970227575 343.45307703421736 480.0187595882462 345.47145627433997 485.8994140625 347.61181640625 C486.9628201293946 347.9952420043945 488.02622619628903 348.37866760253905 489.1218566894531 348.7737121582031 C491.35621108914916 349.58021692749094 493.5898353192795 350.3887472142342 495.82275390625 351.19921875 C499.20220810431647 352.42577069050856 502.58378675099596 353.64630320179685 505.9658203125 354.86572265625 C511.2063450239541 356.7575519804693 516.4413541200792 358.6639567786506 521.6727294921875 360.5809326171875 C524.0258153258433 361.44061681526614 526.382369076293 362.2897780885753 528.740234375 363.13623046875 C529.911669921875 363.56645507812505 531.08310546875 363.9966796875 532.2900390625 364.43994140625 C533.7250073242187 364.9603198242187 533.7250073242187 364.9603198242187 535.18896484375 365.4912109375 C537.3447265625 366.55712890625 537.3447265625 366.55712890625 539.3447265625 369.55712890625 C539.6971837684418 372.8702266421035 539.6887287881356 374.88722983527555 538.1572265625 377.86962890625 C535.7563932077916 380.1048875468407 534.6406448751841 380.3217061696297 531.3447265625 380.55712890625 C528.2256681283777 379.8563785267298 525.2761347565425 378.72964685670445 522.2822265625 377.61962890625 C521.335732421875 377.27988037109367 520.38923828125 376.94013183593756 519.4140625 376.590087890625 C516.4646361386502 375.52740715286427 513.5201446756997 374.45188640241713 510.57659912109375 373.373046875 C506.10295828037465 371.7375933032349 501.6235744541467 370.1179151320889 497.1455078125 368.49462890625 C488.36164583514574 365.30865993385055 479.58132230882006 362.11310322247914 470.8053741455078 358.9053955078125 C469.99819442749026 358.6107238769531 469.1910147094727 358.3160522460937 468.359375 358.012451171875 C467.6537542724609 357.7545631408691 466.9481335449219 357.4966751098633 466.22113037109375 357.23097229003906 C464.6037019334143 356.6501306575019 462.9750966363765 356.10058559754225 461.3447265625 355.55712890625 C461.26996093749995 356.11916015625 461.1951953125 356.68119140625004 461.1181640625 357.26025390625 C456.1875596684929 388.7774506208834 441.34539107606577 420.1861400056978 422.3447265625 445.55712890625 C421.90837890625005 446.14751953125005 421.47203125 446.73791015625 421.0224609375 447.34619140625 C413.80747936931994 457.05167772314996 405.73581009018847 465.86293579899416 397.3447265625 474.55712890625 C396.4449609375 475.49814453125 395.5451953125 476.43916015624995 394.6181640625 477.40869140625 C388.8893073663504 483.28304287563515 382.81566318395176 488.51781543113714 376.3447265625 493.55712890625 C375.76480957031254 494.01345703125 375.18489257812496 494.46978515625005 374.58740234375 494.93994140625 C326.3677939971245 532.7374442024521 266.3737948113127 553.1163132728391 205.2197265625 552.86962890625 C203.80607315063475 552.8668946838379 203.80607315063475 552.8668946838379 202.36386108398438 552.8641052246094 C187.8348751671516 552.8169007429501 173.66005338633994 552.2227237083121 159.3447265625 549.55712890625 C158.3610107421875 549.380205078125 157.37729492187498 549.20328125 156.36376953125 549.02099609375 C142.40109660850067 546.4622407140153 128.81609284814493 543.0214444695177 115.3447265625 538.55712890625 C114.23629394531247 538.1989306640625 114.23629394531247 538.1989306640625 113.10546875 537.83349609375 C76.63228852373919 525.9018094238932 42.842602899072574 505.2479749376221 15.3447265625 478.55712890625 C14.723559570312489 477.96174316406245 14.102392578124977 477.366357421875 13.46240234375 476.7529296875 C4.259550548436437 467.9060015777678 -4.097154519762114 458.8422829544936 -11.6552734375 448.55712890625 C-12.514443357194523 447.41634942258884 -13.373818907904308 446.2757247798588 -14.2333984375 445.13525390625 C-20.050962890742767 437.311938779578 -25.01563845041659 429.15278789141166 -29.59375 420.5498046875 C-30.280736102028982 419.26020474160293 -30.974948088282133 417.9744172815913 -31.677734375 416.693359375 C-41.068474640734166 399.54724190444244 -52.6552734375 375.4259447781667 -52.6552734375 355.55712890625 C-70.55528512635891 361.6211323035866 -88.31090078206535 368.0457947150769 -106.039794921875 374.590576171875 C-106.91080337524414 374.9113160705567 -107.78181182861329 375.2320559692382 -108.67921447753906 375.56251525878906 C-110.3252675324824 376.16878243775454 -111.97068001785533 376.7767926179422 -113.61534118652344 377.38682556152344 C-114.72154563903808 377.7940358734131 -114.72154563903808 377.7940358734131 -115.85009765625 378.20947265625 C-116.81168289184569 378.56513305664066 -116.81168289184569 378.56513305664066 -117.79269409179688 378.927978515625 C-123.18680796931997 380.75002645197117 -123.18680796931997 380.75002645197117 -126.8427734375 379.24462890625 C-129.6552734375 377.55712890625 -129.6552734375 377.55712890625 -130.6552734375 375.55712890625 C-130.9677734375 372.68212890625 -130.9677734375 372.68212890625 -130.6552734375 369.55712890625 C-127.91202612059212 366.20588052883136 -125.3487189275325 364.7758488054096 -121.298583984375 363.3623046875 C-120.22613937377929 362.9815579223632 -119.15369476318358 362.60081115722664 -118.04875183105469 362.2085266113281 C-116.3129058074951 361.61151443481447 -116.3129058074951 361.61151443481447 -114.5419921875 361.00244140625 C-112.73937675476074 360.36639480590816 -112.73937675476074 360.36639480590816 -110.90034484863281 359.7174987792969 C-107.7014397218764 358.59052039027915 -104.49951007846232 357.4731935654115 -101.29547119140625 356.3609619140625 C-95.60154768498938 354.3815346256441 -89.91612637003271 352.37768287363383 -84.2294921875 350.37744140625 C-82.42773025512696 349.74530731201173 -82.42773025512696 349.74530731201173 -80.58956909179688 349.10040283203125 C-72.17709052538089 346.13500907311163 -63.893927151309214 342.974393896372 -55.6552734375 339.55712890625 C-55.985273437499984 333.28712890625 -56.3152734375 327.01712890625004 -56.6552734375 320.55712890625 C-60.32172973632811 320.7972570800781 -60.32172973632811 320.7972570800781 -64.062255859375 321.042236328125 C-73.09100172813234 321.59308613789767 -82.09997358065704 321.7548405365163 -91.1435546875 321.79541015625 C-91.928348903656 321.79948568344116 -92.713143119812 321.8035612106323 -93.52171897888184 321.80776023864746 C-97.6501371746646 321.8283320019963 -101.77852467620104 321.8427731359151 -105.906982421875 321.852294921875 C-110.15604981501792 321.86350156980984 -114.40461385240152 321.89814200838055 -118.6535005569458 321.9374666213989 C-121.94515472844785 321.9635454144536 -125.23668444353208 321.9719772470436 -128.52843284606934 321.97557640075684 C-130.09654461764174 321.9804387922486 -131.6646509589537 321.9920429783241 -133.2326602935791 322.0106143951416 C-135.41212488442468 322.0348953599648 -137.5902177623971 322.0340661734283 -139.769775390625 322.027099609375 C-141.00645462036132 322.0329658508301 -142.24313385009765 322.03883209228513 -143.5172882080078 322.0448760986328 C-147.2503367702089 321.4646362880277 -148.42862231092633 320.5588007238482 -150.6552734375 317.55712890625 C-151.1552734375 314.55712890625 -151.1552734375 314.55712890625 -150.6552734375 311.55712890625 C-148.34535468500982 308.37007812464356 -147.08146821364994 307.6300341919996 -143.15797424316406 306.95887756347656 C-141.77056604889447 306.894834377347 -140.3820648373012 306.8521189667015 -138.993408203125 306.826904296875 C-137.868691573143 306.78447522640226 -137.868691573143 306.78447522640226 -136.72125339508057 306.7411890029907 C-134.366000170235 306.6587488440143 -132.01146082631075 306.6050082395619 -129.6552734375 306.55712890625 C-128.22231699035157 306.51973888510724 -126.78936399426323 306.4822163259008 -125.35641479492188 306.4445495605469 C-120.98629058259809 306.3420561350549 -116.61611457683884 306.2896001674178 -112.2451171875 306.24072265625 C-110.65515202135018 306.2200700863225 -109.06519130976426 306.1990720322135 -107.47523498535156 306.17774963378906 C-103.35403120601126 306.12338357917906 -99.23278525543381 306.07360931584196 -95.11151123046875 306.02490234375 C-90.88061919158497 305.9740500295211 -86.64978599733234 305.9187017816223 -82.4189453125 305.86376953125 C-74.16443711690289 305.75723868635566 -65.90987702957489 305.65599214486576 -57.6552734375 305.55712890625 C-57.160273437499995 296.15212890625 -57.160273437499995 296.15212890625 -56.6552734375 286.55712890625 C-58.12569091796877 286.26725097656254 -59.59610839843748 285.9773730468751 -61.111083984375 285.6787109375 C-76.3720657418308 282.65619510447095 -91.59744701347489 279.48480983875265 -106.807861328125 276.2177734375 C-110.50965888200221 275.4231376874916 -114.21231317305308 274.63258259768315 -117.9150390625 273.84228515625 C-120.31417949433342 273.32820434382165 -122.71326991327192 272.8138900602678 -125.1123046875 272.29931640625 C-126.19687454223634 272.0680001831055 -127.28144439697266 271.83668395996096 -128.3988800048828 271.5983581542969 C-130.46520918743138 271.1533463688636 -132.52974833385477 270.6999220390012 -134.59219360351563 270.23724365234375 C-136.72177152233837 269.7644001666867 -138.8575457816193 269.31896887124725 -140.99740600585938 268.89508056640625 C-142.07132598876953 268.66512390136717 -143.14524597167969 268.43516723632814 -144.251708984375 268.1982421875 C-145.7003559112549 267.9047135925293 -145.7003559112549 267.9047135925293 -147.1782684326172 267.6052551269531 C-150.41257711182087 266.23668149636353 -151.22924203529138 264.7104963762989 -152.6552734375 261.55712890625 C-152.5813913349615 258.4540805996333 -152.1169303333207 257.092650905402 -150.0927734375 254.74462890625 C-142.65433009053098 251.12077189105997 -132.93117511106286 254.78662475770602 -125.3232421875 256.47900390625 C-123.92303834920389 256.7840464466122 -122.52266953149359 257.08833256839193 -121.12214660644531 257.39190673828125 C-117.44045044046538 258.1919595175404 -113.76097009144243 259.00176983254335 -110.0819091796875 259.8138427734375 C-106.4024923820119 260.62442573584315 -102.72123526548839 261.42654779632767 -99.0400390625 262.22900390625 C-94.7769285701369 263.1587630595555 -90.51396020104357 264.0891369764014 -86.25192260742188 265.0238037109375 C-76.064496856831 267.25731868630487 -65.86726381126635 269.43883935546467 -55.6552734375 271.55712890625 C-55.679926757812495 270.7861083984375 -55.70458007812499 270.015087890625 -55.72998046875 269.220703125 C-55.95081764810118 255.97975123701127 -54.69522964283931 242.86097007705507 -53.5302734375 229.68212890625 C-53.418900451660136 228.4090286254883 -53.30752746582033 227.13592834472655 -53.192779541015625 225.82424926757813 C-47.06588255059842 156.23265342765717 -38.165729895910545 85.46163458728847 -16.3427734375 18.80712890625 C-16.02961181640626 17.84339355468751 -15.716450195312518 16.879658203125018 -15.393798828125 15.88671875 C-12.713658553280993 8.004458406306554 -9.806913962819408 -0.30882669706204524 0 0 Z M63.9072265625 274.11962890625 C60.7749848702461 279.00592594616614 60.7189876662253 283.9166656158868 61.3447265625 289.55712890625 C63.73711666992176 294.4339241252252 67.06041610854368 297.3666849511761 71.3447265625 300.55712890625 C76.44796856816458 302.2582095748048 80.66346090411213 302.1223413750563 85.5322265625 299.86962890625 C89.8774031089414 297.4827234145878 92.1766467622416 294.5595514209788 94.6572265625 290.30712890625 C95.91732340600504 285.26674153222973 95.1914824738567 280.4623297068025 93.0947265625 275.74462890625 C88.97788916477992 270.5985821590999 84.55883756372742 267.92099052903046 78.0322265625 267.18212890625 C72.16210798292286 267.77909011773244 67.97325250374467 269.8450888141723 63.9072265625 274.11962890625 Z M317.5322265625 273.36962890625 C314.0151819547373 278.4944653347043 312.7976893051955 282.5094562300708 313.8095703125 288.60400390625 C315.42685324698505 294.5064963678742 319.2181587658663 297.61207932094976 324.3447265625 300.55712890625 C329.02272589409336 302.11646201678104 332.8422341257558 302.1280760322128 337.4697265625 300.36962890625 C341.92181890059226 297.562875040931 345.3288940178352 294.4640897057632 347.3447265625 289.55712890625 C348.26972412722375 283.8292593708452 348.1558342408541 278.91512396307985 344.7822265625 274.05712890625 C340.8414202523006 269.542778015693 336.791414697092 267.8192740635277 330.8447265625 267.18212890625 C325.1718647377081 267.78993553033484 321.5820667220237 269.31978874672626 317.5322265625 273.36962890625 Z M185.3447265625 302.55712890625 C184.2877103476896 306.7074719849909 184.77971688003163 310.5008064564179 186.7822265625 314.24462890625 C193.2545808868977 320.2557099645554 193.2545808868977 320.2557099645554 201.3447265625 322.55712890625 C201.80072656250002 331.5251289062501 201.80072656250002 331.5251289062501 198.3447265625 335.55712890625 C193.9515476026716 338.4526332206824 190.5600407359941 339.1159125676958 185.3447265625 338.55712890625 C180.00733182961778 336.5686877312546 176.89138832332327 333.65045242789654 174.3447265625 328.55712890625 C172.3598101443335 328.8238909453637 172.3598101443335 328.8238909453637 170.3447265625 329.55712890625 C170.01472656250002 330.54712890625 169.68472656249997 331.53712890625 169.3447265625 332.55712890625 C172.43055019869894 338.4716242089646 176.98772045785273 342.43812687136756 183.3447265625 344.55712890625 C192.43708671734004 345.4531450119773 197.9145186309987 343.5106008605842 205.3447265625 338.55712890625 C206.06660156249995 339.17587890625 206.78847656250002 339.79462890624995 207.5322265625 340.43212890625 C213.19529028429702 344.7108881627189 218.3729308139384 345.407347899977 225.3447265625 344.55712890625 C231.25551092679586 342.75105590604846 234.88430915139395 339.5904633224043 238.3447265625 334.55712890625 C239.3799778856502 332.4437176480187 239.3799778856502 332.4437176480187 239.3447265625 330.55712890625 C238.3547265625 329.56712890625 238.3547265625 329.56712890625 237.3447265625 328.55712890625 C235.31576818418011 328.4162489197697 235.31576818418011 328.4162489197697 233.3447265625 329.55712890625 C232.8909765625 330.50587890625 232.43722656249997 331.45462890625004 231.9697265625 332.43212890625 C229.92671831111284 336.36099092814845 228.50351996136396 337.1447085066359 224.3447265625 338.55712890625 C217.87712940546305 339.2757508125874 214.705494988111 338.1674423357431 209.3447265625 334.55712890625 C207.6051599782778 332.8175623220278 207.97282270695814 330.36346670165904 207.7822265625 327.99462890625 C207.69843749999995 326.98271484375005 207.61464843750002 325.97080078125 207.5283203125 324.92822265625 C207.46773437499996 324.14576171875 207.40714843749993 323.36330078125 207.3447265625 322.55712890625 C208.07304687500005 322.46302734375 208.80136718749998 322.36892578125 209.5517578125 322.27197265625 C212.7679972449656 321.4487952910175 214.47308094600135 320.20952541140423 217.0322265625 318.11962890625 C217.79921875000002 317.50216796875 218.56621093750005 316.88470703124995 219.3564453125 316.24853515625 C222.72364033525037 313.40691989440234 222.72364033525037 313.40691989440234 224.1572265625 309.24462890625 C224.5726535958412 305.63168055296455 224.5726535958412 305.63168055296455 223.3447265625 302.68212890625 C220.1172150158452 299.2528978879293 215.99453168289824 299.62809738700753 211.49560546875 299.4345703125 C208.21540903570713 299.3510081060075 204.93842147779515 299.32229329638426 201.6572265625 299.30712890625 C199.966298828125 299.27619140625006 199.966298828125 299.27619140625006 198.2412109375 299.24462890625 C197.15775390624998 299.23947265625 196.07429687500002 299.23431640624995 194.9580078125 299.22900390625 C193.97614501953126 299.21965820312494 192.99428222656252 299.2103125 191.982666015625 299.20068359375 C188.91923360058627 299.6146226336349 187.5610616014307 300.43631723207955 185.3447265625 302.55712890625 Z " fill="#000000" transform="translate(307.6552734375,241.44287109375)"/>
</svg>
