<?xml version="1.0" encoding="UTF-8"?>
<!-- Generator: visioncortex VTracer 0.6.4 -->
<svg version="1.1" xmlns="http://www.w3.org/2000/svg" width="1024" height="1024">
<path d="M0 0 C337.92 0 675.84 0 1024 0 C1024 337.92 1024 675.84 1024 1024 C686.08 1024 348.16 1024 0 1024 C0 686.08 0 348.16 0 0 Z " fill="#F9F9F6" transform="translate(0,0)"/>
<path d="M0 0 C2.844 1.879 2.844 1.879 5.5 4.562 C6.522 5.565 7.544 6.568 8.566 7.57 C9.111 8.117 9.655 8.664 10.215 9.228 C13.551 12.54 17.004 15.727 20.438 18.938 C21.112 19.576 21.786 20.214 22.48 20.871 C25.245 23.481 27.97 25.977 30.973 28.316 C31.642 28.872 32.311 29.428 33 30 C33 30.66 33 31.32 33 32 C33.531 32.202 34.062 32.405 34.609 32.613 C38.042 34.605 40.509 37.345 43.25 40.188 C47.992 45.019 52.791 49.668 58 54 C59.352 55.35 59.352 55.35 60.73 56.727 C64.209 59.145 65.693 59.409 69.824 58.777 C70.839 58.578 70.839 58.578 71.875 58.375 C73.227 58.154 74.578 57.932 75.93 57.711 C76.52 57.601 77.11 57.49 77.718 57.376 C84.075 56.328 90.247 55.833 96.68 55.797 C97.491 55.791 98.303 55.785 99.139 55.78 C100.852 55.77 102.565 55.764 104.277 55.76 C106.834 55.75 109.389 55.719 111.945 55.688 C121.242 55.63 130.057 56.177 139.184 58.033 C143.091 58.81 146.195 59.332 150 58 C152.013 56.664 152.013 56.664 153.812 54.906 C154.845 53.957 154.845 53.957 155.898 52.988 C156.592 52.332 157.285 51.676 158 51 C158.652 50.395 159.305 49.791 159.977 49.168 C161.995 47.29 163.999 45.397 166 43.5 C167.499 42.084 168.997 40.669 170.496 39.254 C171.247 38.544 171.999 37.834 172.773 37.102 C176.847 33.256 180.937 29.428 185.027 25.598 C188.472 22.372 191.913 19.141 195.348 15.902 C196.064 15.228 196.78 14.554 197.517 13.86 C198.879 12.578 200.239 11.294 201.598 10.01 C203.387 8.326 205.188 6.658 207 5 C207.544 4.498 208.088 3.996 208.649 3.479 C213.355 -0.683 213.355 -0.683 217.062 -0.5 C221.058 0.007 222.968 0.401 226 3 C229.205 8.439 230.76 14.386 232.52 20.402 C233.023 22.098 233.023 22.098 233.536 23.828 C234.258 26.263 234.977 28.698 235.694 31.134 C236.82 34.963 237.953 38.79 239.088 42.617 C241.399 50.409 243.7 58.204 246 66 C248.32 73.861 250.643 81.72 252.973 89.578 C253.859 92.572 254.74 95.567 255.62 98.562 C256.161 100.388 256.701 102.214 257.242 104.039 C257.479 104.85 257.716 105.661 257.96 106.497 C259.931 113.12 262.039 119.123 266.438 124.562 C270.589 130.108 273.931 135.987 277.25 142.062 C277.757 142.984 278.264 143.906 278.787 144.856 C287 160.085 287 160.085 287 166 C287.67 165.885 288.34 165.77 289.03 165.652 C295.987 164.459 302.946 163.276 309.906 162.1 C312.506 161.659 315.104 161.216 317.702 160.77 C321.432 160.13 325.163 159.5 328.895 158.871 C330.06 158.669 331.226 158.467 332.427 158.259 C333.508 158.079 334.589 157.898 335.702 157.713 C336.655 157.551 337.608 157.388 338.589 157.221 C341 157 341 157 344 158 C344.33 158.99 344.66 159.98 345 161 C340.315 164.447 335.442 165.096 329.844 166.043 C328.374 166.303 328.374 166.303 326.874 166.568 C324.808 166.932 322.74 167.29 320.671 167.644 C317.509 168.186 314.35 168.743 311.191 169.303 C309.18 169.655 307.168 170.005 305.156 170.355 C304.213 170.521 303.271 170.687 302.299 170.857 C301.415 171.008 300.53 171.158 299.619 171.313 C298.846 171.446 298.073 171.579 297.276 171.716 C294.829 172.021 292.463 172.048 290 172 C290.66 174.97 291.32 177.94 292 181 C292.893 180.919 293.787 180.838 294.707 180.754 C306.331 180.09 317.232 182.117 328.562 184.438 C329.363 184.601 330.164 184.764 330.99 184.932 C333.288 185.404 335.584 185.885 337.879 186.371 C338.582 186.519 339.286 186.667 340.01 186.82 C344.88 187.88 344.88 187.88 346 189 C346.041 190.666 346.043 192.334 346 194 C339.199 194.383 332.892 192.911 326.25 191.562 C315.124 189.386 304.327 188.152 293 188 C293.66 190.97 294.32 193.94 295 197 C296.039 196.99 297.079 196.979 298.149 196.968 C302.011 196.932 305.872 196.909 309.734 196.89 C311.404 196.88 313.074 196.866 314.745 196.849 C317.148 196.825 319.55 196.814 321.953 196.805 C322.698 196.794 323.443 196.784 324.211 196.773 C327.969 196.773 330.812 196.896 334 199 C333.125 202.875 333.125 202.875 332 204 C329.188 204.089 326.401 204.115 323.59 204.098 C322.748 204.096 321.906 204.095 321.038 204.093 C318.338 204.088 315.638 204.075 312.938 204.062 C311.111 204.057 309.285 204.053 307.459 204.049 C302.973 204.038 298.486 204.021 294 204 C294.006 204.751 294.012 205.503 294.018 206.277 C294.024 207.758 294.024 207.758 294.031 209.27 C294.037 210.248 294.043 211.226 294.049 212.234 C293.996 215.237 293.635 218.065 293 221 C294.258 221.351 295.516 221.701 296.812 222.062 C302.266 223.725 307.675 225.51 313.062 227.375 C313.92 227.655 314.778 227.935 315.661 228.223 C317.907 229.018 319.956 229.775 322 231 C323.059 233.727 323.059 233.727 323 236 C318.529 237.342 315.91 236.563 311.605 234.91 C310.403 234.456 309.201 234.001 307.963 233.533 C306.704 233.043 305.446 232.553 304.188 232.062 C302.91 231.575 301.632 231.089 300.354 230.604 C297.231 229.414 294.114 228.212 291 227 C290.825 227.631 290.65 228.262 290.469 228.913 C282.731 255.858 263.53 276.534 240 291 C239.103 291.554 238.207 292.108 237.283 292.678 C179.178 327.641 98.39 330.637 33.635 315.198 C26.673 313.388 19.822 311.28 13 309 C12.138 308.714 11.276 308.427 10.388 308.132 C-23.772 296.601 -55.401 276.957 -72.057 243.968 C-78 231.565 -78 231.565 -78 227 C-78.797 227.308 -79.594 227.616 -80.415 227.934 C-83.379 229.074 -86.346 230.204 -89.316 231.327 C-90.6 231.815 -91.882 232.307 -93.163 232.803 C-95.005 233.516 -96.854 234.213 -98.703 234.91 C-99.813 235.334 -100.924 235.759 -102.067 236.196 C-104.968 236.991 -106.248 237.08 -109 236 C-109 234.68 -109 233.36 -109 232 C-99.798 226.867 -89.897 223.516 -80 220 C-80.165 219.031 -80.33 218.061 -80.5 217.062 C-81 213 -81 213 -81 204 C-93.54 204 -106.08 204 -119 204 C-119.66 202.68 -120.32 201.36 -121 200 C-120.505 199.01 -120.505 199.01 -120 198 C-112.466 196.4 -104.227 196.901 -96.562 196.875 C-95.603 196.87 -94.644 196.866 -93.656 196.861 C-92.739 196.863 -91.823 196.865 -90.879 196.867 C-90.06 196.868 -89.241 196.869 -88.397 196.871 C-85.852 197.008 -83.484 197.444 -81 198 C-80.67 194.7 -80.34 191.4 -80 188 C-92.57 188.168 -104.508 189.788 -116.833 192.272 C-117.936 192.493 -119.039 192.714 -120.176 192.941 C-121.155 193.145 -122.133 193.348 -123.142 193.557 C-126.138 194.021 -128.973 194.076 -132 194 C-132.33 192.35 -132.66 190.7 -133 189 C-127.681 187.603 -122.349 186.277 -117 185 C-115.797 184.712 -115.797 184.712 -114.569 184.418 C-102.55 181.603 -91.336 180.464 -79 181 C-78.34 178.03 -77.68 175.06 -77 172 C-77.949 171.89 -78.898 171.781 -79.876 171.668 C-89.477 170.53 -98.995 169.085 -108.514 167.396 C-110.789 166.993 -113.066 166.602 -115.344 166.211 C-116.807 165.954 -118.271 165.696 -119.734 165.438 C-120.407 165.323 -121.08 165.208 -121.773 165.09 C-125.151 164.48 -128.031 163.748 -131 162 C-131 160.68 -131 159.36 -131 158 C-127.782 156.927 -126.5 157.062 -123.225 157.605 C-122.257 157.762 -121.289 157.919 -120.292 158.081 C-118.726 158.346 -118.726 158.346 -117.129 158.617 C-116.055 158.794 -114.981 158.97 -113.875 159.152 C-110.436 159.72 -106.999 160.298 -103.562 160.875 C-101.249 161.257 -98.936 161.639 -96.623 162.02 C-94.417 162.385 -92.21 162.751 -90.004 163.117 C-88.962 163.29 -87.92 163.463 -86.847 163.641 C-85.876 163.805 -84.905 163.968 -83.905 164.136 C-83.052 164.279 -82.199 164.422 -81.321 164.569 C-79.186 164.966 -77.1 165.447 -75 166 C-74.836 165.385 -74.673 164.769 -74.504 164.135 C-72.767 157.948 -70.49 152.458 -67.438 146.812 C-67.004 146 -66.571 145.187 -66.125 144.349 C-61.436 135.707 -56.143 127.327 -50.103 119.56 C-46.959 114.807 -45.704 109.255 -44.129 103.836 C-43.77 102.631 -43.411 101.425 -43.041 100.183 C-42.072 96.924 -41.113 93.663 -40.157 90.4 C-39.162 87.012 -38.156 83.628 -37.15 80.243 C-34.941 72.798 -32.747 65.348 -30.558 57.897 C-29.685 54.93 -28.811 51.962 -27.938 48.995 C-27.617 47.908 -27.297 46.821 -26.967 45.701 C-26.352 43.613 -25.737 41.525 -25.121 39.437 C-23.733 34.728 -22.348 30.019 -20.973 25.306 C-20.483 23.636 -19.994 21.967 -19.504 20.297 C-19.292 19.566 -19.08 18.835 -18.862 18.083 C-14.991 4.922 -14.991 4.922 -11.312 1.5 C-7.44 -0.254 -4.163 -0.686 0 0 Z " fill="#DC4B38" transform="translate(406,352)"/>
<path d="M0 0 C0.743 0 1.487 0.001 2.252 0.001 C3.823 0.004 5.393 0.012 6.963 0.025 C9.366 0.043 11.769 0.045 14.172 0.045 C15.698 0.05 17.224 0.056 18.75 0.062 C19.828 0.064 19.828 0.064 20.928 0.066 C24.013 0.095 26.425 0.247 29.375 1.23 C30.322 9.563 26.5 17.476 21.812 24.23 C19.375 27.23 19.375 27.23 17 29.043 C14.598 32.277 15.195 34.882 15.766 38.758 C16.895 43.339 19.019 46.167 22.688 49.043 C27.427 51.137 31.509 51.75 36.5 50.293 C40.669 48.579 42.232 45.925 44.172 41.973 C45.375 40.23 45.375 40.23 47.402 39.422 C49.375 39.23 49.375 39.23 51.188 40.293 C52.375 42.23 52.375 42.23 52.375 44.98 C50.661 50.552 47.87 54.603 42.812 57.605 C35.648 60.993 28.777 61.335 21.25 58.73 C15.929 56.436 12.753 52.839 9.375 48.23 C9.035 48.689 8.694 49.148 8.344 49.621 C3.691 55.512 -2.13 59.525 -9.754 60.504 C-17.454 60.825 -23.332 58.726 -29.328 53.844 C-33.027 49.964 -33.361 46.34 -33.625 41.23 C-31.975 40.57 -30.325 39.91 -28.625 39.23 C-28.006 40.153 -28.006 40.153 -27.375 41.094 C-24.071 45.719 -21.342 49.386 -15.738 50.996 C-10.478 51.58 -6.129 50.158 -1.688 47.418 C2.62 42.85 2.875 37.836 2.754 31.801 C2.189 27.968 0.311 26.656 -2.625 24.23 C-7.88 17.382 -11.481 11.13 -10.625 2.23 C-6.962 -0.211 -4.232 -0.042 0 0 Z " fill="#200C0B" transform="translate(503.625,548.76953125)"/>
<path d="M0 0 C4.797 2.398 7.637 5.183 10 10 C10.902 15.646 10.242 20.193 7 25 C3.32 28.404 0.735 29.869 -4.312 30.25 C-9.867 29.873 -12.776 28.143 -16.812 24.375 C-19.706 20.61 -20.277 16.671 -20 12 C-18.274 6.721 -15.362 4.181 -11 1 C-7.269 -0.244 -3.874 -0.522 0 0 Z " fill="#200C0B" transform="translate(448,497)"/>
<path d="M0 0 C3.62 2.333 5.89 4.968 7.812 8.812 C8.347 13.681 8.316 17.679 6.312 22.188 C2.609 26.076 -1.04 28.546 -6.496 29.008 C-12.071 28.688 -15.393 27.059 -19.188 22.812 C-21.729 18.676 -22.541 14.998 -21.812 10.188 C-20.452 5.241 -17.464 2.479 -13.188 -0.188 C-8.482 -1.756 -4.661 -1.736 0 0 Z " fill="#200C0B" transform="translate(589.1875,498.1875)"/>
<path d="M0 0 C14.222 -0.754 28.092 2.735 41.922 5.684 C42.622 5.832 43.322 5.98 44.043 6.132 C48.887 7.192 48.887 7.192 50.008 8.312 C50.048 9.979 50.051 11.646 50.008 13.312 C45.824 13.538 42.254 13.231 38.176 12.254 C14.455 6.681 -9.754 7.373 -33.992 7.312 C-35.055 5.438 -35.055 5.438 -35.992 3.312 C-35.662 2.653 -35.332 1.992 -34.992 1.312 C-26.898 1.01 -18.805 0.736 -10.709 0.502 C-7.133 0.395 -3.569 0.239 0 0 Z " fill="#301310" transform="translate(701.9921875,532.6875)"/>
<path d="M0 0 C2.269 0.068 4.539 0.135 6.809 0.199 C12.29 0.359 17.77 0.544 23.25 0.75 C23.745 2.235 23.745 2.235 24.25 3.75 C23.59 4.74 22.93 5.73 22.25 6.75 C20.293 7.115 20.293 7.115 17.862 7.103 C16.947 7.107 16.032 7.111 15.09 7.115 C13.593 7.1 13.593 7.1 12.066 7.086 C9.931 7.095 7.796 7.105 5.661 7.115 C3.981 7.117 3.981 7.117 2.267 7.118 C-16.555 7.155 -34.185 7.875 -52.529 12.297 C-55.3 12.862 -57.933 12.934 -60.75 12.75 C-61.08 11.1 -61.41 9.45 -61.75 7.75 C-57.252 6.569 -52.744 5.442 -48.223 4.351 C-46.661 3.971 -45.1 3.585 -43.542 3.189 C-28.898 -0.482 -15.019 -0.566 0 0 Z " fill="#2B110E" transform="translate(334.75,533.25)"/>
<path d="M0 0 C0.495 1.485 0.495 1.485 1 3 C-3.016 5.758 -6.501 6.702 -11.281 7.534 C-11.996 7.661 -12.71 7.788 -13.446 7.919 C-15.796 8.335 -18.148 8.736 -20.5 9.137 C-22.14 9.423 -23.78 9.71 -25.42 9.998 C-28.852 10.599 -32.285 11.192 -35.719 11.781 C-40.115 12.534 -44.51 13.3 -48.903 14.07 C-52.288 14.663 -55.673 15.252 -59.059 15.838 C-60.679 16.119 -62.3 16.401 -63.92 16.684 C-66.185 17.079 -68.452 17.467 -70.719 17.854 C-72.007 18.076 -73.296 18.298 -74.623 18.527 C-77.483 18.927 -80.121 19.101 -83 19 C-83.33 17.35 -83.66 15.7 -84 14 C-80.696 12.588 -77.61 11.614 -74.074 10.992 C-73.073 10.814 -72.071 10.635 -71.039 10.452 C-69.933 10.261 -68.827 10.071 -67.688 9.875 C-65.931 9.568 -65.931 9.568 -64.139 9.255 C-60.616 8.644 -57.092 8.04 -53.568 7.439 C-50.722 6.953 -47.878 6.462 -45.033 5.971 C-39.599 5.034 -34.164 4.106 -28.727 3.184 C-26.533 2.811 -24.339 2.436 -22.146 2.059 C-19.035 1.524 -15.922 0.999 -12.809 0.477 C-11.863 0.312 -10.917 0.148 -9.943 -0.021 C-9.072 -0.166 -8.2 -0.31 -7.302 -0.458 C-6.16 -0.652 -6.16 -0.652 -4.995 -0.85 C-3 -1 -3 -1 0 0 Z " fill="#2D110F" transform="translate(750,510)"/>
<path d="M0 0 C0.908 0.144 1.816 0.289 2.752 0.437 C3.744 0.601 4.735 0.766 5.757 0.935 C6.786 1.101 7.816 1.266 8.877 1.437 C12.238 1.979 15.597 2.531 18.956 3.083 C21.246 3.456 23.537 3.829 25.827 4.201 C31.429 5.114 37.029 6.035 42.628 6.961 C45.346 7.409 48.065 7.856 50.784 8.3 C54.864 8.968 58.942 9.648 63.018 10.333 C64.749 10.619 64.749 10.619 66.516 10.91 C67.555 11.089 68.595 11.267 69.667 11.451 C70.543 11.599 71.418 11.747 72.321 11.899 C74.666 12.464 76.54 13.292 78.643 14.458 C77.983 16.108 77.323 17.758 76.643 19.458 C60.871 17.326 45.183 14.773 29.499 12.07 C26.19 11.501 22.881 10.938 19.571 10.379 C16.374 9.837 13.179 9.286 9.983 8.736 C8.801 8.537 7.619 8.338 6.401 8.133 C5.308 7.942 4.215 7.752 3.088 7.556 C2.13 7.392 1.172 7.228 0.185 7.058 C-2.259 6.482 -4.175 5.683 -6.357 4.458 C-6.357 3.138 -6.357 1.818 -6.357 0.458 C-3.839 -0.8 -2.759 -0.448 0 0 Z " fill="#2C110F" transform="translate(281.356689453125,509.54150390625)"/>
<path d="M0 0 C0.625 1.875 0.625 1.875 1 4 C-1.827 6.827 -3.662 6.254 -7.621 6.259 C-8.301 6.262 -8.981 6.266 -9.681 6.269 C-11.933 6.278 -14.185 6.272 -16.438 6.266 C-17.999 6.267 -19.561 6.269 -21.123 6.271 C-24.398 6.274 -27.673 6.27 -30.948 6.261 C-35.152 6.249 -39.355 6.256 -43.559 6.268 C-46.784 6.275 -50.01 6.273 -53.235 6.268 C-54.786 6.266 -56.336 6.268 -57.886 6.273 C-60.05 6.278 -62.214 6.27 -64.379 6.259 C-66.229 6.256 -66.229 6.256 -68.115 6.254 C-71 6 -71 6 -73 4 C-72.625 1.875 -72.625 1.875 -72 0 C-63.794 -0.154 -55.587 -0.303 -47.381 -0.443 C-43.57 -0.508 -39.758 -0.576 -35.947 -0.648 C-32.264 -0.718 -28.582 -0.782 -24.899 -0.843 C-23.499 -0.867 -22.098 -0.893 -20.698 -0.921 C-13.697 -1.059 -6.921 -1.142 0 0 Z " fill="#260F0D" transform="translate(739,550)"/>
<path d="M0 0 C0.933 0.002 1.865 0.004 2.826 0.006 C18.95 0.097 35.072 0.651 51.188 1.125 C51.812 3 51.812 3 52.188 5.125 C50.188 7.125 50.188 7.125 47.29 7.366 C46.05 7.361 44.811 7.357 43.535 7.352 C42.852 7.352 42.169 7.353 41.465 7.353 C39.203 7.352 36.941 7.336 34.68 7.32 C33.113 7.317 31.547 7.314 29.98 7.312 C25.854 7.304 21.727 7.284 17.601 7.262 C13.391 7.242 9.182 7.233 4.973 7.223 C-3.289 7.201 -11.551 7.167 -19.812 7.125 C-20.875 5.25 -20.875 5.25 -21.812 3.125 C-21.483 2.465 -21.152 1.805 -20.812 1.125 C-14.029 -0.162 -6.888 -0.036 0 0 Z " fill="#2C110F" transform="translate(306.8125,548.875)"/>
<path d="M0 0 C0.495 0.392 0.99 0.784 1.5 1.188 C1.319 3.039 1.319 3.039 0.5 5.188 C-1.676 6.461 -1.676 6.461 -4.598 7.562 C-5.695 7.985 -6.792 8.407 -7.922 8.843 C-9.123 9.287 -10.325 9.73 -11.562 10.188 C-13.448 10.903 -15.334 11.618 -17.22 12.334 C-19.235 13.095 -21.252 13.848 -23.27 14.6 C-26.897 15.955 -30.51 17.346 -34.12 18.748 C-37.034 19.879 -39.952 21 -42.87 22.119 C-44.287 22.663 -45.703 23.211 -47.117 23.762 C-49.106 24.535 -51.099 25.292 -53.094 26.047 C-54.235 26.485 -55.377 26.923 -56.553 27.374 C-59.46 28.176 -60.743 28.28 -63.5 27.188 C-63.5 25.867 -63.5 24.548 -63.5 23.188 C-56.938 19.759 -50.352 16.838 -43.398 14.305 C-42.477 13.964 -41.556 13.623 -40.607 13.272 C-37.698 12.196 -34.787 11.129 -31.875 10.062 C-29.916 9.34 -27.958 8.618 -26 7.895 C-21.604 6.272 -17.208 4.651 -12.806 3.046 C-11.263 2.471 -9.727 1.878 -8.199 1.267 C-2.754 -0.895 -2.754 -0.895 0 0 Z " fill="#29100E" transform="translate(360.5,560.8125)"/>
<path d="M0 0 C8.495 0.218 15.796 3.358 23.562 6.5 C26.315 7.599 29.07 8.692 31.824 9.785 C32.511 10.059 33.198 10.333 33.905 10.615 C38.351 12.379 42.82 14.033 47.332 15.621 C48.442 16.016 49.552 16.41 50.695 16.816 C52.775 17.55 54.86 18.268 56.951 18.969 C57.872 19.297 58.793 19.626 59.742 19.965 C60.545 20.239 61.348 20.514 62.175 20.797 C64 22 64 22 64.766 24.627 C64.843 25.41 64.92 26.193 65 27 C60.862 28.164 58.468 27.79 54.465 26.305 C53.407 25.918 52.349 25.531 51.26 25.133 C50.163 24.718 49.067 24.303 47.938 23.875 C46.868 23.483 45.799 23.091 44.697 22.688 C38.39 20.355 32.179 17.842 25.984 15.228 C22.955 13.981 19.904 12.821 16.832 11.684 C15.838 11.312 14.843 10.94 13.818 10.557 C11.775 9.796 9.728 9.046 7.678 8.307 C6.207 7.751 6.207 7.751 4.707 7.184 C3.825 6.859 2.943 6.535 2.034 6.201 C0 5 0 5 -0.857 2.926 C-0.904 2.29 -0.951 1.655 -1 1 C-0.67 0.67 -0.34 0.34 0 0 Z " fill="#29100E" transform="translate(664,561)"/>
</svg>
