<?xml version="1.0" encoding="UTF-8"?>
<!-- Generator: visioncortex VTracer 0.6.4 -->
<svg version="1.1" xmlns="http://www.w3.org/2000/svg" width="1024" height="1024">
<path d="M0 0 C337.92 0 675.84 0 1024 0 C1024 337.92 1024 675.84 1024 1024 C686.08 1024 348.16 1024 0 1024 C0 686.08 0 348.16 0 0 Z " fill="#F9FBF3" transform="translate(0,0)"/>
<path d="M0 0 C8.886 4.443 15.417 13.334 21.5 20.938 C23.81 23.768 26.186 26.515 28.602 29.254 C35.544 37.135 41.991 45.309 48.285 53.714 C50.067 56.09 51.863 58.456 53.66 60.82 C65.303 76.181 76.413 91.894 87 108 C88.332 110.001 89.665 112.001 91 114 C97.798 113.323 104.246 111.808 110.875 110.188 C119.997 108.025 129.108 106.172 138.375 104.75 C139.346 104.599 140.316 104.449 141.316 104.294 C144.54 103.82 147.766 103.4 151 103 C151.698 102.913 152.397 102.826 153.116 102.736 C167.068 101.039 180.892 100.638 194.938 100.688 C196.01 100.689 197.083 100.691 198.188 100.693 C215.308 100.742 232.055 101.384 249 104 C250.188 104.182 251.376 104.364 252.6 104.552 C267.306 106.875 281.686 109.919 296 114 C297.332 114.338 298.665 114.672 300 115 C300.331 114.513 300.662 114.027 301.003 113.526 C312.186 97.1 323.505 80.825 335.504 64.984 C337.002 62.998 338.485 61.003 339.965 59.004 C354.292 39.679 369.462 19.536 387 3 C387.598 2.402 388.196 1.804 388.812 1.188 C392.132 -0.614 395.356 -0.531 399 0 C406.78 3.359 409.437 10.704 412.438 18.062 C412.862 19.095 413.287 20.128 413.724 21.193 C439.246 84.213 457.818 151.642 463.368 219.587 C463.86 225.216 465.266 229.205 468.562 233.75 C489.167 264.257 498.403 301.31 501.074 337.594 C501.209 339.39 501.209 339.39 501.347 341.222 C501.567 344.148 501.784 347.074 502 350 C502.805 349.991 503.611 349.982 504.441 349.973 C512.033 349.893 519.625 349.832 527.218 349.793 C531.121 349.772 535.024 349.744 538.927 349.698 C542.694 349.655 546.461 349.631 550.229 349.62 C551.666 349.613 553.103 349.599 554.539 349.577 C556.552 349.548 558.566 349.546 560.579 349.546 C561.725 349.537 562.871 349.528 564.051 349.519 C567.656 350.107 568.828 351.111 571 354 C571.438 357.062 571.438 357.062 571 360 C569.455 362.037 568.279 362.861 566 364 C563.938 364.12 561.872 364.177 559.806 364.205 C558.505 364.225 557.204 364.245 555.863 364.266 C554.437 364.283 553.012 364.3 551.586 364.316 C550.131 364.337 548.677 364.358 547.223 364.379 C543.392 364.435 539.562 364.484 535.731 364.532 C531.823 364.582 527.916 364.638 524.008 364.693 C516.339 364.801 508.669 364.902 501 365 C501.031 366.856 501.031 366.856 501.062 368.75 C501.072 374.53 500.545 380.25 500 386 C501.174 386.238 501.174 386.238 502.372 386.48 C509.745 387.974 517.117 389.474 524.487 390.981 C528.276 391.756 532.066 392.528 535.857 393.295 C539.515 394.035 543.172 394.781 546.828 395.532 C548.223 395.817 549.619 396.1 551.015 396.381 C552.97 396.774 554.923 397.177 556.876 397.58 C557.989 397.806 559.101 398.033 560.248 398.266 C563 399 563 399 566 401 C566.938 404.375 566.938 404.375 567 408 C565.5 410.438 565.5 410.438 563 412 C556.092 412.634 549.461 410.836 542.734 409.41 C540.829 409.014 540.829 409.014 538.885 408.61 C536.208 408.054 533.532 407.493 530.856 406.928 C527.429 406.205 524 405.489 520.57 404.776 C517.291 404.094 514.013 403.408 510.734 402.723 C509.503 402.465 508.272 402.208 507.003 401.943 C505.865 401.703 504.727 401.463 503.554 401.215 C502.551 401.004 501.549 400.793 500.516 400.576 C498 400 498 400 495 399 C494.938 400.052 494.876 401.104 494.812 402.188 C494.066 408.468 491.397 414.198 489 420 C489.533 420.159 490.066 420.317 490.615 420.48 C496.776 422.411 502.341 425.031 508.062 428 C517.322 432.737 526.7 437.129 536.231 441.295 C537.188 441.722 538.146 442.15 539.133 442.59 C540.4 443.145 540.4 443.145 541.692 443.711 C544.313 445.175 546.084 446.689 548 449 C547.935 452.186 547.519 454.18 545.812 456.875 C543.124 458.544 541.13 458.226 538 458 C535.069 456.905 535.069 456.905 531.984 455.359 C530.827 454.788 529.67 454.218 528.477 453.629 C527.869 453.323 527.261 453.016 526.635 452.7 C523.425 451.082 520.197 449.501 516.973 447.914 C516.315 447.589 515.657 447.264 514.98 446.929 C508.106 443.537 501.155 440.319 494.188 437.125 C493.061 436.608 491.935 436.091 490.774 435.558 C488.184 434.369 485.593 433.183 483 432 C482.64 433.226 482.64 433.226 482.273 434.477 C477.258 448.353 468.173 460.606 459 472 C458.54 472.576 458.08 473.152 457.605 473.745 C447.66 486.105 436.609 497.345 424 507 C423.185 507.629 423.185 507.629 422.354 508.271 C348.21 565.257 251.964 578.237 131.876 570.676 C80.688 563.877 29.237 549.031 -14 520 C-14.624 519.583 -15.247 519.166 -15.89 518.736 C-24.76 512.742 -32.964 506.063 -41 499 C-42.328 497.84 -42.328 497.84 -43.684 496.656 C-63.723 478.899 -79.452 458.184 -91 434 C-91 433.34 -91 432.68 -91 432 C-95.106 433.892 -99.21 435.789 -103.312 437.688 C-103.933 437.975 -104.554 438.262 -105.194 438.558 C-112.398 441.894 -119.585 445.262 -126.73 448.723 C-127.346 449.021 -127.962 449.319 -128.596 449.626 C-131.556 451.06 -134.512 452.501 -137.466 453.948 C-138.529 454.465 -139.592 454.983 -140.688 455.516 C-142.085 456.201 -142.085 456.201 -143.512 456.899 C-148.996 459.325 -148.996 459.325 -152.125 458.312 C-154.416 456.709 -155.162 455.667 -156 453 C-156.125 450.562 -156.125 450.562 -155 448 C-150.143 444.299 -144.508 441.631 -139.02 439.004 C-138.285 438.648 -137.55 438.292 -136.793 437.925 C-134.468 436.8 -132.14 435.681 -129.812 434.562 C-128.273 433.817 -126.733 433.072 -125.193 432.326 C-120.803 430.203 -116.404 428.095 -112 426 C-111.004 425.526 -111.004 425.526 -109.988 425.043 C-108.165 424.178 -106.339 423.321 -104.512 422.465 C-102.978 421.745 -102.978 421.745 -101.413 421.011 C-99 420 -99 420 -97 420 C-97.398 418.966 -97.398 418.966 -97.805 417.91 C-98.158 416.97 -98.511 416.031 -98.875 415.062 C-99.223 414.146 -99.571 413.229 -99.93 412.285 C-101.247 408.242 -102.14 404.161 -103 400 C-113.67 401.841 -124.299 403.832 -134.898 406.047 C-135.763 406.227 -136.627 406.407 -137.517 406.593 C-141.89 407.505 -146.261 408.425 -150.629 409.357 C-152.272 409.702 -153.915 410.046 -155.559 410.391 C-156.306 410.553 -157.053 410.715 -157.823 410.883 C-169.057 413.214 -169.057 413.214 -173.5 410.438 C-175 408 -175 408 -175.188 404.438 C-174 401 -174 401 -171.271 399.468 C-165.551 397.265 -159.473 396.268 -153.48 395.082 C-152.172 394.818 -150.864 394.553 -149.556 394.288 C-146.83 393.736 -144.103 393.189 -141.374 392.647 C-137.875 391.951 -134.377 391.246 -130.88 390.538 C-127.539 389.863 -124.197 389.191 -120.855 388.52 C-119.597 388.266 -118.339 388.013 -117.043 387.753 C-115.884 387.522 -114.726 387.292 -113.532 387.054 C-112.509 386.85 -111.487 386.646 -110.433 386.435 C-108 386 -108 386 -106 386 C-106.309 384.763 -106.619 383.525 -106.938 382.25 C-107.806 378.389 -108.265 374.617 -108.566 370.672 C-108.65 369.605 -108.733 368.539 -108.819 367.44 C-108.878 366.635 -108.938 365.83 -109 365 C-109.805 364.992 -110.611 364.984 -111.441 364.975 C-119.033 364.898 -126.625 364.81 -134.218 364.712 C-138.121 364.663 -142.024 364.616 -145.927 364.578 C-149.695 364.541 -153.462 364.495 -157.229 364.442 C-158.666 364.423 -160.102 364.408 -161.539 364.397 C-163.553 364.38 -165.566 364.35 -167.579 364.319 C-168.725 364.306 -169.871 364.292 -171.051 364.278 C-173.93 364.007 -175.609 363.59 -178 362 C-179.42 359.159 -179.315 357.145 -179 354 C-176.824 351.068 -175.664 350.098 -172.013 349.557 C-170.85 349.584 -169.686 349.61 -168.487 349.638 C-167.843 349.647 -167.199 349.656 -166.535 349.665 C-164.413 349.7 -162.293 349.764 -160.172 349.828 C-158.698 349.858 -157.224 349.886 -155.75 349.913 C-151.876 349.987 -148.003 350.085 -144.13 350.189 C-140.176 350.29 -136.221 350.369 -132.266 350.449 C-124.51 350.61 -116.755 350.797 -109 351 C-109.008 349.866 -109.016 348.733 -109.024 347.565 C-109.031 346.044 -109.037 344.524 -109.043 343.004 C-109.049 342.261 -109.054 341.517 -109.06 340.752 C-109.173 303.083 -95.809 262.236 -75 231 C-74.34 230.34 -73.68 229.68 -73 229 C-72.58 226.832 -72.27 224.642 -72.012 222.449 C-71.93 221.784 -71.849 221.118 -71.765 220.432 C-71.592 219.011 -71.422 217.589 -71.255 216.167 C-70.844 212.678 -70.401 209.192 -69.957 205.707 C-69.822 204.642 -69.822 204.642 -69.684 203.556 C-62.087 144.035 -47.269 85.738 -25 30 C-24.322 28.277 -24.322 28.277 -23.631 26.519 C-22.312 23.172 -20.973 19.835 -19.625 16.5 C-19.232 15.508 -18.84 14.516 -18.435 13.495 C-16.294 8.308 -14.43 4.521 -10 1 C-6.381 -0.206 -3.808 -0.323 0 0 Z " fill="#E95C4E" transform="translate(316,219)"/>
<path d="M0 0 C2.776 2.342 3.83 4.242 5 7.688 C5 12.689 4.58 14.783 1.875 19 C-1.399 22.061 -3.888 23.038 -8 24.688 C-8.1 28.956 -8.172 33.224 -8.22 37.493 C-8.24 38.942 -8.267 40.391 -8.302 41.839 C-8.681 53.374 -8.681 53.374 -4 63.688 C-1.152 65.464 -0.094 65.691 3.375 65.562 C8.303 64.373 11.6 62.861 14.414 58.492 C15.281 56.915 16.119 55.322 16.922 53.711 C18 51.688 18 51.688 20 49.688 C23.823 49.106 25.412 49.257 28.562 51.562 C30.467 55.703 29.884 57.782 28.375 61.988 C24.846 68.916 19.213 75.05 11.961 78.074 C5.436 80.115 -0.554 80.151 -7 77.688 C-12.36 74.624 -15.953 71.02 -19 65.688 C-19.516 66.389 -20.031 67.09 -20.562 67.812 C-25.756 73.938 -30.893 78.294 -39 79.688 C-46.288 80.066 -52.193 78.062 -58 73.688 C-63.307 68.679 -67.618 63.445 -68.375 56 C-68 52.688 -68 52.688 -66.875 50.75 C-64.065 49.158 -62.172 49.234 -59 49.688 C-55.614 52.177 -53.984 55.411 -51.992 59.008 C-49.917 62.521 -48.069 64.331 -44.188 65.625 C-39.965 65.708 -37.616 64.871 -34 62.688 C-31.323 57.68 -30.635 53.97 -30.707 48.223 C-30.713 47.205 -30.713 47.205 -30.72 46.168 C-30.737 44.028 -30.774 41.889 -30.812 39.75 C-30.828 38.288 -30.841 36.827 -30.854 35.365 C-30.886 31.806 -30.938 28.247 -31 24.688 C-31.543 24.501 -32.087 24.314 -32.647 24.121 C-33.363 23.866 -34.079 23.611 -34.816 23.348 C-35.525 23.099 -36.233 22.85 -36.963 22.594 C-40.626 20.964 -43.221 18.246 -45 14.688 C-45.679 9.838 -45.528 6.579 -43 2.312 C-31.481 -7.767 -13.081 -5.723 0 0 Z " fill="#221822" transform="translate(530,586.3125)"/>
<path d="M0 0 C8.036 6.591 12.161 13.124 13.688 23.438 C14.261 32.645 11.536 40.697 5.625 47.75 C-1.038 54.512 -8.866 58.219 -18.375 58.562 C-27.31 58.429 -35.927 54.504 -42.25 48.25 C-48.56 40.549 -50.761 33.23 -50.562 23.309 C-49.749 15.351 -45.907 7.883 -40.25 2.25 C-28.148 -6.887 -12.827 -9.155 0 0 Z " fill="#221822" transform="translate(662.25,524.75)"/>
<path d="M0 0 C6.26 5.325 10.55 12.371 11.473 20.602 C11.496 21.937 11.497 23.274 11.477 24.609 C11.468 25.312 11.46 26.014 11.451 26.738 C11.163 35.611 7.992 41.524 2.031 47.945 C-4.763 54.047 -13.154 57.275 -22.25 57.043 C-31.109 56.034 -38.673 51.972 -44.961 45.734 C-51.451 37.53 -52.931 29.029 -51.961 18.734 C-49.739 9.734 -44.921 2.334 -37.086 -2.641 C-24.471 -9.601 -11.632 -8.303 0 0 Z " fill="#221822" transform="translate(398.9609375,526.265625)"/>
<path d="M0 0 C1.469 0.004 1.469 0.004 2.967 0.008 C6.206 0.023 9.443 0.067 12.682 0.113 C14.931 0.133 17.18 0.152 19.429 0.169 C24.144 0.21 28.858 0.266 33.572 0.332 C39.618 0.415 45.664 0.462 51.71 0.499 C56.355 0.531 60.999 0.582 65.644 0.638 C67.873 0.663 70.103 0.682 72.332 0.695 C75.447 0.717 78.561 0.763 81.676 0.816 C82.6 0.818 83.523 0.819 84.475 0.82 C90.675 0.964 90.675 0.964 93.942 3.241 C95.338 5.426 95.338 5.426 95.338 8.988 C94.217 12.843 93.745 13.524 90.338 15.426 C87.407 15.772 87.407 15.772 83.952 15.732 C82.656 15.724 81.359 15.717 80.023 15.709 C78.603 15.685 77.184 15.661 75.764 15.637 C74.284 15.622 72.804 15.609 71.325 15.597 C68.224 15.57 65.124 15.533 62.024 15.489 C57.519 15.426 53.013 15.386 48.507 15.353 C42.012 15.301 35.517 15.228 29.022 15.138 C25.357 15.087 21.691 15.041 18.025 15.004 C14.375 14.967 10.726 14.921 7.076 14.868 C5.053 14.84 3.03 14.823 1.007 14.805 C-0.207 14.785 -1.422 14.765 -2.673 14.745 C-3.737 14.731 -4.801 14.718 -5.898 14.704 C-8.677 14.424 -10.338 13.947 -12.662 12.426 C-14.083 9.585 -13.977 7.571 -13.662 4.426 C-10.229 -0.833 -5.678 -0.107 0 0 Z " fill="#221822" transform="translate(150.662109375,568.57421875)"/>
<path d="M0 0 C2.571 0.104 2.571 0.104 4.946 1.729 C7.034 4.782 7.111 6.474 6.571 10.104 C5.025 12.141 3.849 12.965 1.571 14.104 C-0.348 14.225 -2.27 14.282 -4.191 14.31 C-5.406 14.33 -6.621 14.35 -7.872 14.37 C-9.216 14.387 -10.559 14.404 -11.902 14.421 C-13.3 14.441 -14.698 14.462 -16.096 14.484 C-19.052 14.528 -22.009 14.569 -24.966 14.607 C-28.647 14.655 -32.329 14.709 -36.01 14.765 C-43.26 14.875 -50.509 14.961 -57.76 15.027 C-62.327 15.072 -66.893 15.153 -71.459 15.257 C-74.509 15.322 -77.56 15.367 -80.61 15.408 C-82.056 15.432 -83.503 15.465 -84.949 15.507 C-86.949 15.564 -88.95 15.587 -90.951 15.608 C-92.085 15.631 -93.219 15.655 -94.387 15.679 C-98.425 14.916 -99.921 13.288 -102.429 10.104 C-102.497 6.719 -102.223 4.976 -99.925 2.452 C-96.166 0.422 -92.652 0.665 -88.442 0.672 C-87.534 0.662 -86.626 0.652 -85.691 0.641 C-82.69 0.611 -79.689 0.602 -76.687 0.593 C-74.6 0.576 -72.512 0.558 -70.425 0.538 C-64.927 0.491 -59.428 0.461 -53.93 0.435 C-48.345 0.405 -42.76 0.358 -37.176 0.313 C-29.009 0.249 -20.843 0.193 -12.676 0.149 C-11.825 0.144 -10.974 0.139 -10.097 0.134 C-8.553 0.127 -7.008 0.121 -5.464 0.118 C-3.642 0.106 -1.821 0.055 0 0 Z " fill="#221822" transform="translate(880.4294738769531,568.8956756591797)"/>
<path d="M0 0 C0.734 0.151 1.469 0.302 2.225 0.458 C4.636 0.957 7.044 1.465 9.452 1.973 C11.142 2.325 12.832 2.677 14.522 3.028 C18.06 3.764 21.597 4.505 25.133 5.25 C29.638 6.198 34.145 7.138 38.652 8.074 C42.143 8.8 45.633 9.529 49.122 10.259 C50.782 10.607 52.442 10.953 54.102 11.299 C59.18 12.357 64.249 13.448 69.312 14.579 C71.029 14.956 71.029 14.956 72.782 15.341 C73.775 15.58 74.768 15.819 75.791 16.066 C76.629 16.264 77.468 16.462 78.331 16.665 C80.312 17.579 80.312 17.579 81.606 19.478 C82.618 22.49 82.166 24.556 81.312 27.579 C76.225 30.97 71.38 29.671 65.637 28.573 C63.398 28.11 61.161 27.641 58.925 27.165 C57.714 26.913 56.503 26.661 55.255 26.401 C52.028 25.727 48.802 25.048 45.576 24.366 C42.401 23.696 39.224 23.034 36.048 22.372 C29.747 21.056 23.45 19.724 17.153 18.389 C13.864 17.695 10.573 17.009 7.281 16.327 C4.055 15.658 0.83 14.981 -2.396 14.305 C-4.185 13.938 -4.185 13.938 -6.011 13.564 C-7.657 13.217 -7.657 13.217 -9.336 12.863 C-10.301 12.662 -11.265 12.462 -12.259 12.256 C-14.688 11.579 -14.688 11.579 -17.688 9.579 C-18.626 6.204 -18.626 6.204 -18.688 2.579 C-14.586 -4.088 -6.55 -1.401 0 0 Z " fill="#221822" transform="translate(800.6884765625,601.421142578125)"/>
<path d="M0 0 C1.5 2.375 1.5 2.375 1.562 5.375 C0.22 9.164 -1.17 10.158 -4.5 12.375 C-7.888 13.412 -7.888 13.412 -11.81 14.174 C-12.527 14.318 -13.245 14.462 -13.985 14.61 C-16.347 15.079 -18.712 15.528 -21.078 15.977 C-22.731 16.301 -24.384 16.627 -26.037 16.954 C-30.384 17.811 -34.734 18.651 -39.086 19.487 C-43.49 20.335 -47.891 21.199 -52.293 22.062 C-57.252 23.035 -62.212 24.006 -67.174 24.964 C-76.022 26.666 -76.022 26.666 -84.831 28.56 C-93.665 30.522 -93.665 30.522 -98 27.812 C-99.5 25.375 -99.5 25.375 -99.688 21.812 C-98.5 18.375 -98.5 18.375 -95.725 16.832 C-90.249 14.723 -84.459 13.756 -78.719 12.633 C-76.851 12.257 -76.851 12.257 -74.946 11.874 C-71.635 11.21 -68.323 10.552 -65.01 9.898 C-60.427 8.991 -55.846 8.072 -51.265 7.155 C-48.7 6.642 -46.135 6.13 -43.569 5.62 C-37.603 4.427 -31.649 3.203 -25.711 1.878 C-24.662 1.644 -23.614 1.41 -22.534 1.169 C-20.601 0.733 -18.67 0.291 -16.741 -0.159 C-4.503 -2.927 -4.503 -2.927 0 0 Z " fill="#221822" transform="translate(240.5,601.625)"/>
<path d="M0 0 C2.741 1.379 5.474 2.774 8.205 4.174 C13.19 6.723 18.19 9.244 23.192 11.758 C24.291 12.312 25.391 12.865 26.523 13.436 C35.284 17.816 44.15 21.927 53.128 25.844 C54.532 26.468 54.532 26.468 55.966 27.106 C56.785 27.463 57.604 27.82 58.448 28.188 C61.039 29.64 62.794 31.163 64.692 33.446 C64.627 36.632 64.211 38.626 62.505 41.321 C59.814 42.991 57.825 42.673 54.692 42.446 C51.714 41.335 51.714 41.335 48.571 39.77 C47.4 39.195 46.229 38.62 45.023 38.027 C43.767 37.396 42.511 36.765 41.255 36.133 C39.949 35.488 38.643 34.845 37.336 34.202 C34.697 32.904 32.06 31.6 29.426 30.292 C24.266 27.735 19.076 25.241 13.88 22.758 C12.973 22.323 12.065 21.887 11.131 21.439 C6.125 19.045 1.096 16.711 -3.96 14.426 C-5.062 13.928 -6.164 13.429 -7.299 12.915 C-9.424 11.957 -11.551 11.005 -13.682 10.06 C-14.636 9.631 -15.59 9.201 -16.573 8.758 C-17.417 8.383 -18.26 8.008 -19.129 7.622 C-21.34 6.428 -22.765 5.424 -24.308 3.446 C-24.958 -2.625 -24.958 -2.625 -22.995 -5.429 C-16.199 -9.96 -6.543 -3.235 0 0 Z " fill="#231822" transform="translate(799.307861328125,634.55419921875)"/>
<path d="M0 0 C1.783 2.249 1.979 3.588 2.125 6.438 C-0.483 12.378 -9.249 15.255 -14.891 17.969 C-15.625 18.326 -16.36 18.684 -17.117 19.052 C-19.492 20.206 -21.871 21.354 -24.25 22.5 C-25.903 23.3 -27.557 24.101 -29.21 24.901 C-39.337 29.794 -49.492 34.627 -59.688 39.375 C-60.794 39.891 -61.901 40.408 -63.042 40.939 C-66.019 42.315 -69.006 43.664 -72 45 C-73.407 45.646 -73.407 45.646 -74.842 46.306 C-76.168 46.885 -76.168 46.885 -77.52 47.477 C-78.29 47.82 -79.061 48.164 -79.855 48.518 C-82 49 -82 49 -84.198 48.208 C-86.477 46.68 -87.178 45.616 -88 43 C-88.125 40.562 -88.125 40.562 -87 38 C-79.616 32.788 -71.313 29.144 -63.188 25.25 C-61.652 24.51 -60.117 23.77 -58.582 23.029 C-56.188 21.874 -53.794 20.72 -51.4 19.567 C-45.598 16.775 -39.806 13.963 -34.02 11.141 C-32.408 10.355 -30.796 9.57 -29.185 8.784 C-26.852 7.647 -24.52 6.51 -22.188 5.371 C-20.032 4.318 -17.876 3.268 -15.719 2.219 C-15.08 1.906 -14.441 1.593 -13.782 1.271 C-8.331 -1.377 -5.735 -2.563 0 0 Z " fill="#221822" transform="translate(248,629)"/>
</svg>
