<?xml version="1.0" encoding="UTF-8"?>
<!-- Generator: visioncortex VTracer 0.6.4 -->
<svg version="1.1" xmlns="http://www.w3.org/2000/svg" width="1024" height="1024">
<path d="M0 0 C4.987817326544473 4.17584706408374 7.420957498655184 8.34109186149616 9.2265625 14.53125 C9.437294006347656 15.230364990234378 9.648025512695313 15.929479980468756 9.865142822265625 16.6497802734375 C11.88570653507179 23.554569765904233 13.316422617238572 30.54844460846357 14.654144287109375 37.61175537109375 C20.105073355222657 66.15407628032528 29.609057780400917 93.31203931247649 38.88134765625 120.78759765625 C51.250955725679205 157.59321767218657 59.32058485897903 195.55827609502006 62.6875 234.25 C62.78176269531252 235.2424169921875 62.876025390625045 236.23483398437497 62.97314453125 237.25732421875 C63.982733108182856 249.15024153378232 63.930246658227816 261.0721994560014 63.9375 273 C63.938507080078125 274.150397644043 63.93951416015625 275.30079528808596 63.9405517578125 276.4860534667969 C63.92909255097379 295.9102516470818 63.097512261085626 314.97504601432735 60.6875 334.25 C60.470695800781186 336.0303564453125 60.470695800781186 336.0303564453125 60.24951171875 337.8466796875 C51.72589507007024 405.9034637816095 27.226193497356917 473.05136216026744 -15.3125 527.25 C-16.040820312500045 528.191015625 -16.769140624999977 529.13203125 -17.51953125 530.1015625 C-21.490237597859505 535.1608845921444 -25.67872227556404 539.9823080085916 -30.015625 544.73046875 C-31.58231739243422 546.449034384558 -33.13385743791116 548.1815063658429 -34.671875 549.92578125 C-38.64976201697266 554.4309385259338 -42.54473406518912 558.5824877424532 -47.3125 562.25 C-46.66163729229015 565.3256197690977 -45.61145953065727 567.8339070049265 -44.16015625 570.6171875 C-31.674903442586697 595.1939011848937 -24.298741514522135 620.8712586233647 -18.79248046875 647.79248046875 C-16.172392723285043 660.5703655079348 -12.649849644360756 675.3244509028207 -1.3125 683.25 C6.761499700515628 687.9589372421116 13.136294829144958 690.4070828805137 22.5 690.3125 C24.242167968749982 690.29896484375 24.242167968749982 690.29896484375 26.01953125 690.28515625 C26.899960937500055 690.2735546875 27.780390624999995 690.261953125 28.6875 690.25 C25.50203734477634 694.9106641902126 22.205166331004193 696.9479624542166 17.25 699.3125 C16.200058593749986 699.8268359374999 16.200058593749986 699.8268359374999 15.12890625 700.3515625 C8.831790363162668 703.3518188011562 2.4425236159443102 705.4918431684529 -4.3125 707.25 C6.238068787413567 715.4329214611042 16.593457779097662 721.311573202396 29.6875 724.25 C26.2033692620181 729.4761961069728 19.485095252591464 730.578577139378 13.5625 732 C3.5495689655173237 732.8706896551724 3.5495689655173237 732.8706896551724 -1.3125 731.25 C-1.351171875000091 732.3792187500001 -1.351171875000091 732.3792187500001 -1.390625 733.53125 C-2.9449623546623798 762.6397495509509 -17.210224851147814 786.0372370795569 -37.3125 806.25 C-38.01947021484375 806.9630126953125 -38.01947021484375 806.9630126953125 -38.74072265625 807.6904296875 C-51.199306671235036 820.0753455535269 -66.08626173349614 829.6266863536147 -81.3125 838.25 C-82.20437011718741 838.7597436523438 -82.20437011718741 838.7597436523438 -83.1142578125 839.27978515625 C-127.44215792956982 864.4261875286844 -179.28384230809388 874.4657306817351 -229.8125 874.5 C-230.71267852783205 874.5006747436523 -231.6128570556641 874.5013494873047 -232.54031372070313 874.5020446777344 C-300.7999709870709 874.4213068807621 -372.2054687630673 854.4704713259036 -422.3125 806.25 C-423.0034375 805.6222265625 -423.69437500000004 804.994453125 -424.40625 804.34765625 C-444.1889301897813 785.8216627116187 -460.93606072808507 755.8298685739232 -462.4736328125 728.37255859375 C-462.51951014602844 725.1232697737299 -462.54774592479237 721.8745850644822 -462.5625 718.625 C-462.583125 717.5125390625 -462.60375 716.400078125 -462.625 715.25390625 C-462.66108870128517 707.5038576490062 -461.5416189375385 700.6686288622604 -459.3125 693.25 C-460.05403320312496 693.07146484375 -460.79556640625003 692.8929296875 -461.5595703125 692.708984375 C-472.9073517129318 689.9173711133553 -480.93885611959195 685.4011557579818 -489.3125 677.25 C-488.98249999999996 676.59 -488.65250000000003 675.93 -488.3125 675.25 C-486.75015625000003 675.319609375 -486.75015625000003 675.319609375 -485.15625 675.390625 C-472.83266862498056 675.7643302180013 -461.7393187757747 674.0911331454618 -450.3125 669.25 C-451.0279296875 668.6841015625 -451.743359375 668.118203125 -452.48046875 667.53515625 C-460.9602688793276 660.6928347663356 -468.6183834601493 653.6477396187794 -474.3125 644.25 C-474.3125 643.59 -474.3125 642.93 -474.3125 642.25 C-471.03644744543647 643.3147170802332 -467.9425572395635 644.4217591387741 -464.8125 645.875 C-457.28017301505986 648.6888003104661 -448.3735118152026 648.3610982043258 -440.875 645.625 C-431.20308263575464 641.0585865558973 -426.9464384432513 634.4928349965238 -423.339599609375 624.57470703125 C-422.42811669122216 621.766053082288 -421.5545655193044 618.947665028408 -420.6875 616.125 C-407.583865328171 575.2878929208837 -382.78427919228193 536.1557173052192 -347.3125 511.25 C-351.1088978076862 506.67882712952064 -355.0662802444626 502.44425222339146 -359.3251953125 498.302978515625 C-366.83961787994025 490.9935407577815 -373.74678207171684 483.56407124376847 -379.94384765625 475.1103515625 C-381.42527340796494 473.09671185003697 -382.93684041731274 471.10766660533454 -384.44921875 469.1171875 C-409.1116293391821 436.2706897881014 -424.028082347537 398.68049034841016 -434.3125 359.25 C-436.9454442809432 359.25 -438.19694002400604 360.2037070459776 -440.4765625 361.5234375 C-479.14149525328855 383.501095175961 -530.2498624105697 402.5764356671046 -575.345458984375 391.222412109375 C-589.9651156837392 386.97527257744133 -603.4249142815382 379.3019016789722 -611.8125 366.25 C-612.6880756808152 364.60513239153204 -613.5244994606858 362.9385725842447 -614.3125 361.25 C-614.650234375 360.541015625 -614.9879687499999 359.83203125 -615.3359375 359.1015625 C-623.0992087437344 338.8031009911533 -614.603517334805 313.0627383544106 -606.3125 294.25 C-600.1759635993054 281.0941667328963 -593.3071915701785 268.6571750707893 -584.3125 257.25 C-583.57515625 256.303828125 -582.8378124999999 255.35765625 -582.078125 254.3828125 C-564.9094652954185 232.89154698327212 -544.8424080858993 216.34757263674658 -521.3125 202.25 C-520.68150390625 201.871015625 -520.0505078125 201.49203125 -519.400390625 201.1015625 C-476.0007570370885 175.47602968227645 -421.32138584168035 167.1166459369445 -372.5 179.5 C-353.35421990479466 184.71976729962827 -336.42701469163046 193.35988558374157 -321.3125 206.25 C-320.753046875 206.68828125 -320.19359375 207.12656249999998 -319.6171875 207.578125 C-315.2683370096032 210.99345261025928 -311.85909798570094 215.04505149000727 -308.3125 219.25 C-307.23548828125 220.46042968749998 -307.23548828125 220.46042968749998 -306.13671875 221.6953125 C-258.46756610415065 276.4641261782099 -239.05221781409284 354.3585581850166 -239.125 425.5 C-239.1246072387696 426.3200653076172 -239.124214477539 427.1401306152344 -239.12380981445313 427.98504638671875 C-239.14478014245537 464.77592524650777 -239.14478014245537 464.77592524650777 -242.3125 476.25 C-241.65249999999992 475.9200000000001 -240.99250000000006 475.5899999999999 -240.3125 475.25 C-237.65576191961213 475.15170936372886 -235.03115150253348 475.1109833693797 -232.375 475.125 C-231.64603515625004 475.12113281250004 -230.91707031250007 475.1172656250001 -230.166015625 475.11328125 C-226.95392263636438 475.1191695964503 -224.3803555984482 475.22738146718393 -221.3125 476.25 C-221.43367187500007 475.3528125 -221.55484374999992 474.45562500000005 -221.6796875 473.53125 C-222.13114315540201 470.16964173515976 -222.577859399933 466.8074713511878 -223.021484375 463.44482421875 C-223.2136286606194 461.9956823330797 -223.40760280811628 460.54678175273807 -223.603515625 459.09814453125 C-223.88645134149215 457.0035540994642 -224.16257008767502 454.90815450411054 -224.4375 452.8125 C-224.60507812499998 451.5556640625 -224.77265624999995 450.298828125 -224.9453125 449.00390625 C-225.3331294362672 445.0390969334808 -225.37420680648142 441.2300890180524 -225.3125 437.25 C-213.84246173357815 439.8969319076358 -204.22609217085346 450.9699489944932 -198.0625 460.4375 C-194.30491005348995 466.7543933352748 -192.08109753824635 473.14070331665437 -190.3125 480.25 C-188.29229766351273 477.2196964952691 -187.6876217402836 475.2446101560388 -186.875 471.7421875 C-186.619765625 470.6735546875 -186.36453125000003 469.60492187499995 -186.1015625 468.50390625 C-185.5737906052418 466.2438929382877 -185.04775994188367 463.983472323667 -184.5234375 461.72265625 C-184.268203125 460.6566015625 -184.01296875000003 459.590546875 -183.75 458.4921875 C-183.40775390625004 457.0204809570313 -183.40775390625004 457.0204809570313 -183.05859375 455.51904296875 C-182.8123828125 454.7702587890625 -182.566171875 454.021474609375 -182.3125 453.25 C-181.65249999999992 452.92 -180.99250000000006 452.59 -180.3125 452.25 C-172.02252224435222 462.61844480101195 -167.61143477493306 473.93381457116027 -167.3125 487.25 C-166.05437499999994 487.51812500000005 -164.79625 487.78625 -163.5 488.0625 C-159.79778774605688 488.8817550016887 -156.1438169411997 489.8172221256318 -152.48828125 490.82421875 C-151.5141528320312 491.0919409179687 -150.5400244140625 491.3596630859374 -149.536376953125 491.635498046875 C-148.8024975585938 491.83828369140633 -148.0686181640625 492.04106933593744 -147.3125 492.25 C-147.34564300537113 491.5687455749512 -147.37878601074226 490.8874911499024 -147.41293334960938 490.1855926513672 C-147.51492099107418 488.08869588360426 -147.61687111433525 485.9917972909093 -147.7187957763672 483.8948974609375 C-147.84048354766833 481.391476225132 -147.96224060644704 478.888058356501 -148.0840606689453 476.3846435546875 C-148.42530922308242 469.3643972474167 -148.76418025226485 462.34404810810474 -149.098876953125 455.323486328125 C-149.2363289303977 452.44481645959013 -149.37396632519335 449.56615550618517 -149.51171875 446.6875 C-149.5630883312225 445.61311203956603 -149.5630883312225 445.61311203956603 -149.6154956817627 444.5170192718506 C-150.03009316944292 435.8635810894435 -150.47006205737216 427.2122132948373 -150.95703125 418.5625 C-153.1634238104973 378.6331439861066 -154.17589283335928 338.1025824488129 -150.3125 298.25 C-150.24697937011717 297.56580993652346 -150.18145874023435 296.8816198730469 -150.11395263671875 296.17669677734375 C-148.10859555574257 275.37471800391035 -145.2885829249642 254.77573230478203 -141.3125 234.25 C-140.98427246093752 232.54916259765628 -140.98427246093752 232.54916259765628 -140.6494140625 230.81396484375 C-125.71150953859933 154.72604622745155 -96.62318877367557 76.10289122691141 -42.3125 19.25 C-41.853432617187536 18.763701171875 -41.39436523437496 18.277402343749998 -40.92138671875 17.7763671875 C-30.628673925804833 6.910435013091394 -15.910928386922592 -8.405773487430785 0 0 Z M-346.5625 592.0625 C-355.647505065799 605.1741001088125 -358.93546169105525 619.4701646204556 -357.3125 635.25 C-355.2918209438811 646.0497874976753 -350.709875551218 654.1238526754989 -342.15234375 660.99609375 C-336.03749748857507 665.1635367434552 -329.60052231388335 666.2025378708115 -322.3125 665.25 C-312.26540893388574 662.9025488163285 -304.5167102064736 656.0714964706771 -298.9375 647.5625 C-291.4622782509894 633.7163506239917 -289.71393566610885 617.2978886784746 -293.9375 602.125 C-297.2456644478028 592.9898230862426 -302.49485747651784 584.8714439158939 -311.25390625 580.21875 C-324.87921571906895 574.4593236882214 -337.90254860712827 581.1212826391851 -346.5625 592.0625 Z M-153.91015625 603.45703125 C-164.75928290757702 616.0702435429555 -166.41662522759646 631.2675140322177 -165.3125 647.25 C-163.74274427469322 658.8846600816852 -158.5999088209992 669.8402629623768 -149.3125 677.25 C-141.64923218108038 682.5144717999721 -134.45006958677618 683.0178629904854 -125.3125 682.25 C-116.96814198784705 679.9452355573754 -109.64173063615021 672.9199451946532 -105.40625 665.55078125 C-102.02841412169016 658.4452622059839 -99.81872268658265 651.0964516420307 -99.3125 643.25 C-99.24933593750006 642.541015625 -99.18617187500001 641.83203125 -99.12109375 641.1015625 C-98.40823595491827 627.2583240277685 -103.41121897064818 613.9758887987073 -112.125 603.4375 C-116.82096310851114 598.3413127629226 -122.64913613520298 594.641752699466 -129.73046875 594.046875 C-140.22271514266072 593.8692911400396 -146.20842834511222 596.1825178359843 -153.91015625 603.45703125 Z M-265.3125 649.25 C-265.54855093674 654.7971970133897 -263.7537020293585 657.2729831268425 -260.0625 661.375 C-258.49344490275035 663.0137908793496 -256.9113358843784 664.6402505600969 -255.3125 666.25 C-254.783984375 666.804296875 -254.25546874999998 667.35859375 -253.7109375 667.9296875 C-251.68107308427756 670.0342708512704 -249.76342171203777 671.6160521919749 -247.3125 673.25 C-241.7940837976032 673.1008536161514 -238.47975419639056 670.6407483025753 -234.25 667.4375 C-233.35184570312504 666.779111328125 -233.35184570312504 666.779111328125 -232.435546875 666.107421875 C-230.71427307414183 664.8386187337322 -229.012051217548 663.5476906609291 -227.3125 662.25 C-226.35601562500005 661.5345703125 -225.39953125 660.819140625 -224.4140625 660.08203125 C-222.09256836398083 658.4226893764899 -222.09256836398083 658.4226893764899 -221.75 655.75 C-222.49388006089725 652.443866396012 -223.73048992913618 651.4252257313414 -226.3125 649.25 C-236.06057262325055 644.9819249595498 -256.60086766983545 640.5383676698355 -265.3125 649.25 Z M-255.375 699.5 C-264.15576647258143 706.3991736570283 -272.27596006693716 708.056860547777 -283.3125 709.25 C-282.75200064078246 715.8111395578993 -281.5525881027888 721.7723793798588 -279.625 728.0625 C-279.35808349609374 728.9354370117187 -279.0911669921875 729.8083740234375 -278.816162109375 730.707763671875 C-275.08662568564944 742.5269021417796 -270.6657360949507 753.5406718444058 -259.1875 759.625 C-256.2800751322408 761.0123604140759 -253.48216676825098 761.6906470408969 -250.3125 762.25 C-249.08453779560284 740.2544535994283 -249.2087118769096 718.2706462390764 -249.3125 696.25 C-252.18834582858165 696.25 -253.1918584838321 697.6672392209948 -255.375 699.5 Z M-246.3125 698.25 C-247.15628080860893 719.5936150815938 -247.44608488655308 740.890804216209 -247.3125 762.25 C-245.4221803273955 762.302761023275 -243.53142674701633 762.3400946581971 -241.640625 762.37109375 C-240.06136230468746 762.4048107910156 -240.06136230468746 762.4048107910156 -238.4501953125 762.439208984375 C-231.38474006118304 762.013148618691 -226.05115248656557 758.3768513579519 -221.1875 753.4375 C-213.71508258010397 744.3530893060538 -203.3125 726.1320083313242 -203.3125 714.25 C-204.859375 714.3428125 -204.859375 714.3428125 -206.4375 714.4375 C-219.3719971436965 714.3916329888522 -231.405893548069 710.1690678712514 -241.03515625 701.58203125 C-242.3125 700.25 -242.3125 700.25 -243.3125 698.25 C-244.3025 698.25 -245.29250000000002 698.25 -246.3125 698.25 Z " fill="#000000" transform="translate(754.3125,51.75)"/>
<path d="M0 0 C1.9420201124735854 0.9761841773179185 3.8322257163730455 1.9932175810307626 5.69921875 3.10546875 C5.039218750000032 3.765468749999968 4.379218750000007 4.42546875000005 3.69921875 5.10546875 C2.709218749999991 5.10546875 1.7192187499999818 5.10546875 0.69921875 5.10546875 C0.6579687500000091 6.384218749999945 0.6167187500000182 7.6629687500000045 0.57421875 8.98046875 C0.5510156249999909 9.699765625000055 0.5278124999999818 10.419062499999995 0.50390625 11.16015625 C0.5159018649694644 13.344105200785748 0.5159018649694644 13.344105200785748 2.69921875 15.10546875 C4.909948523197727 15.34800688107407 4.909948523197727 15.34800688107407 7.32421875 15.23046875 C8.141484375000005 15.212421875000018 8.958750000000009 15.194375000000036 9.80078125 15.17578125 C10.740507812500027 15.140976562499986 10.740507812500027 15.140976562499986 11.69921875 15.10546875 C12.256414518960469 24.39206489934088 12.549537853076629 32.36569252033155 6.69921875 40.10546875 C1.7481607705061037 45.355131393626834 -2.1410910297986447 48.20099797811474 -9.48828125 48.54296875 C-14.724589126144167 48.48063175147445 -17.722098039676894 47.377892104976695 -21.64453125 43.9296875 C-27.13815241525873 37.87893022600042 -28.381205295765994 31.136384177202444 -28.30078125 23.10546875 C-27.704703324447223 15.356455717813787 -24.28217301122595 8.64823260532819 -18.45703125 3.46484375 C-12.800882889688978 -0.7053673292123221 -6.740390582715293 -2.6206272384411022 0 0 Z " fill="#000000" transform="translate(445.30078125,645.89453125)"/>
<path d="M0 0 C0.7837500000000546 0.49500000000000455 1.5674999999999955 0.9900000000000091 2.375 1.5 C2.375 2.159999999999968 2.375 2.82000000000005 2.375 3.5 C1.7356250000000273 3.72687499999995 1.0962500000000546 3.9537500000000136 0.4375 4.1875 C-1.8459478194107533 5.353389764690064 -1.8459478194107533 5.353389764690064 -2.5625 7.9375 C-2.885149587099022 10.494956251146391 -2.885149587099022 10.494956251146391 -1.421875 12.1484375 C0.8904416543764455 13.88770176611797 2.203901041476456 13.81178691124012 5.0625 13.6875 C6.274863281249964 13.646894531250041 6.274863281249964 13.646894531250041 7.51171875 13.60546875 C8.126601562500014 13.570664062499986 8.741484375000027 13.535859374999973 9.375 13.5 C10.97662564393329 23.30272080865177 10.431638696517894 32.60917357259211 4.625 41 C0.770674970536902 45.56808892380809 -3.018530764102138 48.12087720205125 -9.0625 49 C-16.07126683529907 48.01631342662472 -21.03082852895875 44.98828047501763 -25.37109375 39.40625 C-29.699613968403355 32.825820509094 -30.444141524533507 26.27077500300686 -29.625 18.5 C-28.10906636103016 11.491553176356547 -25.393268430633952 5.590325141499079 -19.5625 1.1875 C-13.31855464854857 -2.3994473295572334 -6.641480699932799 -2.748198910317001 0 0 Z " fill="#000000" transform="translate(625.625,660.5)"/>
</svg>
