<?xml version="1.0" encoding="UTF-8"?>
<!-- Generator: visioncortex VTracer 0.6.4 -->
<svg version="1.1" xmlns="http://www.w3.org/2000/svg" width="1024" height="1024">
<path d="M0 0 C337.92 0 675.84 0 1024 0 C1024 337.92 1024 675.84 1024 1024 C686.08 1024 348.16 1024 0 1024 C0 686.08 0 348.16 0 0 Z " fill="#E7E6E4" transform="translate(0,0)"/>
<path d="M0 0 C5.884 3.832 7.083 8.322 8.593 14.951 C19.737 71.084 4.329 133.575 -26.875 180.688 C-32.115 188.475 -37.661 195.927 -43.561 203.221 C-59.466 221.477 -59.466 221.477 -66 244 C-65.343 246.689 -64.643 249.058 -63.688 251.625 C-56.668 272.223 -57.402 293.405 -67 313 C-67.558 314.043 -68.116 315.086 -68.691 316.16 C-71.902 322.113 -71.902 322.113 -73.438 328.625 C-67.371 342.868 -51.399 351.236 -37.789 356.905 C-22.356 362.963 -6.396 367.685 9.562 372.125 C35.561 379.393 58.415 389.697 80 406 C80.936 406.691 81.872 407.382 82.836 408.094 C97.939 419.805 111.323 434.181 122 450 C122.71 451.038 123.421 452.075 124.152 453.145 C140.145 477.814 150.212 506.482 150.188 536 C150.187 536.906 150.187 537.811 150.187 538.744 C150.103 548.923 149.127 559.036 147 569 C147.75 568.518 148.5 568.036 149.273 567.539 C155.789 563.518 161.354 560.829 169 560 C174.985 566.951 174.578 574.122 174.179 582.927 C173.013 596.42 165.815 608.126 156 617 C154.994 617.994 153.992 618.992 153 620 C153.66 621.32 154.32 622.64 155 624 C151.025 628.456 146.94 631.517 140.937 632.253 C138.762 632.33 136.612 632.312 134.438 632.25 C133.344 632.242 133.344 632.242 132.229 632.234 C128.926 632.187 125.993 631.999 122.746 631.312 C119.296 630.92 118.32 631.646 115.625 633.75 C110.818 637.241 106.112 640 100 640 C100.035 640.797 100.07 641.593 100.105 642.414 C100.387 653.445 100.387 653.445 97 658 C85.926 666.921 60.676 663.071 47.375 663.032 C46.122 663.03 44.868 663.028 43.577 663.026 C39.718 663.02 35.859 663.01 32 663 C29.703 662.996 27.405 662.991 25.108 662.987 C11.964 662.959 -1.179 662.897 -14.323 662.816 C-20.861 662.776 -27.399 662.744 -33.937 662.729 C-40.344 662.714 -46.751 662.68 -53.158 662.632 C-55.582 662.617 -58.006 662.609 -60.431 662.608 C-63.794 662.606 -67.156 662.579 -70.52 662.546 C-71.513 662.551 -72.506 662.556 -73.529 662.561 C-77.821 662.496 -80.367 662.361 -84.151 660.2 C-86 658 -86 658 -86.062 654.25 C-84.206 645.118 -78.642 637.022 -71.055 631.613 C-55.812 623.313 -34.476 626.57 -18 629 C-17.01 629.33 -16.02 629.66 -15 630 C-16.707 626.585 -20.122 626.061 -23.59 624.855 C-29.297 623.424 -34.996 623.407 -40.843 623.479 C-42.932 623.5 -45.018 623.479 -47.107 623.453 C-58.945 623.428 -70.3 625.394 -79 634 C-80.883 636.327 -82.659 638.681 -84.359 641.145 C-86.29 643.328 -87.131 643.713 -90 644 C-91.878 643.941 -93.755 643.811 -95.625 643.625 C-97.067 643.49 -97.067 643.49 -98.539 643.352 C-101 643 -101 643 -103 642 C-101.395 631.101 -92.983 621.131 -85 614 C-75.577 608.199 -63.77 607.334 -53 609 C-47.258 610.861 -42.158 613.919 -37 617 C-36.67 617 -36.34 617 -36 617 C-37.936 615.498 -39.874 613.998 -41.812 612.5 C-42.406 612.04 -42.999 611.58 -43.61 611.106 C-47.129 608.391 -50.704 605.82 -54.375 603.312 C-62.942 597.159 -72.12 588.844 -78 580 C-78.633 574.407 -77.188 570.046 -75.125 564.938 C-72.765 558.871 -70.566 552.781 -68.59 546.578 C-61.68 524.926 -54.346 503.631 -33 492 C-27.431 489.425 -21.73 487.187 -16 485 C-26.457 487.637 -35.927 491.777 -44 499 C-44.66 499 -45.32 499 -46 499 C-46 499.66 -46 500.32 -46 501 C-46.66 501 -47.32 501 -48 501 C-48.276 501.603 -48.552 502.207 -48.836 502.828 C-50 505 -50 505 -52.625 507.75 C-61.536 517.996 -65.697 532.15 -69.785 544.84 C-74.72 560.101 -80.237 574.944 -86.663 589.634 C-87.244 590.964 -87.825 592.294 -88.406 593.625 C-88.696 594.288 -88.985 594.951 -89.284 595.634 C-93.75 605.942 -97.734 616.454 -101.763 626.938 C-113.16 656.406 -113.16 656.406 -123.285 661.047 C-126.121 662.043 -128.221 662.253 -131.214 662.259 C-132.229 662.265 -133.244 662.271 -134.29 662.278 C-135.376 662.274 -136.463 662.27 -137.582 662.266 C-138.71 662.268 -139.838 662.269 -141.001 662.271 C-143.385 662.273 -145.77 662.269 -148.155 662.261 C-151.789 662.25 -155.422 662.261 -159.057 662.273 C-161.378 662.272 -163.699 662.27 -166.02 662.266 C-167.1 662.27 -168.18 662.274 -169.294 662.278 C-182.748 662.195 -182.748 662.195 -188.5 658.312 C-190.62 655.044 -190.286 652.859 -190 649 C-186.419 638.973 -181.365 631.385 -171.871 626.336 C-167.336 624.467 -162.896 624.669 -158.062 624.812 C-157.188 624.826 -156.313 624.84 -155.412 624.854 C-153.274 624.889 -151.137 624.942 -149 625 C-148.718 624.272 -148.435 623.543 -148.145 622.793 C-147.094 620.23 -145.914 617.794 -144.688 615.312 C-133.34 590.335 -129.852 555.35 -138.652 529.052 C-140.074 525.468 -141.617 522.972 -144.5 520.438 C-173.032 493.26 -191.317 454.784 -192.333 415.382 C-192.518 401.268 -190.632 387.834 -188 374 C-187.628 372.023 -187.258 370.045 -186.891 368.066 C-186.729 367.205 -186.566 366.343 -186.399 365.455 C-185.318 358.81 -185.557 353.869 -188.637 347.824 C-193.741 340.994 -202.284 338.869 -209.922 335.887 C-220.993 331.445 -233.228 324.786 -239.156 313.871 C-239.779 312.25 -240.39 310.626 -241 309 C-243.035 307.518 -243.035 307.518 -245 307 C-244.34 306.67 -243.68 306.34 -243 306 C-243 304.02 -243 302.04 -243 300 C-247.147 300.62 -251.292 301.247 -255.438 301.875 C-256.602 302.049 -257.767 302.223 -258.967 302.402 C-264.061 303.177 -269.09 303.974 -274.098 305.195 C-277.654 305.929 -278.758 306.016 -282 305 C-278.647 304.182 -275.292 303.372 -271.938 302.562 C-270.523 302.217 -270.523 302.217 -269.08 301.865 C-262.057 300.177 -255.32 298.848 -248.062 298.938 C-247.105 298.947 -246.147 298.956 -245.16 298.965 C-244.091 298.982 -244.091 298.982 -243 299 C-243.309 297.36 -243.309 297.36 -243.625 295.688 C-245.873 275.872 -229.477 254.528 -217.814 239.729 C-216.974 238.68 -216.131 237.634 -215.284 236.59 C-213.966 234.958 -212.675 233.308 -211.383 231.656 C-194.352 210.282 -170.649 200.711 -143.984 197.504 C-133.235 196.352 -123.731 196.931 -113.277 199.441 C-110.041 199.993 -108.08 200.093 -105 199 C-101.967 194.451 -101.876 190.463 -101.938 185.09 C-101.946 183.945 -101.955 182.801 -101.964 181.622 C-101.976 180.406 -101.988 179.19 -102 177.938 C-102.197 118.851 -85.556 69.533 -45 26 C-44.304 25.25 -43.608 24.5 -42.891 23.727 C-32.744 13.173 -15.858 -2.769 0 0 Z " fill="#030507" transform="translate(604,170)"/>
<path d="M0 0 C21.614 0.275 45.373 25.258 59.48 39.629 C76.69 57.563 89.264 78.755 99.427 101.324 C100.069 102.746 100.725 104.16 101.403 105.564 C103.068 109.122 103.807 111.411 102.875 115.25 C102.566 116.65 102.566 116.65 102.25 118.078 C101.982 119.228 101.714 120.378 101.438 121.562 C100.915 124.002 100.408 126.444 99.908 128.888 C99.563 130.578 99.21 132.267 98.847 133.954 C96.748 144.081 96.38 154.125 96.262 164.438 C96.25 165.417 96.238 166.396 96.225 167.404 C96.177 171.501 96.129 175.597 96.112 179.694 C96.096 182.713 96.056 185.731 96.012 188.75 C96.014 189.676 96.016 190.602 96.018 191.556 C95.896 197.913 95.896 197.913 93.583 201.192 C91.438 202.562 91.438 202.562 88.539 202.297 C87.392 201.972 86.245 201.647 85.062 201.312 C74.97 198.765 64.771 199.286 54.438 199.562 C54.758 198.973 55.079 198.384 55.41 197.777 C57.984 192.227 56.493 187.066 54.562 181.562 C48.971 167.998 40.136 156.669 30.927 145.395 C3.976 112.232 -8.001 70.233 -7.878 27.786 C-7.875 25.47 -7.899 23.154 -7.924 20.838 C-7.926 19.339 -7.927 17.839 -7.926 16.34 C-7.935 15.661 -7.944 14.981 -7.954 14.281 C-7.894 8.047 -6.873 1.085 0 0 Z " fill="#030507" transform="translate(403.5625,166.4375)"/>
<path d="M0 0 C0 0.33 0 0.66 0 1 C-0.993 1.208 -1.985 1.415 -3.008 1.629 C-22.442 5.935 -37.464 14.701 -48.639 31.458 C-54.042 40.172 -57.063 49.21 -60.125 58.938 C-60.876 61.285 -61.631 63.63 -62.389 65.975 C-62.882 67.499 -63.371 69.024 -63.858 70.55 C-65.353 75.184 -67.034 79.681 -68.867 84.191 C-71.29 90.414 -71.29 90.414 -71 97 C-69.379 99.309 -67.98 101.003 -66 102.938 C-65.492 103.458 -64.983 103.978 -64.459 104.514 C-63.441 105.552 -62.416 106.584 -61.384 107.609 C-60.25 108.749 -59.161 109.933 -58.086 111.129 C-52.602 117.127 -45.882 121.497 -39.219 126.07 C-35.056 128.93 -31.016 131.939 -27 135 C-27.66 135.33 -28.32 135.66 -29 136 C-31.547 134.778 -33.98 133.508 -36.438 132.125 C-47.032 126.252 -57.446 125.377 -69.418 127.648 C-81.533 131.647 -88.161 141.216 -94 152 C-95.074 154.311 -96.044 156.636 -97 159 C-94.604 159.304 -92.215 159.569 -89.812 159.812 C-89.139 159.902 -88.465 159.992 -87.771 160.084 C-83.799 160.452 -82.295 160.239 -79.152 157.695 C-77.665 155.833 -76.199 153.954 -74.75 152.062 C-69.137 145.278 -61.51 141.672 -53 140 C-48.387 139.617 -43.803 139.526 -39.178 139.554 C-37.069 139.562 -34.962 139.534 -32.854 139.502 C-24.871 139.46 -17.037 139.817 -10 144 C-9.67 144.99 -9.34 145.98 -9 147 C-9.643 146.939 -10.286 146.879 -10.949 146.816 C-40.093 142.815 -40.093 142.815 -67.188 151.426 C-73.79 157.16 -78.089 164.143 -79.438 172.812 C-79.195 175.135 -79.195 175.135 -77.259 176.612 C-74.711 178.178 -73.384 178.381 -70.424 178.399 C-69.51 178.411 -68.595 178.424 -67.653 178.437 C-66.657 178.435 -65.66 178.434 -64.633 178.432 C-63.577 178.443 -62.521 178.453 -61.433 178.463 C-57.925 178.494 -54.418 178.503 -50.91 178.512 C-48.452 178.529 -45.994 178.547 -43.535 178.566 C-37.035 178.614 -30.534 178.643 -24.033 178.67 C-17.529 178.699 -11.025 178.746 -4.521 178.791 C9.652 178.885 23.826 178.961 38 179 C39.879 179.005 39.879 179.005 41.796 179.011 C45.659 179.02 49.522 179.026 53.385 179.031 C55.134 179.035 55.134 179.035 56.919 179.039 C80.705 180.689 80.705 180.689 102.5 174.062 C105.096 170.494 105.239 167.104 105.562 162.812 C105.646 161.726 105.73 160.639 105.816 159.52 C105.877 158.688 105.938 157.857 106 157 C106.857 156.697 107.714 156.394 108.598 156.082 C116.19 153.398 116.19 153.398 122.938 149.125 C126 147 126 147 128.676 147.344 C129.773 147.56 130.87 147.777 132 148 C141.118 148.631 149.08 148.99 157.312 144.484 C159.12 143.104 159.12 143.104 159.875 141.016 C160.224 138.68 160.224 138.68 158 136 C158.701 135.464 159.402 134.928 160.125 134.375 C170.552 125.761 177.841 113.688 179.2 99.983 C179.301 97.964 179.322 95.96 179.312 93.938 C179.329 93.269 179.345 92.601 179.361 91.912 C179.366 86.828 178.463 83.364 176 79 C173.458 77.576 172.27 77.936 169.449 78.602 C163.597 80.77 158.88 83.096 154 87 C153.34 86.67 152.68 86.34 152 86 C153.485 79.565 153.485 79.565 155 73 C155.99 73 156.98 73 158 73 C157.67 74.98 157.34 76.96 157 79 C157.846 78.567 158.691 78.134 159.562 77.688 C160.697 77.131 161.831 76.574 163 76 C164.114 75.423 165.227 74.845 166.375 74.25 C171.081 72.627 173.202 72.663 178 74 C185.096 82.187 183.615 93.798 183 104 C182.408 107.59 181.445 110.673 180 114 C179.722 114.75 179.443 115.5 179.156 116.273 C176.337 123.394 171.709 128.925 166.688 134.625 C164.764 137.004 164.764 137.004 164.25 140.438 C162.524 145.357 159.536 147.579 155 150 C149.659 151.912 144.963 152.281 139.375 152.188 C138.638 152.187 137.9 152.186 137.141 152.186 C134.042 152.161 131.173 152.039 128.145 151.352 C127.437 151.236 126.729 151.12 126 151 C124.577 152.158 123.161 153.33 121.824 154.586 C118.349 157.279 114.111 158.546 110 160 C110.035 160.58 110.07 161.16 110.105 161.758 C110.342 168.593 109.187 172.467 104.625 177.75 C96.274 184.139 81.977 182.288 71.948 182.259 C70.381 182.262 68.814 182.265 67.247 182.269 C63.033 182.278 58.818 182.275 54.604 182.269 C50.176 182.264 45.749 182.268 41.321 182.271 C33.895 182.275 26.47 182.27 19.044 182.261 C10.471 182.25 1.897 182.253 -6.676 182.264 C-14.059 182.273 -21.442 182.275 -28.825 182.27 C-33.225 182.266 -37.626 182.266 -42.026 182.273 C-46.158 182.278 -50.29 182.274 -54.422 182.263 C-55.935 182.26 -57.448 182.261 -58.96 182.265 C-61.031 182.271 -63.101 182.264 -65.171 182.254 C-66.328 182.253 -67.485 182.252 -68.676 182.252 C-73.475 181.888 -77.602 181.14 -81.375 178.062 C-84.396 174.228 -84.172 170.721 -84 166 C-83.67 165.34 -83.34 164.68 -83 164 C-83.557 164.012 -84.114 164.023 -84.688 164.035 C-89.898 164.097 -94.844 163.75 -100 163 C-100.326 163.592 -100.652 164.183 -100.988 164.793 C-101.891 166.426 -102.802 168.055 -103.719 169.68 C-104.645 171.358 -105.502 173.075 -106.312 174.812 C-109.307 178.694 -113.552 180.501 -118.301 181.469 C-120.193 181.711 -122.097 181.864 -124 182 C-123.67 181.01 -123.34 180.02 -123 179 C-120.597 177.91 -118.153 177.157 -115.641 176.355 C-103.188 169.963 -98.099 147.996 -93.465 135.887 C-88.122 121.924 -82.714 108.031 -76.625 94.375 C-71.33 82.452 -67.223 70.225 -63.358 57.779 C-61.024 50.367 -58.407 43.296 -54.945 36.328 C-54.627 35.686 -54.309 35.044 -53.981 34.382 C-50.848 28.313 -46.894 22.793 -42 18 C-41.34 18 -40.68 18 -40 18 C-40 17.34 -40 16.68 -40 16 C-29.104 6.671 -14.539 -0.338 0 0 Z " fill="#F1F1F0" transform="translate(598,653)"/>
<path d="M0 0 C2.792 2.286 4.93 4.122 5.32 7.805 C5.462 14.686 4.332 19.456 -0.445 24.699 C-4.442 27.692 -8.948 28.707 -13.883 28.887 C-17.687 28.198 -20.205 26.803 -22.547 23.637 C-24.862 18.87 -24.515 14.064 -23.883 8.887 C-21.731 4.424 -18.978 1.651 -14.883 -1.113 C-10.029 -2.694 -4.464 -2.64 0 0 Z " fill="#F5F5F4" transform="translate(468.8828125,409.11328125)"/>
<path d="M0 0 C0.66 0 1.32 0 2 0 C2.181 5.259 1.893 10.114 1.062 15.312 C-1.232 30.593 -1.139 46.025 -0.875 61.444 C-0.73 75.488 -0.73 75.488 -4.793 79.984 C-7.697 81.321 -9.221 80.967 -12.312 80.25 C-19.688 78.609 -26.906 77.808 -34.438 77.438 C-35.264 77.394 -36.091 77.351 -36.943 77.307 C-38.962 77.202 -40.981 77.1 -43 77 C-43 76.67 -43 76.34 -43 76 C-32.481 73.576 -22.364 75.021 -12.082 77.637 C-9.076 78.345 -9.076 78.345 -7.332 76.784 C-5.71 74.612 -5.618 73.504 -5.599 70.814 C-5.586 69.972 -5.573 69.129 -5.559 68.261 C-5.559 67.348 -5.559 66.436 -5.559 65.496 C-5.545 64.544 -5.532 63.592 -5.519 62.612 C-5.478 59.554 -5.456 56.496 -5.438 53.438 C-5.293 35.346 -5.147 17.5 0 0 Z " fill="#EEEEED" transform="translate(504,290)"/>
<path d="M0 0 C0 0.33 0 0.66 0 1 C-1.489 1.311 -1.489 1.311 -3.008 1.629 C-22.589 5.967 -37.48 14.825 -48.773 31.641 C-53.966 39.94 -57.006 48.743 -60 58 C-61.152 56.469 -61.152 56.469 -62 54 C-61.33 51.33 -60.585 49.03 -59.562 46.5 C-59.285 45.792 -59.007 45.083 -58.72 44.354 C-54.832 34.748 -49.822 25.017 -42 18 C-41.34 18 -40.68 18 -40 18 C-40 17.34 -40 16.68 -40 16 C-29.104 6.671 -14.539 -0.338 0 0 Z " fill="#E8E7E5" transform="translate(598,653)"/>
<path d="M0 0 C-1.398 3.158 -3.052 5.323 -5.5 7.75 C-6.413 8.67 -6.413 8.67 -7.344 9.609 C-9 11 -9 11 -11 11 C-11.504 9.71 -12.003 8.418 -12.5 7.125 C-12.918 6.046 -12.918 6.046 -13.344 4.945 C-14 3 -14 3 -14 1 C-12.229 0.832 -10.458 0.665 -8.688 0.5 C-7.701 0.407 -6.715 0.314 -5.699 0.219 C-3 0 -3 0 0 0 Z " fill="#F1F1F0" transform="translate(383,450)"/>
<path d="M0 0 C1.816 1.605 1.816 1.605 3 3 C2.138 2.783 1.275 2.567 0.387 2.344 C-12.321 -0.555 -25.106 -1.126 -38 1 C-31.057 -7.405 -8.702 -3.615 0 0 Z " fill="#4A4B4C" transform="translate(460,461)"/>
<path d="M0 0 C6.457 -0.574 12.239 1.02 18 4 C18.33 4.99 18.66 5.98 19 7 C11.08 6.34 3.16 5.68 -5 5 C-5 4.67 -5 4.34 -5 4 C-3.866 3.856 -2.731 3.711 -1.562 3.562 C1.808 3.388 1.808 3.388 3 2 C2.01 1.34 1.02 0.68 0 0 Z " fill="#EDEDEC" transform="translate(570,793)"/>
<path d="M0 0 C0.66 0.33 1.32 0.66 2 1 C1.67 2.98 1.34 4.96 1 7 C2.32 7.33 3.64 7.66 5 8 C5 8.66 5 9.32 5 10 C3.469 11.289 3.469 11.289 1.5 12.625 C0.85 13.071 0.201 13.517 -0.469 13.977 C-0.974 14.314 -1.479 14.652 -2 15 C-2.66 14.67 -3.32 14.34 -4 14 C-3.525 11.853 -3.045 9.708 -2.562 7.562 C-2.296 6.368 -2.029 5.173 -1.754 3.941 C-1 1 -1 1 0 0 Z " fill="#EEEDEC" transform="translate(754,725)"/>
<path d="M0 0 C4.201 1.4 6.879 3.387 10.125 6.375 C10.973 7.146 11.821 7.917 12.695 8.711 C14.707 10.708 16.38 12.682 18 15 C17.67 15.66 17.34 16.32 17 17 C11.333 11.333 5.667 5.667 0 0 Z " fill="#7D7D7D" transform="translate(420,482)"/>
<path d="M0 0 C2 3 2 3 2 5 C5.3 5.33 8.6 5.66 12 6 C11.01 6.99 10.02 7.98 9 9 C5.242 8.807 2.617 7.714 0 5 C-0.25 2.312 -0.25 2.312 0 0 Z " fill="#ECECEA" transform="translate(379,486)"/>
<path d="M0 0 C4.501 1.068 8.749 2.14 13 4 C13 4.66 13 5.32 13 6 C8.153 5.409 4.393 4.021 0 2 C0 1.34 0 0.68 0 0 Z " fill="#808080" transform="translate(423,475)"/>
<path d="M0 0 C4.435 1.394 6.874 3.606 10 7 C5.766 5.689 1.926 4.056 -2 2 C-1.34 1.34 -0.68 0.68 0 0 Z " fill="#E8E8E6" transform="translate(561,782)"/>
<path d="M0 0 C0 3.344 -0.475 4.068 -2.375 6.688 C-2.816 7.31 -3.257 7.933 -3.711 8.574 C-4.136 9.045 -4.562 9.515 -5 10 C-5.66 10 -6.32 10 -7 10 C-6.424 6.647 -5.407 5.062 -2.938 2.75 C-2.116 1.969 -2.116 1.969 -1.277 1.172 C-0.645 0.592 -0.645 0.592 0 0 Z " fill="#EFEFEE" transform="translate(556,672)"/>
</svg>
