<?xml version="1.0" encoding="UTF-8"?>
<!-- Generator: visioncortex VTracer 0.6.4 -->
<svg version="1.1" xmlns="http://www.w3.org/2000/svg" width="1024" height="1024">
<path d="M0 0 C3.1910080442507365 0.591669705637969 4.974704788088928 1.5472838460397043 7.390625 3.6953125 C8.324550781249997 4.516002197265607 8.324550781249997 4.516002197265607 9.27734375 5.353271484375 C9.928320312500006 5.937941894531264 10.579296875000011 6.522612304687527 11.25 7.125 C11.9267578125 7.72320556640625 12.603515625 8.3214111328125 13.30078125 8.937744140625 C14.629334201643047 10.112547166144623 15.95559572258395 11.289947775166809 17.279296875 12.47021484375 C19.167179950011587 14.148630755785007 21.081177302131664 15.794614194524229 23 17.4375 C32.99548308857959 26.234381262111754 42.57162309722412 35.47689812279498 52 44.875 C53.18299682617186 46.05110839843752 53.18299682617186 46.05110839843752 54.389892578125 47.2509765625 C58.57943529249326 51.45164865396521 62.607421946712634 55.73467664809863 66.47705078125 60.23193359375 C69.0811491715699 63.25515907350257 71.79772453365831 66.17816675962018 74.49609375 69.1171875 C76 71 76 71 76 73 C82.80857165743384 71.57570291793775 89.59625133544961 70.11267582159161 96.3525390625 68.459228515625 C127.57010982606221 60.87487781965723 161.52297298248993 60.766913338209406 192.39453125 70.32421875 C193.0801513671875 70.53127441406252 193.76577148437502 70.73833007812499 194.47216796875 70.95166015625 C196.30282093030536 71.52064074131977 198.1190287618358 72.13553494118429 199.93359375 72.75390625 C203.15992714917377 73.36288317918115 203.15992714917377 73.36288317918115 205.65625 70.90234375 C206.4296875 69.94457031249999 207.203125 68.98679687499998 208 68 C208.67160156249997 67.195625 209.343203125 66.39125000000001 210.03515625 65.5625 C210.70417968750002 64.71687500000002 211.37320312499997 63.87125000000003 212.0625 63 C220.71500322200518 52.37018242742312 230.25359187975215 42.63840118718815 239.901611328125 32.92315673828125 C240.99266093820478 31.824048147912436 242.08222756186962 30.723465072570605 243.170166015625 29.62127685546875 C249.39222917313975 23.32646770564321 255.70750804963177 17.414936084915098 262.640380859375 11.8896484375 C266.2307002593856 9.014421106296481 269.54742136767027 5.890722876983659 272.90625 2.75 C275 1 275 1 278 0 C292.54203865240595 29.212767912355332 297.2766664776567 62.01621150067399 297.25 94.3125 C297.24940582275394 95.1099563598633 297.2488116455079 95.90741271972655 297.2481994628906 96.72903442382813 C297.2416008848729 99.04477701422888 297.2257714922048 101.36014230516787 297.203125 103.67578125 C297.19610061645506 104.40921249389646 297.1890762329101 105.14264373779298 297.1818389892578 105.89830017089844 C297.11487498201996 110.01733391676157 296.7863237161786 114.00387154672154 296.2265625 118.08203125 C295.65823259254284 123.53665013370664 297.27706216155764 126.82005642804745 300.125 131.375 C300.96998553923606 132.84862606495074 301.80981447735985 134.3252206195686 302.64453125 135.8046875 C303.25675537109373 136.8754150390625 303.25675537109373 136.8754150390625 303.88134765625 137.9677734375 C312.00646751407066 152.7284669548502 315.1989433053251 170.96068662031325 315.1875 187.625 C315.1881445312499 188.5932470703125 315.18878906250006 189.56149414062497 315.189453125 190.55908203125 C315.13570390113796 197.87752748937146 314.51632008808815 204.82455672601156 313 212 C313.57621093750004 211.83846435546877 314.1524218750001 211.6769287109375 314.74609375 211.510498046875 C330.4314108923228 207.9578552669143 354.0144220063646 210.4702664230128 369 216 C369.6600000000001 216.65999999999997 370.31999999999994 217.32 371 218 C366.92996852822546 217.57157563455007 362.8801956067605 217.13746264722863 358.8359375 216.505859375 C348.6966398260781 214.96023472958507 338.80367181235613 214.7623311663612 328.5625 214.875 C326.9446670969112 214.88506579427911 325.32682802020554 214.8941851839627 323.708984375 214.90234375 C319.8057048046094 214.92230937440098 315.903312979538 214.96150157061277 312 215 C310.02 220.94 308.03999999999996 226.88 306 233 C307.8124218749999 233.363515625 309.6248437500001 233.72703124999998 311.4921875 234.1015625 C344.32508339279934 240.82384407145355 344.32508339279934 240.82384407145355 358 248 C357.6700000000001 248.65999999999997 357.3399999999999 249.31999999999994 357 250 C355.76250000000005 249.55269531249996 354.525 249.10539062500004 353.25 248.64453125 C337.5364961187893 243.10996444050147 321.53290807391954 239.16447543029028 305 237 C304.48050781250004 237.84562500000004 303.9610156250001 238.69124999999997 303.42578125 239.5625 C299.63948714431433 245.72249528086724 295.8430360185272 251.8751613454723 292 258 C292.9590625000001 258.0915234375 293.9181249999999 258.18304687499995 294.90625 258.27734375 C299.7186554072284 258.9719052733826 304.01986991313834 260.7301315426604 308.5 262.5625 C309.37422607421877 262.9167504882812 310.24845214843754 263.2710009765625 311.149169921875 263.635986328125 C321.5227582296236 267.92573065799706 332.3041918034129 272.788841983318 341 280 C341 280.6600000000001 341 281.31999999999994 341 282 C337.567366759974 280.6888241335887 334.3691663241025 279.19187460657554 331.1484375 277.42578125 C321.74714598861385 272.34603795295766 312.4199181528942 267.4425461050862 302.375 263.75 C301.2136352539062 263.31941284179686 301.2136352539062 263.31941284179686 300.02880859375 262.880126953125 C294.6181422055229 260.8953542776602 294.6181422055229 260.8953542776602 289 261 C286.70949052623496 262.90322337239445 286.70949052623496 262.90322337239445 284.6875 265.5 C283.8998828125 266.4191015624999 283.11226562499996 267.33820312500006 282.30078125 268.28515625 C281.5415234375 269.1810546875 280.78226562500004 270.07695312500005 280 271 C260.4284108981719 292.99195619757666 231.11537361647333 305.44180962527275 203 312 C202.33999999999997 312 201.68 312 201 312 C203.53838724271662 326.77099624095104 210.15863798210972 339.4622678981066 220.9375 349.9375 C221.61812500000002 350.61812499999996 222.29874999999998 351.2987499999999 223 352 C223 352.6600000000001 223 353.31999999999994 223 354 C223.83724609374997 354.35578125000006 223.83724609374997 354.35578125000006 224.69140625 354.71875 C227.5360824559944 356.2975212276923 229.57868246591852 358.2582365691135 231.9375 360.5 C235.89654313101016 364.1952858924126 239.9810401538869 367.6188464222088 244.3125 370.875 C259.86181287761 382.6286286239887 274.01866918870167 395.57978630502 286 411 C286.7154296875 411.8868749999999 287.43085937499995 412.77375000000006 288.16796875 413.6875 C315.1958895858554 448.13016018020505 331.8680325274703 494.4889666290186 327.108154296875 538.399169921875 C325.30548023310325 552.6041298372511 321.8463171001356 566.5360589708245 317.015625 580.00390625 C316.1109979194406 582.6725561376503 315.47505668132976 585.2271148057167 315 588 C315.82500000000005 588.268125 316.65 588.53625 317.5 588.8125 C320.67088432325045 589.8883357525314 323.769689677368 591.0678127244416 326.875 592.31640625 C346.315353562753 598.5701964586062 369.73356540937937 592.1500013360052 387.3203125 583.3359375 C396.09494021267096 578.4212483207801 404.1455747415389 572.3816887398813 411 565 C411.641953125 564.363203125 412.28390625 563.72640625 412.9453125 563.0703125 C430.6063844366987 544.7938722031377 438.48052033578847 520.2114432619059 438.2109375 495.11328125 C437.3119472782429 472.58858180486254 430.93664327509 451.10787100166317 421 431 C420.6395458984375 430.26668457031246 420.27909179687504 429.5333691406249 419.90771484375 428.77783203125 C414.8723759911942 418.64760366953783 409.2271586298182 408.92757065966987 403.375 399.25 C387.1391705987455 372.38022400622845 374.9493008035853 345.1494456169703 370 314 C369.86722656250004 313.1698437499999 369.7344531250001 312.3396875000001 369.59765625 311.484375 C364.0777242577964 268.2323051432811 378.71018419503093 222.3338197968664 405.0625 188.0625 C408.79819242670374 183.31135727414357 412.7581664923305 178.77022717001307 416.859375 174.33203125 C418.25293838850496 172.81386091617253 419.61946369174893 171.27027177111972 420.953125 169.69921875 C445.41065738220107 140.91687881240978 485.8385884492802 121.94278914914855 522.99609375 118.24609375 C554.7781144860526 116.06771271536724 586.1504523810656 121.96974082833378 611 143 C611.9938671875 143.79470703125003 611.9938671875 143.79470703125003 613.0078125 144.60546875 C630.5302211659101 159.0700453153886 641.0350060422281 180.71693002505276 644 203 C645.7099702755607 222.8731911293831 639.3547114590878 241.50134606225777 627 257 C626.5062890625 257.6587109375 626.012578125 258.31742187500004 625.50390625 258.99609375 C618.1027486057748 268.41003081021836 606.5928194150285 274.4593504110977 595 277 C582.5585953260464 277.7521562786037 571.4896271965996 277.8319770880905 561.4375 269.5 C558.3676002825144 266.69177572620856 556.2753798549303 264.14634298695637 555.734375 259.9296875 C555.7777777777778 254.22222222222217 555.7777777777778 254.22222222222217 558 252 C559.92578125 251.953125 559.92578125 251.953125 562.3125 252.25 C563.20453125 252.35441406250004 564.0965625 252.45882812499997 565.015625 252.56640625 C567.0945982838357 252.86845603338452 569.1676602835765 253.212942877802 571.234375 253.58984375 C582.2234929900305 255.563241698914 589.7169770162113 254.36501392086984 599 248 C607.6846179121134 241.39607179599716 613.1432486634626 230.63503803555028 615 220 C616.8367563091723 202.91548040433594 611.9991698753648 187.5313746248715 601.59375 173.83203125 C589.1292899656906 158.9308570568707 571.4579838061491 150.67494448320622 552.3125 148.375 C516.5419707648751 145.33892112973479 482.27010162800616 158.2302972079238 455 181 C426.7865645948249 204.83298857732268 406.6597005931467 240.15129125325984 402 277 C400.56117486219773 302.56737630945315 402.5055287627679 327.33704253796975 413 351 C413.292939453125 351.68562011718745 413.58587890624995 352.371240234375 413.8876953125 353.07763671875 C418.40294411209027 363.5761811789491 423.8743078782227 373.39416184110337 429.75 383.1875 C450.8792121626875 418.4228342391284 469.4983927739539 454.6442166564266 469.375 496.6875 C469.3741842651367 497.7397375488281 469.3741842651367 497.7397375488281 469.37335205078125 498.813232421875 C469.3337377976418 509.9546618888312 468.5259977413075 520.3713688644488 465 531 C464.6705639648437 532.018037109375 464.6705639648437 532.018037109375 464.33447265625 533.056640625 C462.76498131382573 537.7973264349554 460.96773174424936 542.4114170389419 459 547 C458.4985546875 548.17046875 457.99710937500004 549.3409375 457.48046875 550.546875 C444.8067467621963 577.8061699810669 419.8416940609129 602.1066319308148 391.518310546875 612.623291015625 C387.7205149231845 613.9175259603227 383.88386889800427 614.9968920541321 380 616 C379.20625976562496 616.208828125 378.4125195312499 616.41765625 377.5947265625 616.6328125 C365.3393352851399 619.7051676318094 353.25827747913695 620.3656272421971 340.6875 620.375 C339.97399383544916 620.3769940185547 339.26048767089844 620.3789880371094 338.5253601074219 620.3810424804688 C320.75081303451134 620.3754065172557 320.75081303451134 620.3754065172557 314 617 C313.6700000000001 618.65 313.3399999999999 620.3 313 622 C312.24135650634764 622.0103074645996 311.4827130126953 622.0206149291993 310.7010803222656 622.0312347412109 C301.00900726006523 622.1634285050025 291.31698917615995 622.2993015755522 281.625 622.4375 C280.85020671844484 622.448521232605 280.0754134368897 622.45954246521 279.2771415710449 622.4708976745605 C258.29265645057455 622.7701200861648 237.31124735250444 623.1038581854702 216.33251953125 623.695068359375 C213.40424602933547 623.7773915943905 210.47628201725496 623.8445459217417 207.54736328125 623.89892578125 C204.1831438086166 623.961466777365 200.825952991161 624.092215105604 197.46435546875 624.23779296875 C195.57913564404873 624.2938023844935 193.69388156964612 624.3486717909095 191.80859375 624.40234375 C190.93525894165037 624.4509706115723 190.0619241333008 624.4995974731445 189.16212463378906 624.5496978759766 C184.39858759150155 624.6472837944204 181.66662822905437 624.2104241828675 177.949462890625 621.099853515625 C174.66540876898443 617.9325465054984 173.80468497137502 615.811233888751 173.625 611.25 C173.68591641477326 607.4122658692834 173.986374449739 606.0241743633663 175.9375 602.5625 C183.48058253334386 596.2509411455694 192.5073071417392 596.3915904593024 202 596 C201.5153125 595.5011328125 201.030625 595.002265625 200.53125 594.48828125 C183.4307092738448 576.1709712798684 178.22456380090983 555.257416128551 178.68359375 530.84375 C179.5082107807134 509.7556358087015 187.6480785973577 488.7231737684044 203 474 C216.80067305433818 462.2095090152013 231.7316078918542 456.14068538864126 250 457 C250.99 457 251.98000000000002 457 253 457 C233.66061030027964 454.1201366999271 217.77554408470678 454.96223641209167 201.46875 467.01171875 C184.67541441567744 480.5367311114244 175.70355416822764 498.7254263434759 173 520 C172.68219513249176 525.0631536223748 172.6132738368213 530.1159727460101 172.625 535.1875 C172.62388214111326 535.8692126464844 172.62276428222657 536.5509252929687 172.62161254882813 537.2532958984375 C172.6300401861509 547.6857915253772 173.45080537300242 557.1363747715569 177 567 C179.17938300626133 573.538149018784 177.65232378928323 579.0855136604316 175.515625 585.34765625 C175.13032623291014 586.5100406646729 175.13032623291014 586.5100406646729 174.73724365234375 587.6959075927734 C174.19419551061304 589.3254316714543 173.64594621745078 590.9532307370911 173.0927734375 592.579345703125 C172.25285226073214 595.0540960765044 171.43395008810808 597.5351014620469 170.6171875 600.017578125 C170.0845770828052 601.6071881020015 169.5507626536741 603.1963952776988 169.015625 604.78515625 C168.7737847900391 605.5196852111817 168.53194458007812 606.2542141723633 168.28277587890625 607.0110015869141 C166.33963328898864 612.6611294748599 163.91400141469506 617.2733631816229 159.40625 621.33984375 C154.70001751166052 623.633592382505 150.66853971102847 623.6237727859746 145.5 623.5625 C144.5757421875 623.58634765625 143.651484375 623.6101953125 142.69921875 623.634765625 C138.28342489647775 623.6252896725247 135.0083703559343 623.5143591929951 131.46484375 620.70703125 C127.39285617517226 616.2349434697217 125.91613760785577 612.432009372183 126.125 606.375 C127.39395884647547 601.4804444493091 128.41097863791987 598.1350152586286 132.625 595.125 C136.86812270092264 593.7106257663592 140.57329992873935 593.7343979957244 145 594 C148.8130206280049 565.9702419792404 151.10129178369732 537.8270199382566 145 510 C144.85691406249998 509.3369384765625 144.71382812499996 508.67387695312505 144.56640625 507.99072265625 C142.22170753548681 497.3539865630878 138.787843454493 487.2019250374344 135 477 C134.9655981445312 477.73371826171876 134.93119628906254 478.4674365234375 134.895751953125 479.223388671875 C133.11169153881718 515.4163042086469 129.42413229266265 551.5070641636312 122 587 C121.75104980468751 588.2176806640625 121.50209960937502 589.435361328125 121.24560546875 590.68994140625 C120.52642369659566 594.1546640154237 119.77258126029324 597.6093308246395 119 601.0625 C118.78738525390622 602.061845703125 118.5747705078125 603.06119140625 118.355712890625 604.0908203125 C116.55692186077488 611.6803120233913 113.68140997495072 617.3235726331536 107.28125 621.9765625 C102.6460701930281 623.4222971540793 98.32726683134916 623.4355933075065 93.5 623.375 C92.5757421875 623.3866015625 91.651484375 623.398203125 90.69921875 623.41015625 C85.38819628658291 623.3873621621742 81.56971895050958 622.9986538796122 77 620 C73.62006254627215 616.3460135635374 72.13555823379528 613.7622570393386 71.75 608.75 C72.1064775739112 603.4028363913321 73.5403884710218 599.6807647909446 77.0625 595.625 C81.24100454672134 593.3134868464946 85.28748536989877 593.1830102768971 90 593 C90.32069765800946 591.4183066964194 90.63089750030508 589.8344859108321 90.9375 588.25 C91.11152343750001 587.36828125 91.28554687500002 586.4865625 91.46484375 585.578125 C93.02356099595244 575.1563366985954 93.20520931923477 564.705776093514 93.1875 554.1875 C93.1865634155273 553.4639028930665 93.18562683105472 552.7403057861328 93.18466186523438 551.9947814941406 C93.08753523100768 517.1569410116323 85.84787159829352 484.42640468488753 77.633544921875 450.71875 C73.21066775180424 432.50205405206816 69.37676334871412 415.0515793896932 69.5 396.25 C69.50176239013672 395.5190914916992 69.50352478027344 394.7881829833984 69.50534057617188 394.0351257324219 C69.57388972818103 381.1850377485375 71.02595106600177 369.2816209725686 75 357 C75.25700683593749 356.2017480468751 75.51401367187498 355.40349609374994 75.77880859375 354.5810546875 C79.25205121504297 344.0952307393608 83.62319730337475 333.956289710488 88.0673828125 323.851318359375 C88.434443359375 323.01479736328133 88.80150390624999 322.17827636718744 89.1796875 321.31640625 C89.50694824218749 320.5784985351563 89.83420898437498 319.8405908203125 90.17138671875 319.080322265625 C90.97250451834827 317.0690303474232 91.52888053581893 315.11050799156214 92 313 C90.73800781249997 312.8878515624999 89.476015625 312.77570312500006 88.17578125 312.66015625 C71.48291373231416 310.78656678627385 55.256738935395106 304.78794149384703 40 298 C39.34177246093748 297.71012207031254 38.68354492187501 297.4202441406251 38.00537109375 297.12158203125 C21.14259491640047 289.57365007624617 2.3536791694349404 276.53051875415247 -8 261 C-14.146357262560173 261.5619526640055 -19.510249781148843 262.9253013252372 -25.3125 265 C-26.171176757812503 265.3039770507812 -27.029853515625007 265.6079541015624 -27.91455078125 265.921142578125 C-38.31148507120997 269.7040023165873 -49.251947530696526 273.9723072152068 -58.4140625 280.26953125 C-60.99999999999997 282 -60.99999999999997 282 -63 282 C-63 281.3399999999999 -63 280.68000000000006 -63 280 C-51.0783489700695 269.60167104611617 -26.78060507687036 258 -11 258 C-11.322749023437495 257.5467333984375 -11.645498046874991 257.09346679687496 -11.97802734375 256.62646484375 C-13.451433399014718 254.54801394306548 -14.913243021054257 252.46165808744513 -16.375 250.375 C-16.882890625000016 249.66214843750004 -17.390781250000003 248.94929687499996 -17.9140625 248.21484375 C-18.403906250000006 247.51230468749998 -18.89375000000001 246.809765625 -19.3984375 246.0859375 C-20.07398681640626 245.12760009765623 -20.07398681640626 245.12760009765623 -20.76318359375 244.14990234375 C-22.26739183794797 241.53520479175484 -23.121829723019687 238.87824788740897 -24 236 C-39.26909310299999 238.9557477282346 -54.05366364191673 242.27504334934054 -68.708984375 247.546875 C-69.64291015625 247.8807421875 -70.5768359375 248.214609375 -71.5390625 248.55859375 C-72.35584472656251 248.86079833984377 -73.17262695312499 249.16300292968754 -74.01416015625 249.474365234375 C-76 250 -76 250 -78 249 C-73.40784946971945 245.63918320812274 -69.03174314773173 243.71639858621552 -63.625 242 C-62.446232910156255 241.61871948242185 -62.446232910156255 241.61871948242185 -61.24365234375 241.229736328125 C-49.6266795946203 237.53745687934054 -38.25780214325553 234.4643106872445 -26 234 C-26.181757812499995 233.4652001953125 -26.36351562499999 232.93040039062498 -26.55078125 232.37939453125 C-27.370310443855487 229.9623087486031 -28.185207332588817 227.5436863415494 -29 225.125 C-29.286171875000008 224.28324218750004 -29.572343750000016 223.44148437499996 -29.8671875 222.57421875 C-30.13789062500001 221.7685546875 -30.408593749999994 220.962890625 -30.6875 220.1328125 C-31.064550781250006 219.01737060546873 -31.064550781250006 219.01737060546873 -31.44921875 217.87939453125 C-32 216 -32 216 -32 214 C-51.18872517009879 214.30765871696235 -70.0132299556326 214.92576737570835 -89 218 C-85.50063014357616 214.77119997783575 -81.80705460921271 214.1000442701067 -77.25 213.375 C-76.49775146484376 213.25020263671877 -75.74550292968749 213.12540527343754 -74.970458984375 212.996826171875 C-61.37729312828307 210.8538299436994 -47.724731166385425 210.8570340503502 -34 211 C-34.108281250000005 209.92298828125 -34.108281250000005 209.92298828125 -34.21875 208.82421875 C-36.87365084610056 179.2146995914062 -33.34135497733138 152.00322473145593 -17.8671875 126.10400390625 C-16.772016042832718 123.4468564913098 -16.993950558011477 121.81771436303723 -17.35546875 118.97265625 C-21.27916394112799 80.56694643106295 -18.602899871007253 34.661063438905046 0 0 Z M33 192 C28.772364011824777 197.41851936512603 28.32067374779632 203.07290393653443 28.5546875 209.8125 C29.58869501789775 217.2138169702153 33.52245659560401 222.14476949305902 39.15625 226.80859375 C45.641996995986915 230.99959551647459 52.5221947393818 230.66130250604107 60 230 C66.6595933338325 228.31914417452788 71.18547447165389 223.53621678032937 75 218 C78.1152458360873 211.69657615106075 78.33358009863952 204.01860074366823 76.125 197.36328125 C72.44653556120642 190.23625639983743 67.53007748830322 185.5819045133336 59.875 183.125 C49.16399559654087 180.1478198622973 40.25978131252748 183.88805474108102 33 192 Z M208.73046875 190.06640625 C203.3277791720601 196.1032715797523 202.2748354084373 201.75275976299383 202.5546875 209.8125 C203.56538859642586 217.04699205862732 207.42865636111236 222.3420635357927 213.11328125 226.78125 C219.13933064321503 230.6738533347476 225.03763510006797 231.99786685487766 232.15625 230.56640625 C239.68208534346775 228.4916468488043 245.53973829257757 224.01718404040253 249.5 217.25 C252.1916809497796 211.07707835517215 251.92711473614986 204.09066589133727 249.875 197.75 C247.04018590682824 191.31563126759158 242.6575412811759 186.56431816371742 236.19921875 183.72265625 C225.6360022722979 180.25161708770003 216.7101117982499 182.4053118264307 208.73046875 190.06640625 Z M127 232 C127.96147167023167 236.38003760883322 129.4037496596129 238.54622977997792 132.6875 241.4375 C135.55249495092835 244.14665840548037 135.96179406049146 244.54916991379952 136.3125 248.6875 C134.62439320235865 252.94796001309487 133.13717303888092 254.08464211162925 129 256 C124.54745934339013 256.45280074474 122.75456566705179 256.50304377803445 119 254 C118.66999999999996 253.01 118.34000000000003 252.01999999999998 118 251 C117.34000000000003 251.32999999999993 116.68 251.65999999999997 116 252 C117.9074975900752 255.62424542114286 119.1498752443431 257.52932171495627 123 259 C127.5606079074218 259.24475534386875 131.11885082010372 258.58118350163363 134.9375 256.0625 C135.61812499999996 255.38187500000004 136.29874999999998 254.70125000000007 137 254 C137.65999999999997 253.34000000000003 138.32 252.68000000000006 139 252 C139.763125 252.78375000000005 140.52625 253.5675 141.3125 254.375 C144.8841255075921 257.86356444927605 146.9334541033648 259.29990051828827 151.875 259.375 C155.65237243831285 259.31977525674984 156.83303997507653 259.10685441595103 160.125 257 C160.74374999999998 256.3399999999999 161.3625 255.68000000000006 162 255 C161.505 254.01 161.505 254.01 161 253 C160.34000000000003 253.495 159.68 253.99 159 254.5 C155.1564886122418 256.42175569387905 152.2183545437939 256.6050569143624 148 256 C145.0625 254.9375 145.0625 254.9375 143 253 C141.75 249.8125 141.75 249.8125 142 246 C143.56338093648344 243.69094143527514 145.28172694808325 241.78120999180203 147.23828125 239.796875 C149.1880559845826 237.9198706255168 149.1880559845826 237.9198706255168 151 235 C150.92393164100508 232.86196946131315 150.92393164100508 232.86196946131315 150 231 C146.31851930249053 229.77283976749686 142.89589237683595 229.81593186425857 139.0625 229.8125 C138.34642578125 229.80025390624996 137.63035156249998 229.78800781250004 136.892578125 229.775390625 C133.10026892144163 229.76484666984646 130.2140090649657 229.87690785003565 127 232 Z M162 251 C163 253 163 253 163 253 Z " fill="#000000" transform="translate(235,265)"/>
</svg>
